<?xml version="1.0" encoding="UTF-8" standalone="no"?>
<!DOCTYPE svg PUBLIC "-//W3C//DTD SVG 1.1//EN" "http://www.w3.org/Graphics/SVG/1.1/DTD/svg11.dtd">
<!-- Generated by Microsoft Visio, SVG Export caf-lz-federation.svg 5-lz-federation -->
<svg xmlns="http://www.w3.org/2000/svg" xmlns:xlink="http://www.w3.org/1999/xlink" xmlns:ev="http://www.w3.org/2001/xml-events"
		xmlns:v="http://schemas.microsoft.com/visio/2003/SVGExtensions/" width="4.34201in" height="2.93576in"
		viewBox="0 0 312.625 211.375" xml:space="preserve" color-interpolation-filters="sRGB" class="st19">
	<v:documentProperties v:langID="1033" v:viewMarkup="false">
		<v:userDefs>
			<v:ud v:nameU="msvNoAutoConnect" v:val="VT0(1):26"/>
		</v:userDefs>
	</v:documentProperties>

	<style type="text/css">
	<![CDATA[
		.st1 {fill:#ffffff;stroke:none;stroke-linecap:round;stroke-linejoin:round;stroke-width:1}
		.st2 {fill:#f5f4f2;stroke:#9e9892;stroke-linecap:round;stroke-linejoin:round;stroke-width:1}
		.st3 {fill:#000000;font-family:Oracle Sans;font-size:0.75em;font-weight:bold}
		.st4 {fill:#fcfbfa;stroke:#312d2a;stroke-linecap:round;stroke-linejoin:round;stroke-width:1}
		.st5 {fill:#312d2a;font-family:Oracle Sans;font-size:0.75em;font-weight:bold}
		.st6 {font-size:1em}
		.st7 {fill:#fcfbfa;stroke:#312d2a;stroke-dasharray:3,3;stroke-linecap:round;stroke-linejoin:round;stroke-width:1}
		.st8 {fill:none;stroke:none;stroke-width:0.25}
		.st9 {fill:#312d2a;font-family:Oracle Sans;font-size:0.666664em}
		.st10 {fill:#ffffff;stroke:none;stroke-linecap:butt;stroke-width:13.722}
		.st11 {fill:none;stroke:none;stroke-linecap:butt;stroke-width:13.722}
		.st12 {fill:#2c5967;stroke:none;stroke-linecap:butt;stroke-width:13.722}
		.st13 {fill:#ffffff;stroke:none;stroke-linecap:butt;stroke-width:10.75}
		.st14 {fill:#2c5967;stroke:none;stroke-linecap:butt;stroke-width:10.75}
		.st15 {fill:#ffffff;stroke:none;stroke-linecap:butt;stroke-width:14.5888}
		.st16 {fill:#2c5967;stroke:none;stroke-linecap:butt;stroke-width:14.5888}
		.st17 {marker-end:url(#mrkr3-104);marker-start:url(#mrkr3-102);stroke:#000000;stroke-linecap:round;stroke-linejoin:round;stroke-width:1}
		.st18 {fill:#000000;fill-opacity:1;stroke:#000000;stroke-opacity:1;stroke-width:0.28409090909091}
		.st19 {fill:none;fill-rule:evenodd;font-size:12px;overflow:visible;stroke-linecap:square;stroke-miterlimit:3}
	]]>
	</style>

	<defs id="Markers">
		<g id="lend3">
			<path d="M 2 1 L 0 0 L 2 -1 " style="stroke-linecap:round;stroke-linejoin:round;fill:none"/>
		</g>
		<marker id="mrkr3-102" class="st18" v:arrowType="3" v:arrowSize="2" orient="auto" markerUnits="strokeWidth"
				overflow="visible">
			<use xlink:href="#lend3" transform="scale(3.52) "/>
		</marker>
		<marker id="mrkr3-104" class="st18" v:arrowType="3" v:arrowSize="2" orient="auto" markerUnits="strokeWidth"
				overflow="visible">
			<use xlink:href="#lend3" transform="scale(-3.52,-3.52) "/>
		</marker>
	</defs>
	<g v:mID="28" v:index="8" v:groupContext="foregroundPage">
		<v:userDefs>
			<v:ud v:nameU="msvThemeOrder" v:val="VT0(0):26"/>
		</v:userDefs>
		<title>5-lz-federation</title>
		<v:pageProperties v:drawingScale="1" v:pageScale="1" v:drawingUnits="19" v:shadowOffsetX="9" v:shadowOffsetY="-9"/>
		<v:layer v:name="Connector" v:index="0"/>
		<g id="shape307-1" v:mID="307" v:groupContext="shape" transform="translate(18.5,-18.5)">
			<title>Sheet.307</title>
			<path d="M0 40.12 C0 38.45 0.48 37 1.03 37 L274.62 37 C275.17 37 275.62 38.45 275.62 40.12 L275.62 208.32 C275.62 209.99
						 275.17 211.38 274.62 211.38 L1.03 211.38 C0.48 211.38 0 209.99 0 208.32 L0 40.12 Z" class="st1"/>
		</g>
		<g id="shape2-3" v:mID="2" v:groupContext="shape" transform="translate(137.246,-19.5)">
			<title>Sheet.2</title>
			<desc>OCI Region</desc>
			<v:textBlock v:margins="rect(4,4,4,4)" v:verticalAlign="0"/>
			<v:textRect cx="77.4846" cy="125.398" width="154.97" height="171.953"/>
			<path d="M0 42.5 C0 40.85 0.27 39.42 0.58 39.42 L154.41 39.42 C154.71 39.42 154.97 40.85 154.97 42.5 L154.97 208.37 C154.97
						 210.01 154.71 211.38 154.41 211.38 L0.58 211.38 C0.27 211.38 0 210.01 0 208.37 L0 42.5 Z" class="st2"/>
			<text x="53.63" y="51.52" class="st3" v:langID="1033"><v:paragraph v:horizAlign="1"/><v:tabList/>OCI Region</text>		</g>
		<g id="shape7-6" v:mID="7" v:groupContext="shape" transform="translate(20.2703,-19.5)">
			<title>Sheet.7</title>
			<desc>On-Premises</desc>
			<v:textBlock v:margins="rect(4,4,4,4)" v:verticalAlign="0"/>
			<v:textRect cx="54.3852" cy="125.398" width="108.78" height="171.953"/>
			<path d="M0 42.5 C0 40.85 0.19 39.42 0.4 39.42 L108.38 39.42 C108.59 39.42 108.77 40.85 108.77 42.5 L108.77 208.37 C108.77
						 210.01 108.59 211.38 108.38 211.38 L0.4 211.38 C0.19 211.38 0 210.01 0 208.37 L0 42.5 Z" class="st2"/>
			<text x="26.62" y="51.52" class="st3" v:langID="1033"><v:paragraph v:horizAlign="1"/><v:tabList/>On-Premises</text>		</g>
		<g id="shape125-9" v:mID="125" v:groupContext="shape" transform="translate(49.9055,-31.0565)">
			<title>Physical Grouping.70</title>
			<desc>Microsoft Active Directory</desc>
			<v:textBlock v:margins="rect(4,4,4,4)" v:verticalAlign="0"/>
			<v:textRect cx="24.75" cy="153.298" width="49.5" height="116.155"/>
			<path d="M0 97.2 C-0 96.14 0.08 95.22 0.18 95.22 L49.32 95.22 C49.42 95.22 49.5 96.14 49.5 97.2 L49.5 209.39 C49.5 210.5
						 49.42 211.38 49.32 211.38 L0.18 211.38 C0.08 211.38 0 210.5 0 209.39 L0 97.2 Z" class="st4"/>
			<text x="4.01" y="107.32" class="st5" v:langID="1033"><v:paragraph v:horizAlign="1"/><v:tabList/>Microsoft <tspan
						x="11.14" dy="1.2em" class="st6">Active </tspan><tspan x="4.72" dy="1.2em" class="st6">Directory</tspan></text>		</g>
		<g id="shape195-14" v:mID="195" v:groupContext="shape" transform="translate(183.321,-31.7035)">
			<title>Physical Grouping.195</title>
			<path d="M0 97.2 C-0 96.14 0.13 95.22 0.28 95.22 L79.36 95.22 C79.52 95.22 79.65 96.14 79.65 97.2 L79.65 209.39 C79.65
						 210.5 79.52 211.38 79.36 211.38 L0.28 211.38 C0.13 211.38 0 210.5 0 209.39 L0 97.2 Z" class="st7"/>
		</g>
		<g id="group196-16" transform="translate(150.466,-120.29)" v:mID="196" v:groupContext="group">
			<title>IAM.115</title>
			<g id="shape211-17" v:mID="211" v:groupContext="shape">
				<title>Sheet.211</title>
				<desc>IAM</desc>
				<v:textBlock v:margins="rect(4,4,4,4)"/>
				<v:textRect cx="18.9684" cy="205.447" width="37.94" height="11.8553"/>
				<rect x="0" y="199.52" width="37.9369" height="11.8553" class="st8"/>
				<text x="11.68" y="207.85" class="st9" v:langID="1033"><v:paragraph v:horizAlign="1" v:bulletSize="0.166667"/><v:tabList/>IAM</text>			</g>
		</g>
		<g id="group241-20" transform="translate(150.466,-42.108)" v:mID="241" v:groupContext="group">
			<title>Sheet.241</title>
			<g id="group197-21" transform="translate(3.9968E-15,-90.0373)" v:mID="197" v:groupContext="group">
				<title>IAM</title>
				<g id="group198-22" v:mID="198" v:groupContext="group">
					<title>Sheet.198</title>
					<g id="group199-23" v:mID="199" v:groupContext="group">
						<title>Sheet.199</title>
						<g id="shape200-24" v:mID="200" v:groupContext="shape" transform="translate(0.427217,-0.51266)">
							<title>Sheet.200</title>
							<path d="M28.37 211.2 C23.5 208.81 20.59 204.97 20.42 200.78 L20.42 197.11 L0 197.11 L0 176.34 L29.91
										 176.34 L29.91 189.76 L37.34 192.92 L37.34 200.69 C37.08 204.88 34.18 208.73 29.31 211.12
										 L28.79 211.38 L28.37 211.2 Z" class="st10"/>
						</g>
						<g id="shape201-26" v:mID="201" v:groupContext="shape">
							<title>Sheet.201</title>
							<path d="M29.91 176.26 L29.91 189.59 L37.34 192.75 L37.34 200.27 C37.08 204.28 34.26 207.96 29.56 210.35
										 L29.22 210.44 L28.97 210.26 C24.27 207.87 21.45 204.28 21.19 200.27 L21.19 196.25 L0.85
										 196.25 L0.85 176.26 L29.91 176.26 ZM30.76 175.4 L29.91 175.4 L0.85 175.4 L0 175.4 L0 176.26
										 L0 196.17 L0 197.02 L0.85 197.02 L20.34 197.02 L20.34 200.18 L20.34 200.27 C20.59 204.62
										 23.58 208.56 28.54 211.03 L28.79 211.2 L29.14 211.38 L29.48 211.2 L29.73 211.03 C34.69 208.56
										 37.68 204.62 37.94 200.27 L37.94 192.75 L37.94 192.15 L37.6 191.98 L30.76 188.99 L30.76
										 176.26 L30.76 175.4 Z" class="st10"/>
						</g>
					</g>
					<g id="group202-28" transform="translate(0.854434,-1.02532)" v:mID="202" v:groupContext="group">
						<title>Sheet.202</title>
						<g id="shape203-29" v:mID="203" v:groupContext="shape" transform="translate(21.6172,-1.62342)">
							<title>Sheet.203</title>
							<path d="M7.43 198.81 L7.43 199.16 L6.15 199.16 L6.15 197.53 L6.15 193.52 L0 196.17 L0 202.83 C0.17 206.16
										 2.39 209.15 6.15 211.29 L6.15 200.61 L7.43 200.61 L7.43 211.38 C11.19 209.24 13.41 206.16
										 13.59 202.92 L13.59 196.25 L7.43 193.6 L7.43 198.81 Z" class="st11"/>
						</g>
						<g id="shape204-31" v:mID="204" v:groupContext="shape" transform="translate(6.75003,-25.4621)">
							<title>Sheet.204</title>
							<path d="M1.71 211.38 C2.65 211.38 3.42 210.61 3.42 209.67 C3.42 208.73 2.65 207.96 1.71 207.96 C0.77
										 207.96 0 208.73 0 209.67 C0 210.61 0.85 211.38 1.71 211.38 Z" class="st11"/>
						</g>
						<g id="shape205-33" v:mID="205" v:groupContext="shape" transform="translate(0,-14.1836)">
							<title>Sheet.205</title>
							<path d="M1.28 192.75 L27.77 192.75 L27.77 203.77 L28.37 203.51 L29.05 203.77 L29.05 191.47 L0 191.47
										 L0 211.38 L19.4 211.38 L19.4 210.18 L1.28 210.18 L1.28 192.75 Z" class="st12"/>
						</g>
						<g id="shape206-35" v:mID="206" v:groupContext="shape" transform="translate(20.3355,2.84217E-14)">
							<title>Sheet.206</title>
							<path d="M8.03 190.36 L0 193.77 L0 201.21 C0.26 205.22 3.08 208.9 7.78 211.2 L8.03 211.38 L8.29 211.2
										 C12.99 208.81 15.81 205.22 16.06 201.12 L16.06 193.6 L8.03 190.36 ZM14.87 201.21 C14.7 204.54
										 12.47 207.53 8.72 209.67 L8.72 198.99 L7.43 198.99 L7.43 209.75 C3.67 207.62 1.45 204.54
										 1.28 201.29 L1.28 194.63 L7.43 191.98 L7.43 196 L7.43 197.62 L8.72 197.62 L8.72 197.28 L8.72
										 191.98 L14.87 194.63 L14.87 201.21 Z" class="st12"/>
						</g>
						<g id="shape207-37" v:mID="207" v:groupContext="shape" transform="translate(16.2342,-25.2912)">
							<title>Sheet.207</title>
							<path d="M0.85 208.13 L0 208.98 L2.39 211.38 L6.92 206.85 L5.98 205.91 L2.39 209.58 L0.85 208.13 Z"
									class="st12"/>
						</g>
						<g id="shape208-39" v:mID="208" v:groupContext="shape" transform="translate(16.9178,-19.0539)">
							<title>Sheet.208</title>
							<path d="M5.04 210.52 L3.42 208.81 L5.04 207.19 L4.19 206.25 L2.48 207.96 L0.85 206.25 L0 207.19 L1.62
										 208.81 L0 210.52 L0.85 211.38 L2.48 209.75 L4.19 211.38 L5.04 210.52 Z" class="st12"/>
						</g>
						<g id="shape209-41" v:mID="209" v:groupContext="shape" transform="translate(4.27217,-18.1994)">
							<title>Sheet.209</title>
							<path d="M8.54 211.38 L8.54 208.64 C8.54 207.44 7.6 206.5 6.41 206.5 L2.14 206.5 C0.94 206.5 0 207.44
										 0 208.64 L0 211.38 L1.28 211.38 L1.28 208.64 C1.28 208.13 1.71 207.7 2.22 207.7 L6.49 207.7
										 C7.01 207.7 7.43 208.13 7.43 208.64 L7.43 211.38 L8.54 211.38 Z" class="st12"/>
						</g>
						<g id="shape210-43" v:mID="210" v:groupContext="shape" transform="translate(5.55382,-24.1805)">
							<title>Sheet.210</title>
							<path d="M2.91 211.38 C4.53 211.38 5.81 210.09 5.81 208.47 C5.81 206.85 4.53 205.56 2.91 205.56 C1.28
										 205.48 0 206.85 0 208.47 C0 210.09 1.28 211.38 2.91 211.38 ZM2.91 206.76 C3.84 206.76 4.61
										 207.53 4.61 208.47 C4.61 209.41 3.84 210.18 2.91 210.18 C1.97 210.18 1.2 209.41 1.2 208.47
										 C1.2 207.53 2.05 206.76 2.91 206.76 Z" class="st12"/>
						</g>
					</g>
				</g>
			</g>
			<g id="group212-45" transform="translate(50.7816,-57.0955)" v:mID="212" v:groupContext="group">
				<title>Groups.210</title>
				<g id="group213-46" transform="translate(0,-9.32836)" v:mID="213" v:groupContext="group">
					<title>Groups</title>
					<g id="shape214-47" v:mID="214" v:groupContext="shape" transform="translate(0.333189,-0.333189)">
						<title>Sheet.214</title>
						<path d="M0 211.38 L0 201.25 A3.57178 3.57178 0 0 1 3.57 197.71 L5 197.71 L5 197.51 A4.95785 4.95785 0 1
									 1 10.15 197.41 L10.48 197.41 A4.19818 4.19818 0 0 1 13.81 195.78 L15.55 195.78 L15.55 195.05
									 A5.92409 5.92409 0 1 1 21.66 195.05 L21.66 195.72 L23.43 195.72 A4.29147 4.29147 0 0 1 26.76
									 197.35 L27.09 197.35 A4.95785 4.95785 0 1 1 32.29 197.42 L32.29 197.71 L33.63 197.71 A3.57178
									 3.57178 0 0 1 37.19 201.28 L37.19 211.38 L0 211.38 Z" class="st13"/>
					</g>
					<g id="shape215-49" v:mID="215" v:groupContext="shape">
						<title>Sheet.215</title>
						<path d="M18.94 184.05 A5.5909 5.5909 0 0 1 21.67 194.53 L21.67 195.75 L23.78 195.75 A3.99826 3.99826 0 0
									 1 26.97 197.38 L29.13 197.38 A4.62466 4.62466 0 1 1 31.13 197.38 L32.33 197.38 L32.33 197.69
									 L34.03 197.69 A3.23859 3.23859 0 0 1 37.26 200.92 L37.26 210.71 L0.67 210.71 L0.67 200.92 A3.23859
									 3.23859 0 0 1 3.9 197.69 L5.64 197.69 L5.64 197.38 L6.8 197.38 A4.62466 4.62466 0 1 1 8.8 197.38
									 L10.95 197.38 A3.85166 3.85166 0 0 1 14.09 195.75 L16.16 195.75 L16.16 194.5 A5.5909 5.5909
									 0 0 1 18.94 184.05 ZM18.94 183.39 A6.25728 6.25728 -180 0 0 15.51 194.88 L15.51 195.08 L14.11
									 195.08 A4.41808 4.41808 -180 0 0 12.44 195.41 A5.29103 5.29103 -180 1 0 2.51 192.87 A5.33102
									 5.33102 -180 0 0 4.51 197.02 L3.84 197.02 A3.90497 3.90497 -180 0 0 0 200.92 L0 211.38 L37.94
									 211.38 L37.94 200.92 A3.90497 3.90497 -180 0 0 34.04 197.02 L33.37 197.02 A5.29103 5.29103 -180
									 1 0 24.82 192.87 A5.24439 5.24439 -180 0 0 25.48 195.42 A4.66464 4.66464 -180 0 0 23.75 195.08
									 L22.34 195.08 L22.34 194.91 A6.26395 6.26395 -180 0 0 18.94 183.39 Z" class="st13"/>
					</g>
					<g id="shape216-51" v:mID="216" v:groupContext="shape" transform="translate(25.5089,-13.8806)">
						<title>Sheet.216</title>
						<path d="M4.62 211.38 A4.63132 4.63132 -180 1 0 0 206.75 A4.66464 4.66464 -180 0 0 4.62 211.38 ZM4.62 203.27
									 A3.51181 3.51181 0 1 1 1.15 206.75 A3.51847 3.51847 0 0 1 4.62 203.27 Z" class="st14"/>
					</g>
					<g id="shape217-53" v:mID="217" v:groupContext="shape" transform="translate(0.666377,-0.666377)">
						<title>Sheet.217</title>
						<path d="M33.37 198.35 L32.42 198.35 L32.25 198.57 A3.51181 3.51181 0 0 1 26.68 198.57 L26.52 198.35 L26.46
									 198.35 A3.87831 3.87831 -180 0 0 23.13 196.41 L21.99 196.41 L21.82 196.63 A4.47805 4.47805 0
									 0 1 14.72 196.63 L14.55 196.41 L13.44 196.41 A3.87165 3.87165 -180 0 0 10.11 198.35 L9.94 198.57
									 A3.51181 3.51181 0 0 1 4.37 198.57 L4.2 198.35 L3.23 198.35 A3.23859 3.23859 -180 0 0 -0 201.59
									 L0 211.38 L1.12 211.38 L1.12 201.59 A2.11908 2.11908 0 0 1 3.23 199.47 L3.65 199.47 A4.66464
									 4.66464 -180 0 0 9.57 200.37 L9.57 211.38 L10.66 211.38 L10.66 200.29 A2.75214 2.75214 0 0 1
									 13.41 197.53 L13.99 197.53 A5.60423 5.60423 -180 0 0 22.52 197.53 L23.09 197.53 A2.75214 2.75214
									 0 0 1 25.84 200.29 L25.84 211.38 L26.96 211.38 L26.96 200.33 A4.61799 4.61799 -180 0 0 32.96
									 199.47 L33.37 199.47 A2.12574 2.12574 0 0 1 35.49 201.59 L35.49 211.38 L36.6 211.38 L36.6 201.59
									 A3.23859 3.23859 -180 0 0 33.37 198.35 Z" class="st14"/>
					</g>
					<g id="shape218-55" v:mID="218" v:groupContext="shape" transform="translate(3.17862,-13.8806)">
						<title>Sheet.218</title>
						<path d="M4.62 211.38 A4.63132 4.63132 -180 1 0 0 206.75 A4.66464 4.66464 -180 0 0 4.62 211.38 ZM4.62 203.27
									 A3.51181 3.51181 0 1 1 1.11 206.78 A3.51181 3.51181 0 0 1 4.62 203.27 Z" class="st14"/>
					</g>
					<g id="shape219-57" v:mID="219" v:groupContext="shape" transform="translate(13.3275,-16.133)">
						<title>Sheet.219</title>
						<path d="M5.61 211.38 A5.59757 5.59757 -180 1 0 -0 205.78 A5.59757 5.59757 -180 0 0 5.61 211.38 ZM5.61 201.31
									 A4.47805 4.47805 0 1 1 1.13 205.78 A4.48472 4.48472 0 0 1 5.61 201.31 Z" class="st14"/>
					</g>
					<g id="shape220-59" v:mID="220" v:groupContext="shape" transform="translate(13.5474,-0.666377)">
						<title>Sheet.220</title>
						<path d="M0.56 204.47 L0 204.47 L0 211.38 L0.28 211.38 L1.12 211.38 L1.12 205.59 L0.56 204.47 Z"
								class="st14"/>
					</g>
					<g id="shape221-61" v:mID="221" v:groupContext="shape" transform="translate(23.1766,-0.666377)">
						<title>Sheet.221</title>
						<path d="M0.56 204.47 L0 205.59 L0 211.38 L0.93 211.38 L1.12 211.38 L1.12 204.47 L0.56 204.47 Z"
								class="st14"/>
					</g>
					<g id="shape222-63" v:mID="222" v:groupContext="shape" transform="translate(33.3655,-0.666377)">
						<title>Sheet.222</title>
						<path d="M0 206.7 L0 211.38 L1.12 211.38 L1.12 205.59 L0.56 205.59 L0 206.7 Z" class="st14"/>
					</g>
					<g id="shape223-65" v:mID="223" v:groupContext="shape" transform="translate(3.45183,-0.666377)">
						<title>Sheet.223</title>
						<path d="M0 205.59 L0 211.38 L1.11 211.38 L1.11 206.7 L0.55 205.59 L0 205.59 Z" class="st14"/>
					</g>
				</g>
				<g id="shape224-67" v:mID="224" v:groupContext="shape">
					<title>Sheet.224</title>
					<desc>Groups</desc>
					<v:textBlock v:margins="rect(4,4,4,4)"/>
					<v:textRect cx="18.9684" cy="206.423" width="37.94" height="9.90425"/>
					<rect x="0" y="201.471" width="37.9369" height="9.90425" class="st8"/>
					<text x="5.81" y="208.82" class="st9" v:langID="1033"><v:paragraph v:horizAlign="1" v:bulletSize="0.166667"/><v:tabList/>Groups</text>				</g>
			</g>
			<g id="group225-70" transform="translate(56.9723,2.84217E-14)" v:mID="225" v:groupContext="group">
				<title>Policies.211</title>
				<g id="group226-71" transform="translate(0,-12.8518)" v:mID="226" v:groupContext="group">
					<title>Policies</title>
					<g id="group227-72" v:mID="227" v:groupContext="group">
						<title>Sheet.227</title>
						<g id="group228-73" v:mID="228" v:groupContext="group">
							<title>Sheet.228</title>
							<g id="group229-74" v:mID="229" v:groupContext="group">
								<title>Sheet.229</title>
								<g id="shape230-75" v:mID="230" v:groupContext="shape" transform="translate(0.429082,-0.429082)">
									<title>Sheet.230</title>
									<path d="M0 211.38 L0 210.04 L1.24 209.43 L1.24 205.48 C1.24 204.31 2.19 203.37 3.36 203.37 L14.61
												 203.37 C15.78 203.37 16.73 204.31 16.73 205.48 L16.73 209.43 L17.79 210.07 L17.79
												 211.38 L0 211.38 Z" class="st15"/>
								</g>
								<g id="shape231-77" v:mID="231" v:groupContext="shape">
									<title>Sheet.231</title>
									<path d="M15.04 203.37 C15.97 203.37 16.73 204.12 16.73 205.05 L16.73 209.25 L16.73 209.25 L17.79
												 209.88 L17.79 210.52 L0.86 210.52 L0.86 209.88 L2.1 209.26 L2.1 205.05 C2.1 204.12
												 2.86 203.37 3.78 203.37 L15.04 203.37 ZM15.04 202.51 L3.78 202.51 C2.39 202.51 1.24
												 203.65 1.24 205.05 L1.24 208.73 L0.47 209.12 L0 209.35 L0 209.88 L0 210.52 L0 211.38
												 L0.86 211.38 L17.79 211.38 L18.65 211.38 L18.65 210.52 L18.65 209.88 L18.65 209.39
												 L18.23 209.14 L17.58 208.75 L17.58 205.04 C17.58 203.64 16.44 202.51 15.04 202.51
												 Z" class="st15"/>
								</g>
							</g>
							<g id="group232-79" transform="translate(0.909654,-1.31299)" v:mID="232" v:groupContext="group">
								<title>Sheet.232</title>
								<g id="shape233-80" v:mID="233" v:groupContext="shape" transform="translate(0.480572,-0.463409)">
									<title>Sheet.233</title>
									<path d="M28.36 210.19 L19.09 200.92 L14.19 195.52 L12.26 197.45 C12.61 198.15 12.48 199.01 11.91
												 199.58 L10.96 200.53 C10.61 200.88 10.14 201.07 9.65 201.07 C9.15 201.07 8.68 200.87
												 8.33 200.53 L0.72 192.92 C0 192.2 0 191.01 0.72 190.29 L1.67 189.34 C2.03 188.99
												 2.49 188.8 2.99 188.8 C3.27 188.8 3.55 188.87 3.8 188.99 L11.62 181.17 C11.28 180.46
												 11.41 179.61 11.97 179.04 L12.92 178.09 C13.28 177.73 13.74 177.55 14.24 177.55
												 C14.73 177.55 15.2 177.74 15.55 178.09 L23.16 185.7 C23.88 186.42 23.88 187.6 23.16
												 188.32 L22.21 189.28 C21.86 189.63 21.39 189.82 20.9 189.82 C20.61 189.82 20.33
												 189.75 20.08 189.63 L18.17 191.54 L23.7 196.31 L32.94 205.55 L34.11 207.08 L33.55
												 208.75 L31.49 210.82 L29.82 211.38 L28.36 210.19 Z" class="st15"/>
								</g>
								<g id="shape234-82" v:mID="234" v:groupContext="shape">
									<title>Sheet.234</title>
									<path d="M14.72 177.5 C15.09 177.5 15.45 177.64 15.73 177.92 L23.34 185.54 C23.9 186.09 23.9
												 187 23.34 187.56 L22.39 188.51 C22.11 188.79 21.75 188.93 21.38 188.93 C21.07 188.93
												 20.75 188.83 20.49 188.63 L18.01 191.11 L23.9 196.18 L33.12 205.39 L34.11 206.71
												 L33.66 208.05 L31.73 209.98 L30.39 210.43 L29.11 209.4 L19.88 200.15 L14.69 194.43
												 L12.2 196.91 C12.64 197.47 12.61 198.29 12.09 198.8 L11.14 199.76 C10.86 200.03
												 10.5 200.18 10.13 200.18 C9.76 200.18 9.4 200.04 9.11 199.76 L1.5 192.14 C0.94 191.59
												 0.94 190.68 1.5 190.12 L2.45 189.17 C2.73 188.89 3.1 188.75 3.47 188.75 C3.78 188.75
												 4.09 188.85 4.35 189.05 L12.65 180.75 C12.21 180.19 12.25 179.37 12.76 178.86 L13.71
												 177.91 C13.98 177.64 14.35 177.5 14.72 177.5 ZM14.72 176.65 C14.11 176.65 13.53
												 176.89 13.1 177.31 L12.14 178.27 C11.52 178.89 11.33 179.8 11.59 180.6 L4.16 188.02
												 C3.93 187.95 3.69 187.91 3.45 187.91 C2.84 187.91 2.27 188.15 1.84 188.58 L0.89
												 189.52 C0 190.41 0 191.86 0.89 192.75 L8.5 200.36 C8.93 200.79 9.51 201.03 10.13
												 201.03 C10.74 201.03 11.31 200.79 11.75 200.36 L12.7 199.41 C13.33 198.79 13.52
												 197.88 13.26 197.08 L14.67 195.66 L19.25 200.72 L28.52 209.99 L28.55 210.03 L28.59
												 210.05 L29.86 211.08 L30.23 211.38 L30.68 211.23 L32.03 210.77 L32.22 210.71 L32.36
												 210.57 L34.28 208.65 L34.43 208.5 L34.49 208.31 L34.94 206.96 L35.09 206.53 L34.82
												 206.17 L33.82 204.86 L33.79 204.82 L33.74 204.78 L24.51 195.56 L24.48 195.53 L24.46
												 195.52 L19.27 191.05 L20.66 189.66 C20.9 189.74 21.14 189.78 21.38 189.78 C21.99
												 189.78 22.56 189.53 23 189.11 L23.95 188.15 C24.84 187.26 24.84 185.81 23.95 184.92
												 L16.34 177.31 C15.9 176.89 15.33 176.65 14.72 176.65 Z" class="st15"/>
								</g>
							</g>
						</g>
						<g id="group235-84" transform="translate(0.858164,-0.858164)" v:mID="235" v:groupContext="group">
							<title>Sheet.235</title>
							<g id="shape236-85" v:mID="236" v:groupContext="shape">
								<title>Sheet.236</title>
								<path d="M15.87 210.1 L16.02 210.1 L15.64 210.1 L1.27 210.1 L1.3 210.1 L0 210.74 L0 211.38 L16.91
											 211.38 L16.91 210.74 L15.87 210.1 Z" class="st16"/>
							</g>
							<g id="shape237-87" v:mID="237" v:groupContext="shape" transform="translate(1.24434,-2.22265)">
								<title>Sheet.237</title>
								<path d="M14.62 208.13 C14.62 207.2 13.87 206.45 12.94 206.45 L1.68 206.45 C0.76 206.45 0 207.2 0
											 208.13 L0 211.37 L14.62 211.38 C14.62 211.38 14.62 208.13 14.62 208.13 ZM13.35 210.1
											 L1.27 210.1 L1.27 208.13 C1.27 207.91 1.46 207.72 1.68 207.72 L12.94 207.72 C13.16 207.72
											 13.35 207.91 13.35 208.13 C13.35 208.13 13.35 210.1 13.35 210.1 Z" class="st16"/>
							</g>
							<g id="shape238-89" v:mID="238" v:groupContext="shape" transform="translate(29.9928,-1.40739)">
								<title>Sheet.238</title>
								<path d="M4.17 207.65 L3.72 207.2 L0 210.93 L0.45 211.38 L1.79 210.93 L3.72 209 L4.17 207.65 Z"
										class="st16"/>
							</g>
							<g id="shape239-91" v:mID="239" v:groupContext="shape" transform="translate(0.995471,-2.43719)">
								<title>Sheet.239</title>
								<path d="M22.96 198.15 L17.07 193.09 L19.55 190.61 C19.81 190.81 20.12 190.91 20.43 190.91 C20.8
											 190.91 21.16 190.77 21.45 190.49 L22.4 189.53 C22.96 188.98 22.96 188.07 22.4 187.51
											 L14.79 179.9 C14.23 179.34 13.32 179.34 12.76 179.9 L11.81 180.85 C11.29 181.37 11.26
											 182.18 11.7 182.74 L3.4 191.04 C2.84 190.6 2.03 190.63 1.51 191.15 L0.56 192.1 C0 192.66
											 0 193.57 0.56 194.13 L8.17 201.74 C8.44 202.01 8.81 202.16 9.18 202.16 C9.55 202.16
											 9.91 202.02 10.19 201.74 L11.15 200.79 C11.66 200.27 11.7 199.46 11.26 198.9 L13.75
											 196.41 L18.93 202.13 L28.17 211.38 L32.18 207.37 L22.96 198.15 ZM12.71 181.75 L13.66
											 180.8 C13.7 180.76 13.73 180.76 13.77 180.76 C13.82 180.76 13.85 180.77 13.89 180.8
											 L21.5 188.41 C21.56 188.47 21.56 188.57 21.5 188.63 L20.54 189.59 C20.48 189.65 20.38
											 189.65 20.32 189.59 L12.71 181.97 C12.65 181.91 12.65 181.81 12.71 181.75 ZM10.24 199.89
											 L9.29 200.85 C9.23 200.91 9.12 200.91 9.06 200.85 L1.45 193.23 C1.39 193.17 1.39 193.07
											 1.45 193.01 L2.4 192.06 C2.44 192.02 2.47 192.01 2.51 192.01 C2.56 192.01 2.59 192.03
											 2.63 192.06 L10.24 199.67 C10.31 199.73 10.31 199.83 10.24 199.89 ZM10.37 198 L4.31
											 191.94 L12.59 183.66 L18.65 189.71 L16.11 192.26 L12.89 195.47 L10.37 198 ZM19.86 201.27
											 L14.65 195.52 L16.18 193.99 L22.08 199.07 L30.39 207.38 L28.17 209.59 L19.86 201.27
											 Z" class="st16"/>
							</g>
						</g>
					</g>
				</g>
				<g id="shape240-93" v:mID="240" v:groupContext="shape">
					<title>Sheet.240</title>
					<desc>Policies</desc>
					<v:textBlock v:margins="rect(4,4,4,4)"/>
					<v:textRect cx="18" cy="204.913" width="36" height="12.9231"/>
					<rect x="0" y="198.452" width="36" height="12.9231" class="st8"/>
					<text x="4.41" y="207.31" class="st9" v:langID="1033"><v:paragraph v:horizAlign="1" v:bulletSize="0.166667"/><v:tabList/>Policies</text>				</g>
			</g>
		</g>
		<g id="shape242-96" v:mID="242" v:groupContext="shape" v:layerMember="0" transform="translate(105.466,-81.2035)">
			<title>Sheet.242</title>
			<path d="M0 202.38 L69.82 202.38" class="st17"/>
		</g>
	</g>
</svg>
