<?xml version="1.0" encoding="UTF-8" standalone="no"?>
<!DOCTYPE svg PUBLIC "-//W3C//DTD SVG 1.1//EN" "http://www.w3.org/Graphics/SVG/1.1/DTD/svg11.dtd">
<!-- Generated by Microsoft Visio, SVG Export caf-lz-compartments.svg compartment-structure -->
<svg xmlns="http://www.w3.org/2000/svg" xmlns:xlink="http://www.w3.org/1999/xlink" xmlns:ev="http://www.w3.org/2001/xml-events"
		xmlns:v="http://schemas.microsoft.com/visio/2003/SVGExtensions/" width="10.9653in" height="6.48958in"
		viewBox="0 0 789.5 467.25" xml:space="preserve" color-interpolation-filters="sRGB" class="st16">
	<v:documentProperties v:langID="1033" v:viewMarkup="false">
		<v:userDefs>
			<v:ud v:nameU="msvNoAutoConnect" v:val="VT0(1):26"/>
		</v:userDefs>
	</v:documentProperties>

	<style type="text/css">
	<![CDATA[
		.st1 {fill:#ffffff;stroke:#9e9892;stroke-dasharray:3,3;stroke-width:1}
		.st2 {fill:#312d2a;font-family:Oracle Sans;font-size:0.75em;font-weight:bold}
		.st3 {fill:none;stroke:#ae562c;stroke-dasharray:3,3;stroke-width:1}
		.st4 {fill:#ae562c;font-family:Oracle Sans;font-size:0.75em;font-weight:bold}
		.st5 {font-size:1em}
		.st6 {fill:none;stroke:none;stroke-width:0.25}
		.st7 {fill:#312d2a;font-family:Oracle Sans;font-size:0.666664em}
		.st8 {fill:#ffffff;stroke:none;stroke-linecap:butt;stroke-width:14.3966}
		.st9 {fill:#2c5967;stroke:none;stroke-linecap:butt;stroke-width:14.3966}
		.st10 {fill:#ffffff;stroke:none;stroke-linecap:butt;stroke-width:10.0115}
		.st11 {fill:#2c5967;stroke:none;stroke-linecap:butt;stroke-width:10.0115}
		.st12 {fill:#ffffff;stroke:none;stroke-linecap:round;stroke-linejoin:round;stroke-width:0.75}
		.st13 {fill:#2c5967;stroke:none;stroke-linecap:round;stroke-linejoin:round;stroke-width:0.75}
		.st14 {marker-end:url(#mrkr3-288);stroke:#000000;stroke-linecap:round;stroke-linejoin:round;stroke-width:1}
		.st15 {fill:#000000;fill-opacity:1;stroke:#000000;stroke-opacity:1;stroke-width:0.28409090909091}
		.st16 {fill:none;fill-rule:evenodd;font-size:12px;overflow:visible;stroke-linecap:square;stroke-miterlimit:3}
	]]>
	</style>

	<defs id="Markers">
		<g id="lend3">
			<path d="M 2 1 L 0 0 L 2 -1 " style="stroke-linecap:round;stroke-linejoin:round;fill:none"/>
		</g>
		<marker id="mrkr3-288" class="st15" v:arrowType="3" v:arrowSize="2" orient="auto" markerUnits="strokeWidth"
				overflow="visible">
			<use xlink:href="#lend3" transform="scale(-3.52,-3.52) "/>
		</marker>
	</defs>
	<g v:mID="16" v:index="2" v:groupContext="foregroundPage">
		<v:userDefs>
			<v:ud v:nameU="msvThemeOrder" v:val="VT0(0):26"/>
		</v:userDefs>
		<title>caf-lz-compartments</title>
		<v:pageProperties v:drawingScale="1" v:pageScale="1" v:drawingUnits="19" v:shadowOffsetX="9" v:shadowOffsetY="-9"/>
		<v:layer v:name="Bottom Layer" v:index="0"/>
		<v:layer v:name="Connector" v:index="1"/>
		<g id="shape20-1" v:mID="20" v:groupContext="shape" v:layerMember="0" transform="translate(19,-19)">
			<title>Rectangle</title>
			<desc>Tenancy (root compartment) - level 0</desc>
			<v:userDefs>
				<v:ud v:nameU="visVersion" v:val="VT0(15):26"/>
				<v:ud v:nameU="visMasterStencil" v:prompt="" v:val="VT4(Basic_U.vssx)"/>
			</v:userDefs>
			<v:textBlock v:margins="rect(4,4,4,4)" v:verticalAlign="0"/>
			<v:textRect cx="375.75" cy="252.625" width="751.5" height="429.25"/>
			<path d="M0 467.25 L751.5 467.25 L751.5 38 L0 38 L0 467.25 Z" class="st1"/>
			<text x="4" y="50.1" class="st2" v:langID="1033"><v:paragraph/><v:tabList/>Tenancy (root compartment) - level 0</text>		</g>
		<g id="shape21-4" v:mID="21" v:groupContext="shape" transform="translate(28.3125,-26.4544)">
			<title>Rectangle.2</title>
			<desc>Parent compartment (CAF landing zone home) - level 1</desc>
			<v:userDefs>
				<v:ud v:nameU="visVersion" v:val="VT0(15):26"/>
				<v:ud v:nameU="visMasterStencil" v:prompt="" v:val="VT4(Basic_U.vssx)"/>
			</v:userDefs>
			<v:textBlock v:margins="rect(4,4,4,4)" v:verticalAlign="0"/>
			<v:textRect cx="365.344" cy="265.981" width="730.69" height="402.538"/>
			<path d="M0 467.25 L730.69 467.25 L730.69 64.71 L0 64.71 L0 467.25 Z" class="st3"/>
			<text x="4" y="76.81" class="st4" v:langID="1033"><v:paragraph v:bulletSize="0.166667"/><v:tabList/>Parent compartment (CAF landing zone home) - level 1</text>		</g>
		<g id="shape25-7" v:mID="25" v:groupContext="shape" transform="translate(35.4688,-35.9351)">
			<title>Rectangle.16</title>
			<desc>Common Infra compartment - level 2</desc>
			<v:userDefs>
				<v:ud v:nameU="visVersion" v:val="VT0(15):26"/>
				<v:ud v:nameU="visMasterStencil" v:prompt="" v:val="VT4(Basic_U.vssx)"/>
			</v:userDefs>
			<v:textBlock v:margins="rect(4,4,4,4)" v:verticalAlign="0"/>
			<v:textRect cx="135.766" cy="300.218" width="271.54" height="334.065"/>
			<path d="M0 467.25 L271.53 467.25 L271.53 133.19 L0 133.19 L0 467.25 Z" class="st3"/>
			<text x="4" y="145.29" class="st4" v:langID="1033"><v:paragraph v:bulletSize="0.166667"/><v:tabList/>Common Infra compartment - level 2</text>		</g>
		<g id="shape27-10" v:mID="27" v:groupContext="shape" transform="translate(42.2861,-41.061)">
			<title>Rectangle.73</title>
			<desc>Security compartment - level 3</desc>
			<v:userDefs>
				<v:ud v:nameU="visVersion" v:val="VT0(15):26"/>
				<v:ud v:nameU="visMasterStencil" v:prompt="" v:val="VT4(Basic_U.vssx)"/>
			</v:userDefs>
			<v:textBlock v:margins="rect(4,4,4,4)" v:verticalAlign="0"/>
			<v:textRect cx="62.2868" cy="336.53" width="124.58" height="261.439"/>
			<path d="M0 467.25 L124.57 467.25 L124.57 205.81 L0 205.81 L0 467.25 Z" class="st3"/>
			<text x="4" y="217.91" class="st4" v:langID="1033"><v:paragraph v:bulletSize="0.166667"/><v:tabList/>Security compartment - <tspan
						x="4" dy="1.2em" class="st5">level 3</tspan></text>		</g>
		<g id="shape36-14" v:mID="36" v:groupContext="shape" transform="translate(173.426,-41.061)">
			<title>Rectangle.36</title>
			<desc>Network compartment - level 3</desc>
			<v:userDefs>
				<v:ud v:nameU="visVersion" v:val="VT0(15):26"/>
				<v:ud v:nameU="visMasterStencil" v:prompt="" v:val="VT4(Basic_U.vssx)"/>
			</v:userDefs>
			<v:textBlock v:margins="rect(4,4,4,4)" v:verticalAlign="0"/>
			<v:textRect cx="62.2868" cy="336.53" width="124.58" height="261.439"/>
			<path d="M0 467.25 L124.57 467.25 L124.57 205.81 L0 205.81 L0 467.25 Z" class="st3"/>
			<text x="4" y="217.91" class="st4" v:langID="1033"><v:paragraph v:bulletSize="0.166667"/><v:tabList/>Network compartment - <tspan
						x="4" dy="1.2em" class="st5">level 3</tspan></text>		</g>
		<g id="shape38-18" v:mID="38" v:groupContext="shape" transform="translate(316,-35.9351)">
			<title>Rectangle.38</title>
			<desc>Common Infra compartment - level 2</desc>
			<v:userDefs>
				<v:ud v:nameU="visVersion" v:val="VT0(15):26"/>
				<v:ud v:nameU="visMasterStencil" v:prompt="" v:val="VT4(Basic_U.vssx)"/>
			</v:userDefs>
			<v:textBlock v:margins="rect(4,4,4,4)" v:verticalAlign="0"/>
			<v:textRect cx="217.125" cy="300.218" width="434.25" height="334.065"/>
			<path d="M0 467.25 L434.25 467.25 L434.25 133.19 L0 133.19 L0 467.25 Z" class="st3"/>
			<text x="4" y="145.29" class="st4" v:langID="1033"><v:paragraph v:bulletSize="0.166667"/><v:tabList/>Common Infra compartment - level 2</text>		</g>
		<g id="shape39-21" v:mID="39" v:groupContext="shape" transform="translate(322.75,-41.061)">
			<title>Rectangle.39</title>
			<desc>Workload A compartment - level 3</desc>
			<v:userDefs>
				<v:ud v:nameU="visVersion" v:val="VT0(15):26"/>
				<v:ud v:nameU="visMasterStencil" v:prompt="" v:val="VT4(Basic_U.vssx)"/>
			</v:userDefs>
			<v:textBlock v:margins="rect(4,4,4,4)" v:verticalAlign="0"/>
			<v:textRect cx="67.7444" cy="336.53" width="135.49" height="261.439"/>
			<path d="M0 467.25 L135.49 467.25 L135.49 205.81 L0 205.81 L0 467.25 Z" class="st3"/>
			<text x="4" y="217.91" class="st4" v:langID="1033"><v:paragraph v:bulletSize="0.166667"/><v:tabList/>Workload A compartment - <tspan
						x="4" dy="1.2em" class="st5">level 3</tspan></text>		</g>
		<g id="shape40-25" v:mID="40" v:groupContext="shape" transform="translate(465.381,-41.061)">
			<title>Rectangle.40</title>
			<desc>Workload B compartment - level 3</desc>
			<v:userDefs>
				<v:ud v:nameU="visVersion" v:val="VT0(15):26"/>
				<v:ud v:nameU="visMasterStencil" v:prompt="" v:val="VT4(Basic_U.vssx)"/>
			</v:userDefs>
			<v:textBlock v:margins="rect(4,4,4,4)" v:verticalAlign="0"/>
			<v:textRect cx="67.7444" cy="336.53" width="135.49" height="261.439"/>
			<path d="M0 467.25 L135.49 467.25 L135.49 205.81 L0 205.81 L0 467.25 Z" class="st3"/>
			<text x="4" y="217.91" class="st4" v:langID="1033"><v:paragraph v:bulletSize="0.166667"/><v:tabList/>Workload B compartment - <tspan
						x="4" dy="1.2em" class="st5">level 3</tspan></text>		</g>
		<g id="shape43-29" v:mID="43" v:groupContext="shape" transform="translate(608.011,-41.061)">
			<title>Rectangle.43</title>
			<desc>Workload C compartment - level 3</desc>
			<v:userDefs>
				<v:ud v:nameU="visVersion" v:val="VT0(15):26"/>
				<v:ud v:nameU="visMasterStencil" v:prompt="" v:val="VT4(Basic_U.vssx)"/>
			</v:userDefs>
			<v:textBlock v:margins="rect(4,4,4,4)" v:verticalAlign="0"/>
			<v:textRect cx="67.7444" cy="336.53" width="135.49" height="261.439"/>
			<path d="M0 467.25 L135.49 467.25 L135.49 205.81 L0 205.81 L0 467.25 Z" class="st3"/>
			<text x="4" y="217.91" class="st4" v:langID="1033"><v:paragraph v:bulletSize="0.166667"/><v:tabList/>Workload C compartment - <tspan
						x="4" dy="1.2em" class="st5">level 3</tspan></text>		</g>
		<g id="group44-33" transform="translate(700.642,-372.053)" v:mID="44" v:groupContext="group">
			<title>Tagging.199</title>
			<g id="shape45-34" v:mID="45" v:groupContext="shape">
				<title>Sheet.45</title>
				<desc>Tagging</desc>
				<v:textBlock v:margins="rect(4,4,4,4)"/>
				<v:textRect cx="20.3582" cy="460.788" width="40.72" height="12.9231"/>
				<rect x="0" y="454.327" width="40.7163" height="12.9231" class="st6"/>
				<text x="5.39" y="463.19" class="st7" v:langID="1033"><v:paragraph v:horizAlign="1" v:bulletSize="0.166667"/><v:tabList/>Tagging</text>			</g>
			<g id="group46-37" transform="translate(2.33417,-12.9231)" v:mID="46" v:groupContext="group">
				<title>Tagging</title>
				<g id="group47-38" v:mID="47" v:groupContext="group">
					<title>Sheet.47</title>
					<g id="group48-39" v:mID="48" v:groupContext="group">
						<title>Sheet.48</title>
						<g id="shape49-40" v:mID="49" v:groupContext="shape" transform="translate(0.423994,-0.602072)">
							<title>Sheet.49</title>
							<path d="M17.6 463.94 C15.93 465.92 13.53 467.05 10.94 467.05 C6.12 467.05 2.2 463.13 2.2 458.3 C2.2
										 455.71 3.32 453.31 5.3 451.64 L0 446.35 L0 432.3 L14.12 432.3 L35.02 453.13 L20.9 467.25
										 L17.6 463.94 Z" class="st8"/>
						</g>
						<g id="shape50-42" v:mID="50" v:groupContext="shape">
							<title>Sheet.50</title>
							<path d="M14.36 432.13 L34.84 452.53 L21.33 466.05 L17.99 462.7 C16.47 464.71 14.07 466.02 11.35 466.02
										 C6.77 466.02 3.04 462.29 3.04 457.7 C3.04 455 4.34 452.6 6.35 451.07 L0.85 445.57 L0.85
										 432.13 L14.36 432.13 ZM14.72 431.28 L14.37 431.28 L0.85 431.28 L0 431.28 L0 432.13 L0 445.57
										 L0 445.91 L0.25 446.16 L5.1 451.02 C3.25 452.75 2.2 455.14 2.2 457.7 C2.2 462.76 6.31 466.87
										 11.36 466.87 C13.92 466.87 16.32 465.82 18.05 463.96 L20.73 466.65 L21.34 467.25 L21.94
										 466.65 L35.45 453.12 L36.05 452.52 L35.45 451.92 L14.97 431.52 L14.72 431.28 Z"
									class="st8"/>
						</g>
					</g>
					<g id="group51-44" transform="translate(0.847988,-1.20414)" v:mID="51" v:groupContext="group">
						<title>Sheet.51</title>
						<g id="shape52-45" v:mID="52" v:groupContext="shape">
							<title>Sheet.52</title>
							<path d="M34 453.73 L13.52 433.33 L0 433.33 L0 446.77 L4.83 451.6 C5.17 451.34 5.52 451.1 5.89 450.89
										 L1.26 446.25 L1.26 434.59 L13 434.59 L32.22 453.73 L20.48 465.48 L18.53 463.53 C18.32 463.9
										 18.08 464.25 17.82 464.59 L20.48 467.25 L34 453.73 Z" class="st9"/>
						</g>
						<g id="shape53-47" v:mID="53" v:groupContext="shape" transform="translate(5.63912,-22.3021)">
							<title>Sheet.53</title>
							<path d="M5.97 464.27 C5.97 462.62 4.63 461.28 2.98 461.28 C1.34 461.28 0 462.62 0 464.27 C0 465.91 1.34
										 467.25 2.98 467.25 C4.63 467.25 5.97 465.91 5.97 464.27 ZM2.99 465.99 C2.04 465.99 1.26
										 465.21 1.26 464.26 C1.26 463.3 2.04 462.53 2.99 462.53 C3.95 462.53 4.72 463.3 4.72 464.26
										 C4.72 465.21 3.94 465.99 2.99 465.99 Z" class="st9"/>
						</g>
						<g id="shape54-49" v:mID="54" v:groupContext="shape" transform="translate(2.19629,-0.0254396)">
							<title>Sheet.54</title>
							<path d="M16.64 458.93 C16.64 454.34 12.91 450.61 8.32 450.61 C3.73 450.61 0 454.34 0 458.93 C0 463.52
										 3.73 467.25 8.32 467.25 C12.91 467.25 16.64 463.52 16.64 458.93 ZM1.26 458.93 C1.26 455.04
										 4.43 451.87 8.32 451.87 C12.21 451.87 15.38 455.04 15.38 458.93 C15.38 462.82 12.21 465.99
										 8.32 465.99 C4.43 465.99 1.26 462.82 1.26 458.93 Z" class="st9"/>
						</g>
						<g id="shape55-51" v:mID="55" v:groupContext="shape" transform="translate(6.74998,-4.57914)">
							<title>Sheet.55</title>
							<path d="M7.53 464.11 L7.53 462.86 L4.39 462.86 L4.39 459.72 L3.14 459.72 L3.14 462.86 L0 462.86 L0 464.11
										 L3.14 464.11 L3.14 467.25 L4.39 467.25 L4.39 464.11 L7.53 464.11 Z" class="st9"/>
						</g>
					</g>
				</g>
			</g>
		</g>
		<g id="group56-53" transform="translate(257.284,-313.75)" v:mID="56" v:groupContext="group">
			<title>Tagging.56</title>
			<g id="shape57-54" v:mID="57" v:groupContext="shape">
				<title>Sheet.57</title>
				<desc>Tagging</desc>
				<v:textBlock v:margins="rect(4,4,4,4)"/>
				<v:textRect cx="20.3582" cy="460.788" width="40.72" height="12.9231"/>
				<rect x="0" y="454.327" width="40.7163" height="12.9231" class="st6"/>
				<text x="5.39" y="463.19" class="st7" v:langID="1033"><v:paragraph v:horizAlign="1" v:bulletSize="0.166667"/><v:tabList/>Tagging</text>			</g>
			<g id="group58-57" transform="translate(2.33417,-12.9231)" v:mID="58" v:groupContext="group">
				<title>Tagging</title>
				<g id="group59-58" v:mID="59" v:groupContext="group">
					<title>Sheet.59</title>
					<g id="group60-59" v:mID="60" v:groupContext="group">
						<title>Sheet.60</title>
						<g id="shape61-60" v:mID="61" v:groupContext="shape" transform="translate(0.423994,-0.602072)">
							<title>Sheet.61</title>
							<path d="M17.6 463.94 C15.93 465.92 13.53 467.05 10.94 467.05 C6.12 467.05 2.2 463.13 2.2 458.3 C2.2
										 455.71 3.32 453.31 5.3 451.64 L0 446.35 L0 432.3 L14.12 432.3 L35.02 453.13 L20.9 467.25
										 L17.6 463.94 Z" class="st8"/>
						</g>
						<g id="shape62-62" v:mID="62" v:groupContext="shape">
							<title>Sheet.62</title>
							<path d="M14.36 432.13 L34.84 452.53 L21.33 466.05 L17.99 462.7 C16.47 464.71 14.07 466.02 11.35 466.02
										 C6.77 466.02 3.04 462.29 3.04 457.7 C3.04 455 4.34 452.6 6.35 451.07 L0.85 445.57 L0.85
										 432.13 L14.36 432.13 ZM14.72 431.28 L14.37 431.28 L0.85 431.28 L0 431.28 L0 432.13 L0 445.57
										 L0 445.91 L0.25 446.16 L5.1 451.02 C3.25 452.75 2.2 455.14 2.2 457.7 C2.2 462.76 6.31 466.87
										 11.36 466.87 C13.92 466.87 16.32 465.82 18.05 463.96 L20.73 466.65 L21.34 467.25 L21.94
										 466.65 L35.45 453.12 L36.05 452.52 L35.45 451.92 L14.97 431.52 L14.72 431.28 Z"
									class="st8"/>
						</g>
					</g>
					<g id="group63-64" transform="translate(0.847988,-1.20414)" v:mID="63" v:groupContext="group">
						<title>Sheet.63</title>
						<g id="shape64-65" v:mID="64" v:groupContext="shape">
							<title>Sheet.64</title>
							<path d="M34 453.73 L13.52 433.33 L0 433.33 L0 446.77 L4.83 451.6 C5.17 451.34 5.52 451.1 5.89 450.89
										 L1.26 446.25 L1.26 434.59 L13 434.59 L32.22 453.73 L20.48 465.48 L18.53 463.53 C18.32 463.9
										 18.08 464.25 17.82 464.59 L20.48 467.25 L34 453.73 Z" class="st9"/>
						</g>
						<g id="shape65-67" v:mID="65" v:groupContext="shape" transform="translate(5.63912,-22.3021)">
							<title>Sheet.65</title>
							<path d="M5.97 464.27 C5.97 462.62 4.63 461.28 2.98 461.28 C1.34 461.28 0 462.62 0 464.27 C0 465.91 1.34
										 467.25 2.98 467.25 C4.63 467.25 5.97 465.91 5.97 464.27 ZM2.99 465.99 C2.04 465.99 1.26
										 465.21 1.26 464.26 C1.26 463.3 2.04 462.53 2.99 462.53 C3.95 462.53 4.72 463.3 4.72 464.26
										 C4.72 465.21 3.94 465.99 2.99 465.99 Z" class="st9"/>
						</g>
						<g id="shape66-69" v:mID="66" v:groupContext="shape" transform="translate(2.19629,-0.0254396)">
							<title>Sheet.66</title>
							<path d="M16.64 458.93 C16.64 454.34 12.91 450.61 8.32 450.61 C3.73 450.61 0 454.34 0 458.93 C0 463.52
										 3.73 467.25 8.32 467.25 C12.91 467.25 16.64 463.52 16.64 458.93 ZM1.26 458.93 C1.26 455.04
										 4.43 451.87 8.32 451.87 C12.21 451.87 15.38 455.04 15.38 458.93 C15.38 462.82 12.21 465.99
										 8.32 465.99 C4.43 465.99 1.26 462.82 1.26 458.93 Z" class="st9"/>
						</g>
						<g id="shape67-71" v:mID="67" v:groupContext="shape" transform="translate(6.74998,-4.57914)">
							<title>Sheet.67</title>
							<path d="M7.53 464.11 L7.53 462.86 L4.39 462.86 L4.39 459.72 L3.14 459.72 L3.14 462.86 L0 462.86 L0 464.11
										 L3.14 464.11 L3.14 467.25 L4.39 467.25 L4.39 464.11 L7.53 464.11 Z" class="st9"/>
						</g>
					</g>
				</g>
			</g>
		</g>
		<g id="group68-73" transform="translate(700.75,-313.75)" v:mID="68" v:groupContext="group">
			<title>Tagging.68</title>
			<g id="shape69-74" v:mID="69" v:groupContext="shape">
				<title>Sheet.69</title>
				<desc>Tagging</desc>
				<v:textBlock v:margins="rect(4,4,4,4)"/>
				<v:textRect cx="20.3582" cy="460.788" width="40.72" height="12.9231"/>
				<rect x="0" y="454.327" width="40.7163" height="12.9231" class="st6"/>
				<text x="5.39" y="463.19" class="st7" v:langID="1033"><v:paragraph v:horizAlign="1" v:bulletSize="0.166667"/><v:tabList/>Tagging</text>			</g>
			<g id="group70-77" transform="translate(2.33417,-12.9231)" v:mID="70" v:groupContext="group">
				<title>Tagging</title>
				<g id="group71-78" v:mID="71" v:groupContext="group">
					<title>Sheet.71</title>
					<g id="group72-79" v:mID="72" v:groupContext="group">
						<title>Sheet.72</title>
						<g id="shape73-80" v:mID="73" v:groupContext="shape" transform="translate(0.423994,-0.602072)">
							<title>Sheet.73</title>
							<path d="M17.6 463.94 C15.93 465.92 13.53 467.05 10.94 467.05 C6.12 467.05 2.2 463.13 2.2 458.3 C2.2
										 455.71 3.32 453.31 5.3 451.64 L0 446.35 L0 432.3 L14.12 432.3 L35.02 453.13 L20.9 467.25
										 L17.6 463.94 Z" class="st8"/>
						</g>
						<g id="shape74-82" v:mID="74" v:groupContext="shape">
							<title>Sheet.74</title>
							<path d="M14.36 432.13 L34.84 452.53 L21.33 466.05 L17.99 462.7 C16.47 464.71 14.07 466.02 11.35 466.02
										 C6.77 466.02 3.04 462.29 3.04 457.7 C3.04 455 4.34 452.6 6.35 451.07 L0.85 445.57 L0.85
										 432.13 L14.36 432.13 ZM14.72 431.28 L14.37 431.28 L0.85 431.28 L0 431.28 L0 432.13 L0 445.57
										 L0 445.91 L0.25 446.16 L5.1 451.02 C3.25 452.75 2.2 455.14 2.2 457.7 C2.2 462.76 6.31 466.87
										 11.36 466.87 C13.92 466.87 16.32 465.82 18.05 463.96 L20.73 466.65 L21.34 467.25 L21.94
										 466.65 L35.45 453.12 L36.05 452.52 L35.45 451.92 L14.97 431.52 L14.72 431.28 Z"
									class="st8"/>
						</g>
					</g>
					<g id="group75-84" transform="translate(0.847988,-1.20414)" v:mID="75" v:groupContext="group">
						<title>Sheet.75</title>
						<g id="shape76-85" v:mID="76" v:groupContext="shape">
							<title>Sheet.76</title>
							<path d="M34 453.73 L13.52 433.33 L0 433.33 L0 446.77 L4.83 451.6 C5.17 451.34 5.52 451.1 5.89 450.89
										 L1.26 446.25 L1.26 434.59 L13 434.59 L32.22 453.73 L20.48 465.48 L18.53 463.53 C18.32 463.9
										 18.08 464.25 17.82 464.59 L20.48 467.25 L34 453.73 Z" class="st9"/>
						</g>
						<g id="shape77-87" v:mID="77" v:groupContext="shape" transform="translate(5.63912,-22.3021)">
							<title>Sheet.77</title>
							<path d="M5.97 464.27 C5.97 462.62 4.63 461.28 2.98 461.28 C1.34 461.28 0 462.62 0 464.27 C0 465.91 1.34
										 467.25 2.98 467.25 C4.63 467.25 5.97 465.91 5.97 464.27 ZM2.99 465.99 C2.04 465.99 1.26
										 465.21 1.26 464.26 C1.26 463.3 2.04 462.53 2.99 462.53 C3.95 462.53 4.72 463.3 4.72 464.26
										 C4.72 465.21 3.94 465.99 2.99 465.99 Z" class="st9"/>
						</g>
						<g id="shape78-89" v:mID="78" v:groupContext="shape" transform="translate(2.19629,-0.0254396)">
							<title>Sheet.78</title>
							<path d="M16.64 458.93 C16.64 454.34 12.91 450.61 8.32 450.61 C3.73 450.61 0 454.34 0 458.93 C0 463.52
										 3.73 467.25 8.32 467.25 C12.91 467.25 16.64 463.52 16.64 458.93 ZM1.26 458.93 C1.26 455.04
										 4.43 451.87 8.32 451.87 C12.21 451.87 15.38 455.04 15.38 458.93 C15.38 462.82 12.21 465.99
										 8.32 465.99 C4.43 465.99 1.26 462.82 1.26 458.93 Z" class="st9"/>
						</g>
						<g id="shape79-91" v:mID="79" v:groupContext="shape" transform="translate(6.74998,-4.57914)">
							<title>Sheet.79</title>
							<path d="M7.53 464.11 L7.53 462.86 L4.39 462.86 L4.39 459.72 L3.14 459.72 L3.14 462.86 L0 462.86 L0 464.11
										 L3.14 464.11 L3.14 467.25 L4.39 467.25 L4.39 464.11 L7.53 464.11 Z" class="st9"/>
						</g>
					</g>
				</g>
			</g>
		</g>
		<g id="group81-93" transform="translate(115.642,-234.5)" v:mID="81" v:groupContext="group">
			<title>Tagging.81</title>
			<g id="shape82-94" v:mID="82" v:groupContext="shape">
				<title>Sheet.82</title>
				<desc>Tagging</desc>
				<v:textBlock v:margins="rect(4,4,4,4)"/>
				<v:textRect cx="20.3582" cy="460.788" width="40.72" height="12.9231"/>
				<rect x="0" y="454.327" width="40.7163" height="12.9231" class="st6"/>
				<text x="5.39" y="463.19" class="st7" v:langID="1033"><v:paragraph v:horizAlign="1" v:bulletSize="0.166667"/><v:tabList/>Tagging</text>			</g>
			<g id="group83-97" transform="translate(2.33417,-12.9231)" v:mID="83" v:groupContext="group">
				<title>Tagging</title>
				<g id="group84-98" v:mID="84" v:groupContext="group">
					<title>Sheet.84</title>
					<g id="group85-99" v:mID="85" v:groupContext="group">
						<title>Sheet.85</title>
						<g id="shape86-100" v:mID="86" v:groupContext="shape" transform="translate(0.423994,-0.602072)">
							<title>Sheet.86</title>
							<path d="M17.6 463.94 C15.93 465.92 13.53 467.05 10.94 467.05 C6.12 467.05 2.2 463.13 2.2 458.3 C2.2
										 455.71 3.32 453.31 5.3 451.64 L0 446.35 L0 432.3 L14.12 432.3 L35.02 453.13 L20.9 467.25
										 L17.6 463.94 Z" class="st8"/>
						</g>
						<g id="shape87-102" v:mID="87" v:groupContext="shape">
							<title>Sheet.87</title>
							<path d="M14.36 432.13 L34.84 452.53 L21.33 466.05 L17.99 462.7 C16.47 464.71 14.07 466.02 11.35 466.02
										 C6.77 466.02 3.04 462.29 3.04 457.7 C3.04 455 4.34 452.6 6.35 451.07 L0.85 445.57 L0.85
										 432.13 L14.36 432.13 ZM14.72 431.28 L14.37 431.28 L0.85 431.28 L0 431.28 L0 432.13 L0 445.57
										 L0 445.91 L0.25 446.16 L5.1 451.02 C3.25 452.75 2.2 455.14 2.2 457.7 C2.2 462.76 6.31 466.87
										 11.36 466.87 C13.92 466.87 16.32 465.82 18.05 463.96 L20.73 466.65 L21.34 467.25 L21.94
										 466.65 L35.45 453.12 L36.05 452.52 L35.45 451.92 L14.97 431.52 L14.72 431.28 Z"
									class="st8"/>
						</g>
					</g>
					<g id="group88-104" transform="translate(0.847988,-1.20414)" v:mID="88" v:groupContext="group">
						<title>Sheet.88</title>
						<g id="shape89-105" v:mID="89" v:groupContext="shape">
							<title>Sheet.89</title>
							<path d="M34 453.73 L13.52 433.33 L0 433.33 L0 446.77 L4.83 451.6 C5.17 451.34 5.52 451.1 5.89 450.89
										 L1.26 446.25 L1.26 434.59 L13 434.59 L32.22 453.73 L20.48 465.48 L18.53 463.53 C18.32 463.9
										 18.08 464.25 17.82 464.59 L20.48 467.25 L34 453.73 Z" class="st9"/>
						</g>
						<g id="shape90-107" v:mID="90" v:groupContext="shape" transform="translate(5.63912,-22.3021)">
							<title>Sheet.90</title>
							<path d="M5.97 464.27 C5.97 462.62 4.63 461.28 2.98 461.28 C1.34 461.28 0 462.62 0 464.27 C0 465.91 1.34
										 467.25 2.98 467.25 C4.63 467.25 5.97 465.91 5.97 464.27 ZM2.99 465.99 C2.04 465.99 1.26
										 465.21 1.26 464.26 C1.26 463.3 2.04 462.53 2.99 462.53 C3.95 462.53 4.72 463.3 4.72 464.26
										 C4.72 465.21 3.94 465.99 2.99 465.99 Z" class="st9"/>
						</g>
						<g id="shape91-109" v:mID="91" v:groupContext="shape" transform="translate(2.19629,-0.0254396)">
							<title>Sheet.91</title>
							<path d="M16.64 458.93 C16.64 454.34 12.91 450.61 8.32 450.61 C3.73 450.61 0 454.34 0 458.93 C0 463.52
										 3.73 467.25 8.32 467.25 C12.91 467.25 16.64 463.52 16.64 458.93 ZM1.26 458.93 C1.26 455.04
										 4.43 451.87 8.32 451.87 C12.21 451.87 15.38 455.04 15.38 458.93 C15.38 462.82 12.21 465.99
										 8.32 465.99 C4.43 465.99 1.26 462.82 1.26 458.93 Z" class="st9"/>
						</g>
						<g id="shape92-111" v:mID="92" v:groupContext="shape" transform="translate(6.74998,-4.57914)">
							<title>Sheet.92</title>
							<path d="M7.53 464.11 L7.53 462.86 L4.39 462.86 L4.39 459.72 L3.14 459.72 L3.14 462.86 L0 462.86 L0 464.11
										 L3.14 464.11 L3.14 467.25 L4.39 467.25 L4.39 464.11 L7.53 464.11 Z" class="st9"/>
						</g>
					</g>
				</g>
			</g>
		</g>
		<g id="group93-113" transform="translate(257.284,-234.5)" v:mID="93" v:groupContext="group">
			<title>Tagging.93</title>
			<g id="shape94-114" v:mID="94" v:groupContext="shape">
				<title>Sheet.94</title>
				<desc>Tagging</desc>
				<v:textBlock v:margins="rect(4,4,4,4)"/>
				<v:textRect cx="20.3582" cy="460.788" width="40.72" height="12.9231"/>
				<rect x="0" y="454.327" width="40.7163" height="12.9231" class="st6"/>
				<text x="5.39" y="463.19" class="st7" v:langID="1033"><v:paragraph v:horizAlign="1" v:bulletSize="0.166667"/><v:tabList/>Tagging</text>			</g>
			<g id="group95-117" transform="translate(2.33417,-12.9231)" v:mID="95" v:groupContext="group">
				<title>Tagging</title>
				<g id="group96-118" v:mID="96" v:groupContext="group">
					<title>Sheet.96</title>
					<g id="group97-119" v:mID="97" v:groupContext="group">
						<title>Sheet.97</title>
						<g id="shape98-120" v:mID="98" v:groupContext="shape" transform="translate(0.423994,-0.602072)">
							<title>Sheet.98</title>
							<path d="M17.6 463.94 C15.93 465.92 13.53 467.05 10.94 467.05 C6.12 467.05 2.2 463.13 2.2 458.3 C2.2
										 455.71 3.32 453.31 5.3 451.64 L0 446.35 L0 432.3 L14.12 432.3 L35.02 453.13 L20.9 467.25
										 L17.6 463.94 Z" class="st8"/>
						</g>
						<g id="shape99-122" v:mID="99" v:groupContext="shape">
							<title>Sheet.99</title>
							<path d="M14.36 432.13 L34.84 452.53 L21.33 466.05 L17.99 462.7 C16.47 464.71 14.07 466.02 11.35 466.02
										 C6.77 466.02 3.04 462.29 3.04 457.7 C3.04 455 4.34 452.6 6.35 451.07 L0.85 445.57 L0.85
										 432.13 L14.36 432.13 ZM14.72 431.28 L14.37 431.28 L0.85 431.28 L0 431.28 L0 432.13 L0 445.57
										 L0 445.91 L0.25 446.16 L5.1 451.02 C3.25 452.75 2.2 455.14 2.2 457.7 C2.2 462.76 6.31 466.87
										 11.36 466.87 C13.92 466.87 16.32 465.82 18.05 463.96 L20.73 466.65 L21.34 467.25 L21.94
										 466.65 L35.45 453.12 L36.05 452.52 L35.45 451.92 L14.97 431.52 L14.72 431.28 Z"
									class="st8"/>
						</g>
					</g>
					<g id="group100-124" transform="translate(0.847988,-1.20414)" v:mID="100" v:groupContext="group">
						<title>Sheet.100</title>
						<g id="shape101-125" v:mID="101" v:groupContext="shape">
							<title>Sheet.101</title>
							<path d="M34 453.73 L13.52 433.33 L0 433.33 L0 446.77 L4.83 451.6 C5.17 451.34 5.52 451.1 5.89 450.89
										 L1.26 446.25 L1.26 434.59 L13 434.59 L32.22 453.73 L20.48 465.48 L18.53 463.53 C18.32 463.9
										 18.08 464.25 17.82 464.59 L20.48 467.25 L34 453.73 Z" class="st9"/>
						</g>
						<g id="shape102-127" v:mID="102" v:groupContext="shape" transform="translate(5.63912,-22.3021)">
							<title>Sheet.102</title>
							<path d="M5.97 464.27 C5.97 462.62 4.63 461.28 2.98 461.28 C1.34 461.28 0 462.62 0 464.27 C0 465.91 1.34
										 467.25 2.98 467.25 C4.63 467.25 5.97 465.91 5.97 464.27 ZM2.99 465.99 C2.04 465.99 1.26
										 465.21 1.26 464.26 C1.26 463.3 2.04 462.53 2.99 462.53 C3.95 462.53 4.72 463.3 4.72 464.26
										 C4.72 465.21 3.94 465.99 2.99 465.99 Z" class="st9"/>
						</g>
						<g id="shape103-129" v:mID="103" v:groupContext="shape" transform="translate(2.19629,-0.0254396)">
							<title>Sheet.103</title>
							<path d="M16.64 458.93 C16.64 454.34 12.91 450.61 8.32 450.61 C3.73 450.61 0 454.34 0 458.93 C0 463.52
										 3.73 467.25 8.32 467.25 C12.91 467.25 16.64 463.52 16.64 458.93 ZM1.26 458.93 C1.26 455.04
										 4.43 451.87 8.32 451.87 C12.21 451.87 15.38 455.04 15.38 458.93 C15.38 462.82 12.21 465.99
										 8.32 465.99 C4.43 465.99 1.26 462.82 1.26 458.93 Z" class="st9"/>
						</g>
						<g id="shape104-131" v:mID="104" v:groupContext="shape" transform="translate(6.74998,-4.57914)">
							<title>Sheet.104</title>
							<path d="M7.53 464.11 L7.53 462.86 L4.39 462.86 L4.39 459.72 L3.14 459.72 L3.14 462.86 L0 462.86 L0 464.11
										 L3.14 464.11 L3.14 467.25 L4.39 467.25 L4.39 464.11 L7.53 464.11 Z" class="st9"/>
						</g>
					</g>
				</g>
			</g>
		</g>
		<g id="group105-133" transform="translate(417.522,-234.5)" v:mID="105" v:groupContext="group">
			<title>Tagging.105</title>
			<g id="shape106-134" v:mID="106" v:groupContext="shape">
				<title>Sheet.106</title>
				<desc>Tagging</desc>
				<v:textBlock v:margins="rect(4,4,4,4)"/>
				<v:textRect cx="20.3582" cy="460.788" width="40.72" height="12.9231"/>
				<rect x="0" y="454.327" width="40.7163" height="12.9231" class="st6"/>
				<text x="5.39" y="463.19" class="st7" v:langID="1033"><v:paragraph v:horizAlign="1" v:bulletSize="0.166667"/><v:tabList/>Tagging</text>			</g>
			<g id="group107-137" transform="translate(2.33417,-12.9231)" v:mID="107" v:groupContext="group">
				<title>Tagging</title>
				<g id="group108-138" v:mID="108" v:groupContext="group">
					<title>Sheet.108</title>
					<g id="group109-139" v:mID="109" v:groupContext="group">
						<title>Sheet.109</title>
						<g id="shape110-140" v:mID="110" v:groupContext="shape" transform="translate(0.423994,-0.602072)">
							<title>Sheet.110</title>
							<path d="M17.6 463.94 C15.93 465.92 13.53 467.05 10.94 467.05 C6.12 467.05 2.2 463.13 2.2 458.3 C2.2
										 455.71 3.32 453.31 5.3 451.64 L0 446.35 L0 432.3 L14.12 432.3 L35.02 453.13 L20.9 467.25
										 L17.6 463.94 Z" class="st8"/>
						</g>
						<g id="shape111-142" v:mID="111" v:groupContext="shape">
							<title>Sheet.111</title>
							<path d="M14.36 432.13 L34.84 452.53 L21.33 466.05 L17.99 462.7 C16.47 464.71 14.07 466.02 11.35 466.02
										 C6.77 466.02 3.04 462.29 3.04 457.7 C3.04 455 4.34 452.6 6.35 451.07 L0.85 445.57 L0.85
										 432.13 L14.36 432.13 ZM14.72 431.28 L14.37 431.28 L0.85 431.28 L0 431.28 L0 432.13 L0 445.57
										 L0 445.91 L0.25 446.16 L5.1 451.02 C3.25 452.75 2.2 455.14 2.2 457.7 C2.2 462.76 6.31 466.87
										 11.36 466.87 C13.92 466.87 16.32 465.82 18.05 463.96 L20.73 466.65 L21.34 467.25 L21.94
										 466.65 L35.45 453.12 L36.05 452.52 L35.45 451.92 L14.97 431.52 L14.72 431.28 Z"
									class="st8"/>
						</g>
					</g>
					<g id="group112-144" transform="translate(0.847988,-1.20414)" v:mID="112" v:groupContext="group">
						<title>Sheet.112</title>
						<g id="shape113-145" v:mID="113" v:groupContext="shape">
							<title>Sheet.113</title>
							<path d="M34 453.73 L13.52 433.33 L0 433.33 L0 446.77 L4.83 451.6 C5.17 451.34 5.52 451.1 5.89 450.89
										 L1.26 446.25 L1.26 434.59 L13 434.59 L32.22 453.73 L20.48 465.48 L18.53 463.53 C18.32 463.9
										 18.08 464.25 17.82 464.59 L20.48 467.25 L34 453.73 Z" class="st9"/>
						</g>
						<g id="shape114-147" v:mID="114" v:groupContext="shape" transform="translate(5.63912,-22.3021)">
							<title>Sheet.114</title>
							<path d="M5.97 464.27 C5.97 462.62 4.63 461.28 2.98 461.28 C1.34 461.28 0 462.62 0 464.27 C0 465.91 1.34
										 467.25 2.98 467.25 C4.63 467.25 5.97 465.91 5.97 464.27 ZM2.99 465.99 C2.04 465.99 1.26
										 465.21 1.26 464.26 C1.26 463.3 2.04 462.53 2.99 462.53 C3.95 462.53 4.72 463.3 4.72 464.26
										 C4.72 465.21 3.94 465.99 2.99 465.99 Z" class="st9"/>
						</g>
						<g id="shape115-149" v:mID="115" v:groupContext="shape" transform="translate(2.19629,-0.0254396)">
							<title>Sheet.115</title>
							<path d="M16.64 458.93 C16.64 454.34 12.91 450.61 8.32 450.61 C3.73 450.61 0 454.34 0 458.93 C0 463.52
										 3.73 467.25 8.32 467.25 C12.91 467.25 16.64 463.52 16.64 458.93 ZM1.26 458.93 C1.26 455.04
										 4.43 451.87 8.32 451.87 C12.21 451.87 15.38 455.04 15.38 458.93 C15.38 462.82 12.21 465.99
										 8.32 465.99 C4.43 465.99 1.26 462.82 1.26 458.93 Z" class="st9"/>
						</g>
						<g id="shape116-151" v:mID="116" v:groupContext="shape" transform="translate(6.74998,-4.57914)">
							<title>Sheet.116</title>
							<path d="M7.53 464.11 L7.53 462.86 L4.39 462.86 L4.39 459.72 L3.14 459.72 L3.14 462.86 L0 462.86 L0 464.11
										 L3.14 464.11 L3.14 467.25 L4.39 467.25 L4.39 464.11 L7.53 464.11 Z" class="st9"/>
						</g>
					</g>
				</g>
			</g>
		</g>
		<g id="group117-153" transform="translate(559,-234.5)" v:mID="117" v:groupContext="group">
			<title>Tagging.117</title>
			<g id="shape118-154" v:mID="118" v:groupContext="shape">
				<title>Sheet.118</title>
				<desc>Tagging</desc>
				<v:textBlock v:margins="rect(4,4,4,4)"/>
				<v:textRect cx="20.3582" cy="460.788" width="40.72" height="12.9231"/>
				<rect x="0" y="454.327" width="40.7163" height="12.9231" class="st6"/>
				<text x="5.39" y="463.19" class="st7" v:langID="1033"><v:paragraph v:horizAlign="1" v:bulletSize="0.166667"/><v:tabList/>Tagging</text>			</g>
			<g id="group119-157" transform="translate(2.33417,-12.9231)" v:mID="119" v:groupContext="group">
				<title>Tagging</title>
				<g id="group120-158" v:mID="120" v:groupContext="group">
					<title>Sheet.120</title>
					<g id="group121-159" v:mID="121" v:groupContext="group">
						<title>Sheet.121</title>
						<g id="shape122-160" v:mID="122" v:groupContext="shape" transform="translate(0.423994,-0.602072)">
							<title>Sheet.122</title>
							<path d="M17.6 463.94 C15.93 465.92 13.53 467.05 10.94 467.05 C6.12 467.05 2.2 463.13 2.2 458.3 C2.2
										 455.71 3.32 453.31 5.3 451.64 L0 446.35 L0 432.3 L14.12 432.3 L35.02 453.13 L20.9 467.25
										 L17.6 463.94 Z" class="st8"/>
						</g>
						<g id="shape123-162" v:mID="123" v:groupContext="shape">
							<title>Sheet.123</title>
							<path d="M14.36 432.13 L34.84 452.53 L21.33 466.05 L17.99 462.7 C16.47 464.71 14.07 466.02 11.35 466.02
										 C6.77 466.02 3.04 462.29 3.04 457.7 C3.04 455 4.34 452.6 6.35 451.07 L0.85 445.57 L0.85
										 432.13 L14.36 432.13 ZM14.72 431.28 L14.37 431.28 L0.85 431.28 L0 431.28 L0 432.13 L0 445.57
										 L0 445.91 L0.25 446.16 L5.1 451.02 C3.25 452.75 2.2 455.14 2.2 457.7 C2.2 462.76 6.31 466.87
										 11.36 466.87 C13.92 466.87 16.32 465.82 18.05 463.96 L20.73 466.65 L21.34 467.25 L21.94
										 466.65 L35.45 453.12 L36.05 452.52 L35.45 451.92 L14.97 431.52 L14.72 431.28 Z"
									class="st8"/>
						</g>
					</g>
					<g id="group124-164" transform="translate(0.847988,-1.20414)" v:mID="124" v:groupContext="group">
						<title>Sheet.124</title>
						<g id="shape125-165" v:mID="125" v:groupContext="shape">
							<title>Sheet.125</title>
							<path d="M34 453.73 L13.52 433.33 L0 433.33 L0 446.77 L4.83 451.6 C5.17 451.34 5.52 451.1 5.89 450.89
										 L1.26 446.25 L1.26 434.59 L13 434.59 L32.22 453.73 L20.48 465.48 L18.53 463.53 C18.32 463.9
										 18.08 464.25 17.82 464.59 L20.48 467.25 L34 453.73 Z" class="st9"/>
						</g>
						<g id="shape126-167" v:mID="126" v:groupContext="shape" transform="translate(5.63912,-22.3021)">
							<title>Sheet.126</title>
							<path d="M5.97 464.27 C5.97 462.62 4.63 461.28 2.98 461.28 C1.34 461.28 0 462.62 0 464.27 C0 465.91 1.34
										 467.25 2.98 467.25 C4.63 467.25 5.97 465.91 5.97 464.27 ZM2.99 465.99 C2.04 465.99 1.26
										 465.21 1.26 464.26 C1.26 463.3 2.04 462.53 2.99 462.53 C3.95 462.53 4.72 463.3 4.72 464.26
										 C4.72 465.21 3.94 465.99 2.99 465.99 Z" class="st9"/>
						</g>
						<g id="shape127-169" v:mID="127" v:groupContext="shape" transform="translate(2.19629,-0.0254396)">
							<title>Sheet.127</title>
							<path d="M16.64 458.93 C16.64 454.34 12.91 450.61 8.32 450.61 C3.73 450.61 0 454.34 0 458.93 C0 463.52
										 3.73 467.25 8.32 467.25 C12.91 467.25 16.64 463.52 16.64 458.93 ZM1.26 458.93 C1.26 455.04
										 4.43 451.87 8.32 451.87 C12.21 451.87 15.38 455.04 15.38 458.93 C15.38 462.82 12.21 465.99
										 8.32 465.99 C4.43 465.99 1.26 462.82 1.26 458.93 Z" class="st9"/>
						</g>
						<g id="shape128-171" v:mID="128" v:groupContext="shape" transform="translate(6.74998,-4.57914)">
							<title>Sheet.128</title>
							<path d="M7.53 464.11 L7.53 462.86 L4.39 462.86 L4.39 459.72 L3.14 459.72 L3.14 462.86 L0 462.86 L0 464.11
										 L3.14 464.11 L3.14 467.25 L4.39 467.25 L4.39 464.11 L7.53 464.11 Z" class="st9"/>
						</g>
					</g>
				</g>
			</g>
		</g>
		<g id="group129-173" transform="translate(700.75,-234.5)" v:mID="129" v:groupContext="group">
			<title>Tagging.129</title>
			<g id="shape130-174" v:mID="130" v:groupContext="shape">
				<title>Sheet.130</title>
				<desc>Tagging</desc>
				<v:textBlock v:margins="rect(4,4,4,4)"/>
				<v:textRect cx="20.3582" cy="460.788" width="40.72" height="12.9231"/>
				<rect x="0" y="454.327" width="40.7163" height="12.9231" class="st6"/>
				<text x="5.39" y="463.19" class="st7" v:langID="1033"><v:paragraph v:horizAlign="1" v:bulletSize="0.166667"/><v:tabList/>Tagging</text>			</g>
			<g id="group131-177" transform="translate(2.33417,-12.9231)" v:mID="131" v:groupContext="group">
				<title>Tagging</title>
				<g id="group132-178" v:mID="132" v:groupContext="group">
					<title>Sheet.132</title>
					<g id="group133-179" v:mID="133" v:groupContext="group">
						<title>Sheet.133</title>
						<g id="shape134-180" v:mID="134" v:groupContext="shape" transform="translate(0.423994,-0.602072)">
							<title>Sheet.134</title>
							<path d="M17.6 463.94 C15.93 465.92 13.53 467.05 10.94 467.05 C6.12 467.05 2.2 463.13 2.2 458.3 C2.2
										 455.71 3.32 453.31 5.3 451.64 L0 446.35 L0 432.3 L14.12 432.3 L35.02 453.13 L20.9 467.25
										 L17.6 463.94 Z" class="st8"/>
						</g>
						<g id="shape135-182" v:mID="135" v:groupContext="shape">
							<title>Sheet.135</title>
							<path d="M14.36 432.13 L34.84 452.53 L21.33 466.05 L17.99 462.7 C16.47 464.71 14.07 466.02 11.35 466.02
										 C6.77 466.02 3.04 462.29 3.04 457.7 C3.04 455 4.34 452.6 6.35 451.07 L0.85 445.57 L0.85
										 432.13 L14.36 432.13 ZM14.72 431.28 L14.37 431.28 L0.85 431.28 L0 431.28 L0 432.13 L0 445.57
										 L0 445.91 L0.25 446.16 L5.1 451.02 C3.25 452.75 2.2 455.14 2.2 457.7 C2.2 462.76 6.31 466.87
										 11.36 466.87 C13.92 466.87 16.32 465.82 18.05 463.96 L20.73 466.65 L21.34 467.25 L21.94
										 466.65 L35.45 453.12 L36.05 452.52 L35.45 451.92 L14.97 431.52 L14.72 431.28 Z"
									class="st8"/>
						</g>
					</g>
					<g id="group136-184" transform="translate(0.847988,-1.20414)" v:mID="136" v:groupContext="group">
						<title>Sheet.136</title>
						<g id="shape137-185" v:mID="137" v:groupContext="shape">
							<title>Sheet.137</title>
							<path d="M34 453.73 L13.52 433.33 L0 433.33 L0 446.77 L4.83 451.6 C5.17 451.34 5.52 451.1 5.89 450.89
										 L1.26 446.25 L1.26 434.59 L13 434.59 L32.22 453.73 L20.48 465.48 L18.53 463.53 C18.32 463.9
										 18.08 464.25 17.82 464.59 L20.48 467.25 L34 453.73 Z" class="st9"/>
						</g>
						<g id="shape138-187" v:mID="138" v:groupContext="shape" transform="translate(5.63912,-22.3021)">
							<title>Sheet.138</title>
							<path d="M5.97 464.27 C5.97 462.62 4.63 461.28 2.98 461.28 C1.34 461.28 0 462.62 0 464.27 C0 465.91 1.34
										 467.25 2.98 467.25 C4.63 467.25 5.97 465.91 5.97 464.27 ZM2.99 465.99 C2.04 465.99 1.26
										 465.21 1.26 464.26 C1.26 463.3 2.04 462.53 2.99 462.53 C3.95 462.53 4.72 463.3 4.72 464.26
										 C4.72 465.21 3.94 465.99 2.99 465.99 Z" class="st9"/>
						</g>
						<g id="shape139-189" v:mID="139" v:groupContext="shape" transform="translate(2.19629,-0.0254396)">
							<title>Sheet.139</title>
							<path d="M16.64 458.93 C16.64 454.34 12.91 450.61 8.32 450.61 C3.73 450.61 0 454.34 0 458.93 C0 463.52
										 3.73 467.25 8.32 467.25 C12.91 467.25 16.64 463.52 16.64 458.93 ZM1.26 458.93 C1.26 455.04
										 4.43 451.87 8.32 451.87 C12.21 451.87 15.38 455.04 15.38 458.93 C15.38 462.82 12.21 465.99
										 8.32 465.99 C4.43 465.99 1.26 462.82 1.26 458.93 Z" class="st9"/>
						</g>
						<g id="shape140-191" v:mID="140" v:groupContext="shape" transform="translate(6.74998,-4.57914)">
							<title>Sheet.140</title>
							<path d="M7.53 464.11 L7.53 462.86 L4.39 462.86 L4.39 459.72 L3.14 459.72 L3.14 462.86 L0 462.86 L0 464.11
										 L3.14 464.11 L3.14 467.25 L4.39 467.25 L4.39 464.11 L7.53 464.11 Z" class="st9"/>
						</g>
					</g>
				</g>
			</g>
		</g>
		<g id="group141-193" transform="translate(397.489,-41.8472)" v:mID="141" v:groupContext="group">
			<title>Email Delivery.200</title>
			<g id="shape142-194" v:mID="142" v:groupContext="shape">
				<title>Sheet.142</title>
				<desc>Email Delivery</desc>
				<v:textBlock v:margins="rect(4,4,4,4)"/>
				<v:textRect cx="30.375" cy="460.788" width="60.75" height="12.9231"/>
				<rect x="0" y="454.327" width="60.75" height="12.9231" class="st6"/>
				<text x="4.73" y="463.19" class="st7" v:langID="1033"><v:paragraph v:horizAlign="1" v:bulletSize="0.166667"/><v:tabList/>Email Delivery</text>			</g>
			<g id="group143-197" transform="translate(4.19705,-11.8553)" v:mID="143" v:groupContext="group">
				<title>Email Delivery</title>
				<g id="group144-198" v:mID="144" v:groupContext="group">
					<title>Sheet.144</title>
					<g id="group145-199" v:mID="145" v:groupContext="group">
						<title>Sheet.145</title>
						<g id="shape146-200" v:mID="146" v:groupContext="shape" transform="translate(0.428234,-0.428234)">
							<title>Sheet.146</title>
							<path d="M35.75 467.25 L35.75 463.84 L6.59 463.84 L6.59 447.78 C2.81 447.17 0 443.89 0 440.01 C0 435.67
										 3.54 432.13 7.88 432.13 C10.8 432.13 13.52 433.8 14.86 436.39 L44.9 436.39 L44.9 451.5 L51.5
										 451.5 L51.5 467.25 L35.75 467.25 Z" class="st10"/>
						</g>
						<g id="shape147-202" v:mID="147" v:groupContext="shape">
							<title>Sheet.147</title>
							<path d="M8.31 432.13 C11.27 432.13 13.83 433.88 15.02 436.39 L44.9 436.39 L44.9 451.5 L51.5 451.5 L51.5
										 466.39 L36.61 466.39 L36.61 462.98 L7.45 462.98 L7.45 446.98 C3.74 446.55 0.86 443.4 0.86
										 439.59 C0.86 435.48 4.2 432.13 8.31 432.13 ZM8.31 431.28 C3.73 431.28 0 435 0 439.59 C0
										 443.55 2.78 446.92 6.59 447.71 L6.59 462.99 L6.59 463.85 L7.45 463.85 L35.75 463.85 L35.75
										 466.39 L35.75 467.25 L36.61 467.25 L51.5 467.25 L52.36 467.25 L52.36 466.39 L52.36 451.5
										 L52.36 450.64 L51.5 450.64 L45.76 450.64 L45.76 436.39 L45.76 435.54 L44.9 435.54 L15.54
										 435.54 C14.08 432.93 11.3 431.28 8.31 431.28 Z" class="st10"/>
						</g>
					</g>
					<g id="group148-204" transform="translate(0.856468,-0.856468)" v:mID="148" v:groupContext="group">
						<title>Sheet.148</title>
						<g id="shape149-205" v:mID="149" v:groupContext="shape" transform="translate(14.8512,-13.9176)">
							<title>Sheet.149</title>
							<path d="M25.9 452.87 L10.47 465.08 L0.77 457.4 C0.57 457.95 0.31 458.47 0 458.96 L10.47 467.25 L27.49
										 453.78 L27.49 465 L29.2 465 L29.2 451.17 L0.71 451.17 C0.92 451.71 1.09 452.28 1.19 452.87
										 L25.9 452.87 Z" class="st11"/>
						</g>
						<g id="shape150-207" v:mID="150" v:groupContext="shape" transform="translate(6.60337,-3.40018)">
							<title>Sheet.150</title>
							<path d="M1.7 465.55 L1.7 452.53 C1.41 452.55 1.13 452.57 0.85 452.57 C0.56 452.57 0.27 452.55 0 452.53
										 L0 467.25 L27.88 467.25 L27.88 465.55 L1.7 465.55 Z" class="st11"/>
						</g>
						<g id="shape151-209" v:mID="151" v:groupContext="shape" transform="translate(0,-19.3562)">
							<title>Sheet.151</title>
							<path d="M14.89 459.8 C14.89 455.7 11.55 452.35 7.44 452.35 C3.33 452.35 0 455.69 0 459.8 C0 463.91 3.34
										 467.25 7.45 467.25 C11.56 467.25 14.89 463.9 14.89 459.8 ZM7.45 454.05 C10.62 454.05 13.2
										 456.63 13.2 459.8 C13.2 462.97 10.61 465.54 7.45 465.54 C4.29 465.54 1.7 462.96 1.7 459.8
										 C1.7 456.64 4.28 454.05 7.45 454.05 Z" class="st11"/>
						</g>
						<g id="shape152-211" v:mID="152" v:groupContext="shape" transform="translate(3.4687,-22.5936)">
							<title>Sheet.152</title>
							<path d="M2.1 466.68 C2.75 467.06 3.46 467.25 4.22 467.25 C4.64 467.25 5.05 467.19 5.45 467.07 C5.85
										 466.95 6.22 466.77 6.57 466.53 L6.09 465.83 L5.98 465.9 C5.44 466.23 4.85 466.39 4.21 466.39
										 C3.6 466.39 3.03 466.24 2.51 465.94 C2 465.64 1.59 465.24 1.29 464.72 C0.99 464.2 0.84 463.64
										 0.84 463.02 C0.84 462.4 0.99 461.84 1.29 461.31 C1.59 460.8 2 460.4 2.51 460.1 C3.04 459.81
										 3.61 459.65 4.22 459.65 C4.84 459.65 5.4 459.81 5.93 460.11 C6.44 460.41 6.84 460.81 7.14
										 461.32 C7.44 461.85 7.6 462.41 7.6 463.03 L7.6 463.42 C7.58 463.59 7.51 463.74 7.39 463.85
										 C7.27 463.96 7.13 464.02 6.95 464.02 C6.75 464.02 6.59 463.93 6.44 463.75 C6.35 463.64 6.32
										 463.5 6.32 463.36 L6.32 460.9 L5.26 460.9 L5.26 461.34 C4.86 461.05 4.4 460.9 3.89 460.9
										 C3.48 460.9 3.09 461.01 2.75 461.2 C2.4 461.41 2.12 461.67 1.92 462.02 C1.72 462.35 1.62
										 462.73 1.62 463.13 C1.62 463.54 1.72 463.91 1.93 464.25 C2.13 464.59 2.41 464.86 2.75 465.06
										 C3.09 465.25 3.48 465.36 3.89 465.36 C4.26 465.36 4.61 465.28 4.92 465.12 C5.24 464.95 5.51
										 464.74 5.72 464.46 C5.87 464.6 6.04 464.71 6.23 464.79 C6.5 464.91 6.8 464.95 7.13 464.89
										 C7.22 464.88 7.31 464.85 7.41 464.82 C7.79 464.65 8.09 464.4 8.27 464.05 C8.38 463.86 8.44
										 463.52 8.44 463.31 L8.44 462.91 C8.42 462.16 8.21 461.47 7.83 460.83 C7.45 460.21 6.95 459.72
										 6.32 459.35 C5.67 458.99 4.98 458.8 4.22 458.8 C3.46 458.8 2.75 458.99 2.1 459.37 C1.46
										 459.76 0.94 460.26 0.57 460.9 C0.19 461.55 0 462.27 0 463.03 C0 463.79 0.19 464.5 0.57 465.15
										 C0.94 465.79 1.46 466.31 2.1 466.68 ZM5.19 463.7 C5.07 463.9 4.91 464.06 4.7 464.18 C4.5
										 464.3 4.27 464.36 4.03 464.36 C3.79 464.36 3.57 464.3 3.37 464.18 C3.16 464.06 3 463.9 2.88
										 463.7 C2.76 463.49 2.7 463.27 2.7 463.03 C2.7 462.79 2.76 462.57 2.88 462.36 C3 462.15 3.16
										 461.99 3.37 461.87 C3.57 461.75 3.79 461.69 4.03 461.69 C4.27 461.69 4.5 461.75 4.7 461.87
										 C4.91 461.99 5.07 462.15 5.19 462.36 C5.31 462.57 5.37 462.79 5.37 463.03 C5.38 463.27 5.32
										 463.49 5.19 463.7 Z" class="st11"/>
						</g>
						<g id="shape153-213" v:mID="153" v:groupContext="shape" transform="translate(35.749,5.68434E-14)">
							<title>Sheet.153</title>
							<path d="M0 452.36 L0 467.25 L14.89 467.25 L14.89 452.36 L0 452.36 ZM13.19 465.55 L1.7 465.55 L1.7 454.06
										 L13.2 454.06 L13.2 465.55 L13.19 465.55 Z" class="st11"/>
						</g>
						<g id="shape154-215" v:mID="154" v:groupContext="shape" transform="translate(38.738,-3.20319)">
							<title>Sheet.154</title>
							<path d="M2.97 458.96 L2.97 460.12 C2.81 460.19 2.66 460.27 2.52 460.37 L1.28 459.64 L0 461.82 L1.12
										 462.48 C1.08 462.69 1.06 462.89 1.06 463.11 C1.06 463.21 1.07 463.29 1.08 463.38 L0.01 464
										 L1.28 466.18 L2.24 465.62 C2.46 465.81 2.71 465.97 2.98 466.09 L2.98 467.25 L5.75 467.25
										 L5.75 466.09 C6.02 465.97 6.27 465.81 6.49 465.62 L7.44 466.18 L8.72 464 L7.65 463.38 C7.66
										 463.29 7.67 463.2 7.67 463.11 C7.67 462.9 7.64 462.69 7.61 462.48 L8.73 461.82 L7.45 459.64
										 L6.21 460.37 C6.06 460.28 5.91 460.19 5.76 460.12 L5.76 458.96 L2.97 458.96 ZM4.35 464.71
										 C3.47 464.71 2.76 463.99 2.76 463.11 C2.76 462.23 3.48 461.52 4.35 461.52 C5.23 461.52 5.94
										 462.24 5.94 463.11 C5.94 464 5.23 464.71 4.35 464.71 Z" class="st11"/>
						</g>
					</g>
				</g>
			</g>
		</g>
		<g id="group344-217" transform="translate(317.356,-41.5)" v:mID="344" v:groupContext="group">
			<title>Sheet.344</title>
			<g id="group282-218" v:mID="282" v:groupContext="group">
				<title>Sheet.282</title>
				<g id="shape313-219" v:mID="313" v:groupContext="shape" transform="translate(30.1494,-34.9877)">
					<title>Sheet.313</title>
					<path d="M0 467.25 L0 460.44 L12.61 460.44 L12.61 464.54 L10.27 464.54 C9.63 464.54 9.15 465.05 9.15 465.61 L9.15
								 467.25 L0 467.25 Z" class="st12"/>
				</g>
				<g id="shape314-221" v:mID="314" v:groupContext="shape" transform="translate(29.7236,-34.578)">
					<title>Sheet.314</title>
					<path d="M12.61 460.44 L12.61 463.72 L10.7 463.72 C9.85 463.72 9.15 464.38 9.15 465.2 L9.15 466.43 L0.85 466.43
								 L0.85 460.44 L0.85 460.44 L12.61 460.44 ZM13.46 459.62 L12.61 459.62 L0.85 459.62 L0 459.62 L0 460.44
								 L0 466.43 L0 467.25 L0.85 467.25 L9.15 467.25 L10 467.25 L10 466.43 L10 465.2 C10 464.84 10.27 464.54
								 10.7 464.54 L12.61 464.54 L13.46 464.54 L13.46 463.77 L13.46 460.44 L13.46 459.62 L13.46 459.62
								 Z" class="st12"/>
				</g>
				<g id="shape315-223" v:mID="315" v:groupContext="shape" transform="translate(12.6411,-11.7893)">
					<title>Sheet.315</title>
					<path d="M1.6 467.25 L0 466.48 L0 465.51 L3.3 459.62 L3.3 445.02 C3.3 444.05 4.1 443.23 5.16 443.23 L16.28 443.23
								 L16.28 438.06 L4.15 438.06 L3.94 440.57 L4.26 440.57 L4.26 443.03 L1.49 443.03 L1.49 440.57 L1.81
								 440.57 L1.49 436.73 L1.49 433.91 L4.26 433.91 L4.26 436.01 L31.4 436.01 L31.4 440.57 L32.99 440.57
								 C34.06 440.57 34.96 441.39 34.96 442.41 L34.96 451.78 C34.96 452.86 34.06 453.68 32.99 453.68 L31.34
								 453.68 L31.34 459.41 L34.64 465.51 L34.64 466.48 L33.05 467.25 L1.6 467.25 ZM25.81 443.23 L25.81
								 442.41 C25.81 441.39 26.71 440.57 27.78 440.57 L29.27 440.57 L29.27 438.06 L18.36 438.06 L18.36
								 443.23 L25.81 443.23 Z" class="st12"/>
				</g>
				<g id="shape316-225" v:mID="316" v:groupContext="shape" transform="translate(12.2153,-11.3796)">
					<title>Sheet.316</title>
					<path d="M3.58 439.25 L3.58 441.01 L26.37 441.01 L26.37 444.84 L28.07 444.84 C28.78 444.84 29.36 445.36 29.36
								 446.05 L29.36 453.92 C29.36 454.61 28.78 455.16 28.07 455.16 L26.33 455.16 L26.33 460.41 L29.1 465.53
								 L29.1 465.53 L29.1 465.53 L29.1 466.05 L28.02 466.56 L28.02 466.56 L1.79 466.56 L1.79 466.56 L0.72
								 466.05 L0.72 465.53 L0.72 465.53 L0.72 465.53 L3.49 460.58 L3.49 448.24 C3.49 447.59 4.02 447.08
								 4.69 447.08 L14.39 447.08 L14.39 442.05 L14.39 442.05 L3.53 442.05 L3.26 444.84 L3.58 444.84 L3.58
								 444.97 L3.58 446.22 L1.92 446.22 L1.92 444.97 L1.92 444.84 L2.23 444.84 L1.92 441.23 L1.92 439.25
								 L3.58 439.25 ZM15.42 447.08 L22.39 447.08 L22.39 446.05 C22.39 445.36 22.97 444.84 23.69 444.84
								 L25.3 444.84 L25.3 442.05 L15.42 442.05 L15.42 442.05 L15.42 447.08 ZM4.29 438.56 L3.58 438.56 L1.92
								 438.56 L1.25 438.56 L1.25 439.25 L1.25 441.23 L1.25 441.27 L1.25 441.27 L1.47 444.15 L1.25 444.15
								 L1.25 444.84 L1.25 444.97 L1.25 446.22 L1.25 446.91 L1.92 446.91 L3.4 446.91 C2.99 447.25 2.77 447.72
								 2.77 448.24 L2.77 460.41 L0.09 465.23 L0 465.36 L0 465.53 L0 466.05 L0 466.48 L0.4 466.65 L1.47
								 467.16 L1.61 467.25 L1.79 467.25 L28.02 467.25 L28.2 467.25 L28.34 467.16 L29.41 466.65 L29.81 466.48
								 L29.81 466.05 L29.81 465.53 L29.81 465.36 L29.72 465.23 L27.04 460.24 L27.04 455.85 L28.07 455.85
								 C29.14 455.85 30.03 454.99 30.03 453.92 L30.03 446.05 C30.03 445.01 29.14 444.15 28.07 444.15 L27.08
								 444.15 L27.08 441.01 L27.08 440.33 L26.37 440.33 L4.29 440.33 L4.29 439.25 L4.29 438.56 L4.29 438.56
								 ZM4.16 442.73 L13.68 442.73 L13.68 446.39 L4.69 446.39 C4.56 446.39 4.42 446.43 4.29 446.43 L4.29
								 446.22 L4.29 444.97 L4.29 444.84 L4.29 444.15 L4.07 444.15 L4.16 442.73 L4.16 442.73 ZM16.13 442.73
								 L24.58 442.73 L24.58 444.15 L23.69 444.15 C22.57 444.15 21.68 444.97 21.68 446.05 L21.68 446.39
								 L16.13 446.39 L16.13 442.73 L16.13 442.73 Z" class="st12"/>
				</g>
				<g id="shape317-227" v:mID="317" v:groupContext="shape" transform="translate(41.8571,-38.9822)">
					<title>Sheet.317</title>
					<path d="M0 466.02 L0 467.25 L1.22 467.25 L1.22 466.02 L0 466.02 L0 466.02 Z" class="st13"/>
				</g>
				<g id="shape318-229" v:mID="318" v:groupContext="shape" transform="translate(41.8571,-41.3891)">
					<title>Sheet.318</title>
					<path d="M1.22 467.25 L1.22 466.02 L0.59 466.02 L0 466.02 L0 467.25 L0.59 467.25 L1.22 467.25 Z" class="st13"/>
				</g>
				<g id="shape319-231" v:mID="319" v:groupContext="shape" transform="translate(21.8476,-41.3891)">
					<title>Sheet.319</title>
					<path d="M0 466.02 L0 467.25 L1.22 467.25 L1.22 466.02 L0 466.02 L0 466.02 Z" class="st13"/>
				</g>
				<g id="shape320-233" v:mID="320" v:groupContext="shape" transform="translate(24.3488,-41.3891)">
					<title>Sheet.320</title>
					<path d="M0 466.02 L0 467.25 L1.22 467.25 L1.22 466.02 L0 466.02 L0 466.02 Z" class="st13"/>
				</g>
				<g id="shape321-235" v:mID="321" v:groupContext="shape" transform="translate(26.8499,-41.3891)">
					<title>Sheet.321</title>
					<path d="M0 466.02 L0 467.25 L1.22 467.25 L1.22 466.02 L0 466.02 L0 466.02 Z" class="st13"/>
				</g>
				<g id="shape322-237" v:mID="322" v:groupContext="shape" transform="translate(39.3559,-41.3891)">
					<title>Sheet.322</title>
					<path d="M0 466.02 L0 467.25 L1.22 467.25 L1.22 466.02 L0 466.02 L0 466.02 Z" class="st13"/>
				</g>
				<g id="shape323-239" v:mID="323" v:groupContext="shape" transform="translate(31.8523,-41.3891)">
					<title>Sheet.323</title>
					<path d="M0 466.02 L0 467.25 L1.22 467.25 L1.22 466.02 L0 466.02 L0 466.02 Z" class="st13"/>
				</g>
				<g id="shape324-241" v:mID="324" v:groupContext="shape" transform="translate(36.8547,-41.3891)">
					<title>Sheet.324</title>
					<path d="M0 466.02 L0 467.25 L1.22 467.25 L1.22 466.02 L0 466.02 L0 466.02 Z" class="st13"/>
				</g>
				<g id="shape325-243" v:mID="325" v:groupContext="shape" transform="translate(34.3535,-41.3891)">
					<title>Sheet.325</title>
					<path d="M0 466.02 L0 467.25 L1.22 467.25 L1.22 466.02 L0 466.02 L0 466.02 Z" class="st13"/>
				</g>
				<g id="shape326-245" v:mID="326" v:groupContext="shape" transform="translate(17.3241,-41.3891)">
					<title>Sheet.326</title>
					<path d="M0.11 466.33 L0.11 466.33 L0 467.25 L0.75 467.25 L0.75 466.02 L0.11 466.02 L0.11 466.28 L0.11 466.33
								 Z" class="st13"/>
				</g>
				<g id="shape327-247" v:mID="327" v:groupContext="shape" transform="translate(19.3464,-41.3891)">
					<title>Sheet.327</title>
					<path d="M0 466.02 L0 467.25 L1.22 467.25 L1.22 466.02 L0 466.02 L0 466.02 Z" class="st13"/>
				</g>
				<g id="shape328-249" v:mID="328" v:groupContext="shape" transform="translate(19.6657,-16.5519)">
					<title>Sheet.328</title>
					<path d="M0 466.02 L0 467.25 L20.59 467.25 L20.59 466.02 L0 466.02 L0 466.02 Z" class="st13"/>
				</g>
				<g id="shape329-251" v:mID="329" v:groupContext="shape" transform="translate(31.533,-34.1684)">
					<title>Sheet.329</title>
					<path d="M0 466.02 L0 467.25 L6.39 467.25 L6.39 466.02 L0 466.02 L0 466.02 Z" class="st13"/>
				</g>
				<g id="shape330-253" v:mID="330" v:groupContext="shape" transform="translate(13.0668,-12.199)">
					<title>Sheet.330</title>
					<path d="M29.27 459.57 L4.52 459.57 L4.52 445.43 C4.52 445.33 4.63 445.28 4.74 445.28 L15.33 445.28 L15.33 444.05
								 L4.74 444.05 C3.94 444.05 3.3 444.67 3.3 445.43 L3.3 460.13 L0 466.02 L0 466.02 L0 466.02 L0 466.64
								 L1.28 467.25 L1.28 467.25 L32.52 467.25 L32.52 467.25 L33.79 466.64 L33.79 466.02 L33.79 466.02
								 L33.79 466.02 L30.49 459.93 L30.49 454.6 L29.27 454.6 L29.27 459.57 ZM32.36 466.02 L1.44 466.02
								 L4.36 460.75 L29.54 460.75 L32.36 466.02 Z" class="st13"/>
				</g>
				<g id="shape331-255" v:mID="331" v:groupContext="shape" transform="translate(24.9341,-14.4523)">
					<title>Sheet.331</title>
					<path d="M0 466.02 L0 467.25 L10 467.25 L10 466.02 L0 466.02 L0 466.02 Z" class="st13"/>
				</g>
				<g id="shape332-257" v:mID="332" v:groupContext="shape" transform="translate(14.5037,-38.8285)">
					<title>Sheet.332</title>
					<path d="M0 463.72 L0.32 467.25 L1.7 467.25 L1.97 463.72 L1.97 461.36 L0 461.36 L0 463.72 Z" class="st13"/>
				</g>
				<g id="shape333-259" v:mID="333" v:groupContext="shape" transform="translate(14.5037,-36.4216)">
					<title>Sheet.333</title>
					<path d="M0 465.61 L0 465.76 L0 467.25 L1.97 467.25 L1.97 465.76 L1.97 465.61 L0 465.61 Z" class="st13"/>
				</g>
				<g id="shape334-261" v:mID="334" v:groupContext="shape" transform="translate(38.8769,-25.7698)">
					<title>Sheet.334</title>
					<path d="M6.76 454.96 L1.54 454.96 C0.69 454.96 0 455.57 0 456.39 L0 465.76 C0 466.58 0.69 467.25 1.54 467.25
								 L6.76 467.25 C7.61 467.25 8.3 466.58 8.3 465.76 L8.3 456.39 C8.3 455.57 7.61 454.96 6.76 454.96
								 ZM6.76 466.07 L1.54 466.07 C1.38 466.07 1.22 465.92 1.22 465.76 L1.22 465.15 L7.02 465.15 L7.02
								 465.76 C7.02 465.92 6.92 466.07 6.76 466.07 ZM1.22 463.97 L1.22 456.39 C1.22 456.24 1.38 456.14
								 1.54 456.14 L6.76 456.14 C6.92 456.14 7.02 456.24 7.02 456.39 L7.02 463.97 L1.22 463.97 Z"
							class="st13"/>
				</g>
				<g id="shape335-263" v:mID="335" v:groupContext="shape" transform="translate(42.4425,-31.7615)">
					<title>Sheet.335</title>
					<path d="M0 465 L0.21 467.25 L1.06 467.25 L1.28 465 L1.28 463.46 L0 463.46 L0 465 Z" class="st13"/>
				</g>
				<g id="shape336-265" v:mID="336" v:groupContext="shape" transform="translate(42.4425,-30.2763)">
					<title>Sheet.336</title>
					<path d="M0 466.23 L0 467.25 L1.28 467.25 L1.28 466.23 L0 466.23 L0 466.23 Z" class="st13"/>
				</g>
				<g id="shape337-267" v:mID="337" v:groupContext="shape" transform="translate(29.3511,-38.9822)">
					<title>Sheet.337</title>
					<path d="M0 466.02 L0 467.25 L1.22 467.25 L1.22 466.02 L0 466.02 L0 466.02 Z" class="st13"/>
				</g>
				<g id="shape338-269" v:mID="338" v:groupContext="shape" transform="translate(29.3511,-36.5753)">
					<title>Sheet.338</title>
					<path d="M0 466.02 L0 467.25 L1.22 467.25 L1.22 466.02 L0 466.02 L0 466.02 Z" class="st13"/>
				</g>
				<g id="shape339-271" v:mID="339" v:groupContext="shape" transform="translate(29.3511,-41.3891)">
					<title>Sheet.339</title>
					<path d="M0 467.25 L1.22 467.25 L1.22 467.25 L1.22 466.33 L1.22 466.02 L0 466.02 L0 466.33 L0 467.25 L0 467.25
								 Z" class="st13"/>
				</g>
				<g id="shape340-273" v:mID="340" v:groupContext="shape" transform="translate(29.3511,-34.1684)">
					<title>Sheet.340</title>
					<path d="M0 466.02 L0 467.25 L1.22 467.25 L1.22 466.02 L0 466.02 L0 466.02 Z" class="st13"/>
				</g>
				<g id="shape341-275" v:mID="341" v:groupContext="shape" transform="translate(28.5529,-24.5408)">
					<title>Sheet.341</title>
					<path d="M0.43 467.25 L2.39 467.25 L2.82 462.18 L2.82 460.03 L2.82 458.8 L0 458.8 L0 460.03 L0 462.18 L0.43 467.25
								 Z" class="st13"/>
				</g>
				<g id="shape342-277" v:mID="342" v:groupContext="shape" transform="translate(28.5529,-21.1096)">
					<title>Sheet.342</title>
					<path d="M0 464.84 L0 467.25 L2.82 467.25 L2.82 464.84 L0 464.84 L0 464.84 Z" class="st13"/>
				</g>
			</g>
			<g id="group343-279" v:mID="343" v:groupContext="group">
				<title>Sheet.343</title>
				<g id="shape281-280" v:mID="281" v:groupContext="shape">
					<title>Sheet.281</title>
					<desc>Alerts</desc>
					<v:textBlock v:margins="rect(4,4,4,4)"/>
					<v:textRect cx="29.25" cy="461.028" width="58.5" height="12.4444"/>
					<rect x="0" y="454.806" width="58.5" height="12.4444" class="st6"/>
					<text x="18.77" y="463.43" class="st7" v:langID="1033"><v:paragraph v:horizAlign="1" v:bulletSize="0.166667"/><v:tabList/>Alerts</text>				</g>
			</g>
		</g>
		<g id="shape345-283" v:mID="345" v:groupContext="shape" v:layerMember="1" transform="translate(368.649,-57.7222)">
			<title>Sheet.345</title>
			<path d="M0 458.25 L34.21 458.25" class="st14"/>
		</g>
		<g id="group346-289" transform="translate(540.106,-42.9824)" v:mID="346" v:groupContext="group">
			<title>Email Delivery.346</title>
			<g id="shape347-290" v:mID="347" v:groupContext="shape">
				<title>Sheet.347</title>
				<desc>Email Delivery</desc>
				<v:textBlock v:margins="rect(4,4,4,4)"/>
				<v:textRect cx="30.375" cy="460.788" width="60.75" height="12.9231"/>
				<rect x="0" y="454.327" width="60.75" height="12.9231" class="st6"/>
				<text x="4.73" y="463.19" class="st7" v:langID="1033"><v:paragraph v:horizAlign="1" v:bulletSize="0.166667"/><v:tabList/>Email Delivery</text>			</g>
			<g id="group348-293" transform="translate(4.19705,-11.8553)" v:mID="348" v:groupContext="group">
				<title>Email Delivery</title>
				<g id="group349-294" v:mID="349" v:groupContext="group">
					<title>Sheet.349</title>
					<g id="group350-295" v:mID="350" v:groupContext="group">
						<title>Sheet.350</title>
						<g id="shape351-296" v:mID="351" v:groupContext="shape" transform="translate(0.428234,-0.428234)">
							<title>Sheet.351</title>
							<path d="M35.75 467.25 L35.75 463.84 L6.59 463.84 L6.59 447.78 C2.81 447.17 0 443.89 0 440.01 C0 435.67
										 3.54 432.13 7.88 432.13 C10.8 432.13 13.52 433.8 14.86 436.39 L44.9 436.39 L44.9 451.5 L51.5
										 451.5 L51.5 467.25 L35.75 467.25 Z" class="st10"/>
						</g>
						<g id="shape352-298" v:mID="352" v:groupContext="shape">
							<title>Sheet.352</title>
							<path d="M8.31 432.13 C11.27 432.13 13.83 433.88 15.02 436.39 L44.9 436.39 L44.9 451.5 L51.5 451.5 L51.5
										 466.39 L36.61 466.39 L36.61 462.98 L7.45 462.98 L7.45 446.98 C3.74 446.55 0.86 443.4 0.86
										 439.59 C0.86 435.48 4.2 432.13 8.31 432.13 ZM8.31 431.28 C3.73 431.28 0 435 0 439.59 C0
										 443.55 2.78 446.92 6.59 447.71 L6.59 462.99 L6.59 463.85 L7.45 463.85 L35.75 463.85 L35.75
										 466.39 L35.75 467.25 L36.61 467.25 L51.5 467.25 L52.36 467.25 L52.36 466.39 L52.36 451.5
										 L52.36 450.64 L51.5 450.64 L45.76 450.64 L45.76 436.39 L45.76 435.54 L44.9 435.54 L15.54
										 435.54 C14.08 432.93 11.3 431.28 8.31 431.28 Z" class="st10"/>
						</g>
					</g>
					<g id="group353-300" transform="translate(0.856468,-0.856468)" v:mID="353" v:groupContext="group">
						<title>Sheet.353</title>
						<g id="shape354-301" v:mID="354" v:groupContext="shape" transform="translate(14.8512,-13.9176)">
							<title>Sheet.354</title>
							<path d="M25.9 452.87 L10.47 465.08 L0.77 457.4 C0.57 457.95 0.31 458.47 0 458.96 L10.47 467.25 L27.49
										 453.78 L27.49 465 L29.2 465 L29.2 451.17 L0.71 451.17 C0.92 451.71 1.09 452.28 1.19 452.87
										 L25.9 452.87 Z" class="st11"/>
						</g>
						<g id="shape355-303" v:mID="355" v:groupContext="shape" transform="translate(6.60337,-3.40018)">
							<title>Sheet.355</title>
							<path d="M1.7 465.55 L1.7 452.53 C1.41 452.55 1.13 452.57 0.85 452.57 C0.56 452.57 0.27 452.55 0 452.53
										 L0 467.25 L27.88 467.25 L27.88 465.55 L1.7 465.55 Z" class="st11"/>
						</g>
						<g id="shape356-305" v:mID="356" v:groupContext="shape" transform="translate(0,-19.3562)">
							<title>Sheet.356</title>
							<path d="M14.89 459.8 C14.89 455.7 11.55 452.35 7.44 452.35 C3.33 452.35 0 455.69 0 459.8 C0 463.91 3.34
										 467.25 7.45 467.25 C11.56 467.25 14.89 463.9 14.89 459.8 ZM7.45 454.05 C10.62 454.05 13.2
										 456.63 13.2 459.8 C13.2 462.97 10.61 465.54 7.45 465.54 C4.29 465.54 1.7 462.96 1.7 459.8
										 C1.7 456.64 4.28 454.05 7.45 454.05 Z" class="st11"/>
						</g>
						<g id="shape357-307" v:mID="357" v:groupContext="shape" transform="translate(3.4687,-22.5936)">
							<title>Sheet.357</title>
							<path d="M2.1 466.68 C2.75 467.06 3.46 467.25 4.22 467.25 C4.64 467.25 5.05 467.19 5.45 467.07 C5.85
										 466.95 6.22 466.77 6.57 466.53 L6.09 465.83 L5.98 465.9 C5.44 466.23 4.85 466.39 4.21 466.39
										 C3.6 466.39 3.03 466.24 2.51 465.94 C2 465.64 1.59 465.24 1.29 464.72 C0.99 464.2 0.84 463.64
										 0.84 463.02 C0.84 462.4 0.99 461.84 1.29 461.31 C1.59 460.8 2 460.4 2.51 460.1 C3.04 459.81
										 3.61 459.65 4.22 459.65 C4.84 459.65 5.4 459.81 5.93 460.11 C6.44 460.41 6.84 460.81 7.14
										 461.32 C7.44 461.85 7.6 462.41 7.6 463.03 L7.6 463.42 C7.58 463.59 7.51 463.74 7.39 463.85
										 C7.27 463.96 7.13 464.02 6.95 464.02 C6.75 464.02 6.59 463.93 6.44 463.75 C6.35 463.64 6.32
										 463.5 6.32 463.36 L6.32 460.9 L5.26 460.9 L5.26 461.34 C4.86 461.05 4.4 460.9 3.89 460.9
										 C3.48 460.9 3.09 461.01 2.75 461.2 C2.4 461.41 2.12 461.67 1.92 462.02 C1.72 462.35 1.62
										 462.73 1.62 463.13 C1.62 463.54 1.72 463.91 1.93 464.25 C2.13 464.59 2.41 464.86 2.75 465.06
										 C3.09 465.25 3.48 465.36 3.89 465.36 C4.26 465.36 4.61 465.28 4.92 465.12 C5.24 464.95 5.51
										 464.74 5.72 464.46 C5.87 464.6 6.04 464.71 6.23 464.79 C6.5 464.91 6.8 464.95 7.13 464.89
										 C7.22 464.88 7.31 464.85 7.41 464.82 C7.79 464.65 8.09 464.4 8.27 464.05 C8.38 463.86 8.44
										 463.52 8.44 463.31 L8.44 462.91 C8.42 462.16 8.21 461.47 7.83 460.83 C7.45 460.21 6.95 459.72
										 6.32 459.35 C5.67 458.99 4.98 458.8 4.22 458.8 C3.46 458.8 2.75 458.99 2.1 459.37 C1.46
										 459.76 0.94 460.26 0.57 460.9 C0.19 461.55 0 462.27 0 463.03 C0 463.79 0.19 464.5 0.57 465.15
										 C0.94 465.79 1.46 466.31 2.1 466.68 ZM5.19 463.7 C5.07 463.9 4.91 464.06 4.7 464.18 C4.5
										 464.3 4.27 464.36 4.03 464.36 C3.79 464.36 3.57 464.3 3.37 464.18 C3.16 464.06 3 463.9 2.88
										 463.7 C2.76 463.49 2.7 463.27 2.7 463.03 C2.7 462.79 2.76 462.57 2.88 462.36 C3 462.15 3.16
										 461.99 3.37 461.87 C3.57 461.75 3.79 461.69 4.03 461.69 C4.27 461.69 4.5 461.75 4.7 461.87
										 C4.91 461.99 5.07 462.15 5.19 462.36 C5.31 462.57 5.37 462.79 5.37 463.03 C5.38 463.27 5.32
										 463.49 5.19 463.7 Z" class="st11"/>
						</g>
						<g id="shape358-309" v:mID="358" v:groupContext="shape" transform="translate(35.749,5.68434E-14)">
							<title>Sheet.358</title>
							<path d="M0 452.36 L0 467.25 L14.89 467.25 L14.89 452.36 L0 452.36 ZM13.19 465.55 L1.7 465.55 L1.7 454.06
										 L13.2 454.06 L13.2 465.55 L13.19 465.55 Z" class="st11"/>
						</g>
						<g id="shape359-311" v:mID="359" v:groupContext="shape" transform="translate(38.738,-3.20319)">
							<title>Sheet.359</title>
							<path d="M2.97 458.96 L2.97 460.12 C2.81 460.19 2.66 460.27 2.52 460.37 L1.28 459.64 L0 461.82 L1.12
										 462.48 C1.08 462.69 1.06 462.89 1.06 463.11 C1.06 463.21 1.07 463.29 1.08 463.38 L0.01 464
										 L1.28 466.18 L2.24 465.62 C2.46 465.81 2.71 465.97 2.98 466.09 L2.98 467.25 L5.75 467.25
										 L5.75 466.09 C6.02 465.97 6.27 465.81 6.49 465.62 L7.44 466.18 L8.72 464 L7.65 463.38 C7.66
										 463.29 7.67 463.2 7.67 463.11 C7.67 462.9 7.64 462.69 7.61 462.48 L8.73 461.82 L7.45 459.64
										 L6.21 460.37 C6.06 460.28 5.91 460.19 5.76 460.12 L5.76 458.96 L2.97 458.96 ZM4.35 464.71
										 C3.47 464.71 2.76 463.99 2.76 463.11 C2.76 462.23 3.48 461.52 4.35 461.52 C5.23 461.52 5.94
										 462.24 5.94 463.11 C5.94 464 5.23 464.71 4.35 464.71 Z" class="st11"/>
						</g>
					</g>
				</g>
			</g>
		</g>
		<g id="group360-313" transform="translate(459.973,-42.6351)" v:mID="360" v:groupContext="group">
			<title>Sheet.360</title>
			<g id="group361-314" v:mID="361" v:groupContext="group">
				<title>Sheet.361</title>
				<g id="shape362-315" v:mID="362" v:groupContext="shape" transform="translate(30.1494,-34.9877)">
					<title>Sheet.362</title>
					<path d="M0 467.25 L0 460.44 L12.61 460.44 L12.61 464.54 L10.27 464.54 C9.63 464.54 9.15 465.05 9.15 465.61 L9.15
								 467.25 L0 467.25 Z" class="st12"/>
				</g>
				<g id="shape363-317" v:mID="363" v:groupContext="shape" transform="translate(29.7236,-34.578)">
					<title>Sheet.363</title>
					<path d="M12.61 460.44 L12.61 463.72 L10.7 463.72 C9.85 463.72 9.15 464.38 9.15 465.2 L9.15 466.43 L0.85 466.43
								 L0.85 460.44 L0.85 460.44 L12.61 460.44 ZM13.46 459.62 L12.61 459.62 L0.85 459.62 L0 459.62 L0 460.44
								 L0 466.43 L0 467.25 L0.85 467.25 L9.15 467.25 L10 467.25 L10 466.43 L10 465.2 C10 464.84 10.27 464.54
								 10.7 464.54 L12.61 464.54 L13.46 464.54 L13.46 463.77 L13.46 460.44 L13.46 459.62 L13.46 459.62
								 Z" class="st12"/>
				</g>
				<g id="shape364-319" v:mID="364" v:groupContext="shape" transform="translate(12.6411,-11.7893)">
					<title>Sheet.364</title>
					<path d="M1.6 467.25 L0 466.48 L0 465.51 L3.3 459.62 L3.3 445.02 C3.3 444.05 4.1 443.23 5.16 443.23 L16.28 443.23
								 L16.28 438.06 L4.15 438.06 L3.94 440.57 L4.26 440.57 L4.26 443.03 L1.49 443.03 L1.49 440.57 L1.81
								 440.57 L1.49 436.73 L1.49 433.91 L4.26 433.91 L4.26 436.01 L31.4 436.01 L31.4 440.57 L32.99 440.57
								 C34.06 440.57 34.96 441.39 34.96 442.41 L34.96 451.78 C34.96 452.86 34.06 453.68 32.99 453.68 L31.34
								 453.68 L31.34 459.41 L34.64 465.51 L34.64 466.48 L33.05 467.25 L1.6 467.25 ZM25.81 443.23 L25.81
								 442.41 C25.81 441.39 26.71 440.57 27.78 440.57 L29.27 440.57 L29.27 438.06 L18.36 438.06 L18.36
								 443.23 L25.81 443.23 Z" class="st12"/>
				</g>
				<g id="shape365-321" v:mID="365" v:groupContext="shape" transform="translate(12.2153,-11.3796)">
					<title>Sheet.365</title>
					<path d="M3.58 439.25 L3.58 441.01 L26.37 441.01 L26.37 444.84 L28.07 444.84 C28.78 444.84 29.36 445.36 29.36
								 446.05 L29.36 453.92 C29.36 454.61 28.78 455.16 28.07 455.16 L26.33 455.16 L26.33 460.41 L29.1 465.53
								 L29.1 465.53 L29.1 465.53 L29.1 466.05 L28.02 466.56 L28.02 466.56 L1.79 466.56 L1.79 466.56 L0.72
								 466.05 L0.72 465.53 L0.72 465.53 L0.72 465.53 L3.49 460.58 L3.49 448.24 C3.49 447.59 4.02 447.08
								 4.69 447.08 L14.39 447.08 L14.39 442.05 L14.39 442.05 L3.53 442.05 L3.26 444.84 L3.58 444.84 L3.58
								 444.97 L3.58 446.22 L1.92 446.22 L1.92 444.97 L1.92 444.84 L2.23 444.84 L1.92 441.23 L1.92 439.25
								 L3.58 439.25 ZM15.42 447.08 L22.39 447.08 L22.39 446.05 C22.39 445.36 22.97 444.84 23.69 444.84
								 L25.3 444.84 L25.3 442.05 L15.42 442.05 L15.42 442.05 L15.42 447.08 ZM4.29 438.56 L3.58 438.56 L1.92
								 438.56 L1.25 438.56 L1.25 439.25 L1.25 441.23 L1.25 441.27 L1.25 441.27 L1.47 444.15 L1.25 444.15
								 L1.25 444.84 L1.25 444.97 L1.25 446.22 L1.25 446.91 L1.92 446.91 L3.4 446.91 C2.99 447.25 2.77 447.72
								 2.77 448.24 L2.77 460.41 L0.09 465.23 L0 465.36 L0 465.53 L0 466.05 L0 466.48 L0.4 466.65 L1.47
								 467.16 L1.61 467.25 L1.79 467.25 L28.02 467.25 L28.2 467.25 L28.34 467.16 L29.41 466.65 L29.81 466.48
								 L29.81 466.05 L29.81 465.53 L29.81 465.36 L29.72 465.23 L27.04 460.24 L27.04 455.85 L28.07 455.85
								 C29.14 455.85 30.03 454.99 30.03 453.92 L30.03 446.05 C30.03 445.01 29.14 444.15 28.07 444.15 L27.08
								 444.15 L27.08 441.01 L27.08 440.33 L26.37 440.33 L4.29 440.33 L4.29 439.25 L4.29 438.56 L4.29 438.56
								 ZM4.16 442.73 L13.68 442.73 L13.68 446.39 L4.69 446.39 C4.56 446.39 4.42 446.43 4.29 446.43 L4.29
								 446.22 L4.29 444.97 L4.29 444.84 L4.29 444.15 L4.07 444.15 L4.16 442.73 L4.16 442.73 ZM16.13 442.73
								 L24.58 442.73 L24.58 444.15 L23.69 444.15 C22.57 444.15 21.68 444.97 21.68 446.05 L21.68 446.39
								 L16.13 446.39 L16.13 442.73 L16.13 442.73 Z" class="st12"/>
				</g>
				<g id="shape366-323" v:mID="366" v:groupContext="shape" transform="translate(41.8571,-38.9822)">
					<title>Sheet.366</title>
					<path d="M0 466.02 L0 467.25 L1.22 467.25 L1.22 466.02 L0 466.02 L0 466.02 Z" class="st13"/>
				</g>
				<g id="shape367-325" v:mID="367" v:groupContext="shape" transform="translate(41.8571,-41.3891)">
					<title>Sheet.367</title>
					<path d="M1.22 467.25 L1.22 466.02 L0.59 466.02 L0 466.02 L0 467.25 L0.59 467.25 L1.22 467.25 Z" class="st13"/>
				</g>
				<g id="shape368-327" v:mID="368" v:groupContext="shape" transform="translate(21.8476,-41.3891)">
					<title>Sheet.368</title>
					<path d="M0 466.02 L0 467.25 L1.22 467.25 L1.22 466.02 L0 466.02 L0 466.02 Z" class="st13"/>
				</g>
				<g id="shape369-329" v:mID="369" v:groupContext="shape" transform="translate(24.3488,-41.3891)">
					<title>Sheet.369</title>
					<path d="M0 466.02 L0 467.25 L1.22 467.25 L1.22 466.02 L0 466.02 L0 466.02 Z" class="st13"/>
				</g>
				<g id="shape370-331" v:mID="370" v:groupContext="shape" transform="translate(26.8499,-41.3891)">
					<title>Sheet.370</title>
					<path d="M0 466.02 L0 467.25 L1.22 467.25 L1.22 466.02 L0 466.02 L0 466.02 Z" class="st13"/>
				</g>
				<g id="shape371-333" v:mID="371" v:groupContext="shape" transform="translate(39.3559,-41.3891)">
					<title>Sheet.371</title>
					<path d="M0 466.02 L0 467.25 L1.22 467.25 L1.22 466.02 L0 466.02 L0 466.02 Z" class="st13"/>
				</g>
				<g id="shape372-335" v:mID="372" v:groupContext="shape" transform="translate(31.8523,-41.3891)">
					<title>Sheet.372</title>
					<path d="M0 466.02 L0 467.25 L1.22 467.25 L1.22 466.02 L0 466.02 L0 466.02 Z" class="st13"/>
				</g>
				<g id="shape373-337" v:mID="373" v:groupContext="shape" transform="translate(36.8547,-41.3891)">
					<title>Sheet.373</title>
					<path d="M0 466.02 L0 467.25 L1.22 467.25 L1.22 466.02 L0 466.02 L0 466.02 Z" class="st13"/>
				</g>
				<g id="shape374-339" v:mID="374" v:groupContext="shape" transform="translate(34.3535,-41.3891)">
					<title>Sheet.374</title>
					<path d="M0 466.02 L0 467.25 L1.22 467.25 L1.22 466.02 L0 466.02 L0 466.02 Z" class="st13"/>
				</g>
				<g id="shape375-341" v:mID="375" v:groupContext="shape" transform="translate(17.3241,-41.3891)">
					<title>Sheet.375</title>
					<path d="M0.11 466.33 L0.11 466.33 L0 467.25 L0.75 467.25 L0.75 466.02 L0.11 466.02 L0.11 466.28 L0.11 466.33
								 Z" class="st13"/>
				</g>
				<g id="shape376-343" v:mID="376" v:groupContext="shape" transform="translate(19.3464,-41.3891)">
					<title>Sheet.376</title>
					<path d="M0 466.02 L0 467.25 L1.22 467.25 L1.22 466.02 L0 466.02 L0 466.02 Z" class="st13"/>
				</g>
				<g id="shape377-345" v:mID="377" v:groupContext="shape" transform="translate(19.6657,-16.5519)">
					<title>Sheet.377</title>
					<path d="M0 466.02 L0 467.25 L20.59 467.25 L20.59 466.02 L0 466.02 L0 466.02 Z" class="st13"/>
				</g>
				<g id="shape378-347" v:mID="378" v:groupContext="shape" transform="translate(31.533,-34.1684)">
					<title>Sheet.378</title>
					<path d="M0 466.02 L0 467.25 L6.39 467.25 L6.39 466.02 L0 466.02 L0 466.02 Z" class="st13"/>
				</g>
				<g id="shape379-349" v:mID="379" v:groupContext="shape" transform="translate(13.0668,-12.199)">
					<title>Sheet.379</title>
					<path d="M29.27 459.57 L4.52 459.57 L4.52 445.43 C4.52 445.33 4.63 445.28 4.74 445.28 L15.33 445.28 L15.33 444.05
								 L4.74 444.05 C3.94 444.05 3.3 444.67 3.3 445.43 L3.3 460.13 L0 466.02 L0 466.02 L0 466.02 L0 466.64
								 L1.28 467.25 L1.28 467.25 L32.52 467.25 L32.52 467.25 L33.79 466.64 L33.79 466.02 L33.79 466.02
								 L33.79 466.02 L30.49 459.93 L30.49 454.6 L29.27 454.6 L29.27 459.57 ZM32.36 466.02 L1.44 466.02
								 L4.36 460.75 L29.54 460.75 L32.36 466.02 Z" class="st13"/>
				</g>
				<g id="shape380-351" v:mID="380" v:groupContext="shape" transform="translate(24.9341,-14.4523)">
					<title>Sheet.380</title>
					<path d="M0 466.02 L0 467.25 L10 467.25 L10 466.02 L0 466.02 L0 466.02 Z" class="st13"/>
				</g>
				<g id="shape381-353" v:mID="381" v:groupContext="shape" transform="translate(14.5037,-38.8285)">
					<title>Sheet.381</title>
					<path d="M0 463.72 L0.32 467.25 L1.7 467.25 L1.97 463.72 L1.97 461.36 L0 461.36 L0 463.72 Z" class="st13"/>
				</g>
				<g id="shape382-355" v:mID="382" v:groupContext="shape" transform="translate(14.5037,-36.4216)">
					<title>Sheet.382</title>
					<path d="M0 465.61 L0 465.76 L0 467.25 L1.97 467.25 L1.97 465.76 L1.97 465.61 L0 465.61 Z" class="st13"/>
				</g>
				<g id="shape383-357" v:mID="383" v:groupContext="shape" transform="translate(38.8769,-25.7698)">
					<title>Sheet.383</title>
					<path d="M6.76 454.96 L1.54 454.96 C0.69 454.96 0 455.57 0 456.39 L0 465.76 C0 466.58 0.69 467.25 1.54 467.25
								 L6.76 467.25 C7.61 467.25 8.3 466.58 8.3 465.76 L8.3 456.39 C8.3 455.57 7.61 454.96 6.76 454.96
								 ZM6.76 466.07 L1.54 466.07 C1.38 466.07 1.22 465.92 1.22 465.76 L1.22 465.15 L7.02 465.15 L7.02
								 465.76 C7.02 465.92 6.92 466.07 6.76 466.07 ZM1.22 463.97 L1.22 456.39 C1.22 456.24 1.38 456.14
								 1.54 456.14 L6.76 456.14 C6.92 456.14 7.02 456.24 7.02 456.39 L7.02 463.97 L1.22 463.97 Z"
							class="st13"/>
				</g>
				<g id="shape384-359" v:mID="384" v:groupContext="shape" transform="translate(42.4425,-31.7615)">
					<title>Sheet.384</title>
					<path d="M0 465 L0.21 467.25 L1.06 467.25 L1.28 465 L1.28 463.46 L0 463.46 L0 465 Z" class="st13"/>
				</g>
				<g id="shape385-361" v:mID="385" v:groupContext="shape" transform="translate(42.4425,-30.2763)">
					<title>Sheet.385</title>
					<path d="M0 466.23 L0 467.25 L1.28 467.25 L1.28 466.23 L0 466.23 L0 466.23 Z" class="st13"/>
				</g>
				<g id="shape386-363" v:mID="386" v:groupContext="shape" transform="translate(29.3511,-38.9822)">
					<title>Sheet.386</title>
					<path d="M0 466.02 L0 467.25 L1.22 467.25 L1.22 466.02 L0 466.02 L0 466.02 Z" class="st13"/>
				</g>
				<g id="shape387-365" v:mID="387" v:groupContext="shape" transform="translate(29.3511,-36.5753)">
					<title>Sheet.387</title>
					<path d="M0 466.02 L0 467.25 L1.22 467.25 L1.22 466.02 L0 466.02 L0 466.02 Z" class="st13"/>
				</g>
				<g id="shape388-367" v:mID="388" v:groupContext="shape" transform="translate(29.3511,-41.3891)">
					<title>Sheet.388</title>
					<path d="M0 467.25 L1.22 467.25 L1.22 467.25 L1.22 466.33 L1.22 466.02 L0 466.02 L0 466.33 L0 467.25 L0 467.25
								 Z" class="st13"/>
				</g>
				<g id="shape389-369" v:mID="389" v:groupContext="shape" transform="translate(29.3511,-34.1684)">
					<title>Sheet.389</title>
					<path d="M0 466.02 L0 467.25 L1.22 467.25 L1.22 466.02 L0 466.02 L0 466.02 Z" class="st13"/>
				</g>
				<g id="shape390-371" v:mID="390" v:groupContext="shape" transform="translate(28.5529,-24.5408)">
					<title>Sheet.390</title>
					<path d="M0.43 467.25 L2.39 467.25 L2.82 462.18 L2.82 460.03 L2.82 458.8 L0 458.8 L0 460.03 L0 462.18 L0.43 467.25
								 Z" class="st13"/>
				</g>
				<g id="shape391-373" v:mID="391" v:groupContext="shape" transform="translate(28.5529,-21.1096)">
					<title>Sheet.391</title>
					<path d="M0 464.84 L0 467.25 L2.82 467.25 L2.82 464.84 L0 464.84 L0 464.84 Z" class="st13"/>
				</g>
			</g>
			<g id="group392-375" v:mID="392" v:groupContext="group">
				<title>Sheet.392</title>
				<g id="shape393-376" v:mID="393" v:groupContext="shape">
					<title>Sheet.393</title>
					<desc>Alerts</desc>
					<v:textBlock v:margins="rect(4,4,4,4)"/>
					<v:textRect cx="29.25" cy="461.028" width="58.5" height="12.4444"/>
					<rect x="0" y="454.806" width="58.5" height="12.4444" class="st6"/>
					<text x="18.77" y="463.43" class="st7" v:langID="1033"><v:paragraph v:horizAlign="1" v:bulletSize="0.166667"/><v:tabList/>Alerts</text>				</g>
			</g>
		</g>
		<g id="shape394-379" v:mID="394" v:groupContext="shape" v:layerMember="1" transform="translate(511.266,-58.8573)">
			<title>Sheet.394</title>
			<path d="M0 458.25 L34.21 458.25" class="st14"/>
		</g>
		<g id="group395-384" transform="translate(680.989,-42.9824)" v:mID="395" v:groupContext="group">
			<title>Email Delivery.395</title>
			<g id="shape396-385" v:mID="396" v:groupContext="shape">
				<title>Sheet.396</title>
				<desc>Email Delivery</desc>
				<v:textBlock v:margins="rect(4,4,4,4)"/>
				<v:textRect cx="30.375" cy="460.788" width="60.75" height="12.9231"/>
				<rect x="0" y="454.327" width="60.75" height="12.9231" class="st6"/>
				<text x="4.73" y="463.19" class="st7" v:langID="1033"><v:paragraph v:horizAlign="1" v:bulletSize="0.166667"/><v:tabList/>Email Delivery</text>			</g>
			<g id="group397-388" transform="translate(4.19705,-11.8553)" v:mID="397" v:groupContext="group">
				<title>Email Delivery</title>
				<g id="group398-389" v:mID="398" v:groupContext="group">
					<title>Sheet.398</title>
					<g id="group399-390" v:mID="399" v:groupContext="group">
						<title>Sheet.399</title>
						<g id="shape400-391" v:mID="400" v:groupContext="shape" transform="translate(0.428234,-0.428234)">
							<title>Sheet.400</title>
							<path d="M35.75 467.25 L35.75 463.84 L6.59 463.84 L6.59 447.78 C2.81 447.17 0 443.89 0 440.01 C0 435.67
										 3.54 432.13 7.88 432.13 C10.8 432.13 13.52 433.8 14.86 436.39 L44.9 436.39 L44.9 451.5 L51.5
										 451.5 L51.5 467.25 L35.75 467.25 Z" class="st10"/>
						</g>
						<g id="shape401-393" v:mID="401" v:groupContext="shape">
							<title>Sheet.401</title>
							<path d="M8.31 432.13 C11.27 432.13 13.83 433.88 15.02 436.39 L44.9 436.39 L44.9 451.5 L51.5 451.5 L51.5
										 466.39 L36.61 466.39 L36.61 462.98 L7.45 462.98 L7.45 446.98 C3.74 446.55 0.86 443.4 0.86
										 439.59 C0.86 435.48 4.2 432.13 8.31 432.13 ZM8.31 431.28 C3.73 431.28 0 435 0 439.59 C0
										 443.55 2.78 446.92 6.59 447.71 L6.59 462.99 L6.59 463.85 L7.45 463.85 L35.75 463.85 L35.75
										 466.39 L35.75 467.25 L36.61 467.25 L51.5 467.25 L52.36 467.25 L52.36 466.39 L52.36 451.5
										 L52.36 450.64 L51.5 450.64 L45.76 450.64 L45.76 436.39 L45.76 435.54 L44.9 435.54 L15.54
										 435.54 C14.08 432.93 11.3 431.28 8.31 431.28 Z" class="st10"/>
						</g>
					</g>
					<g id="group402-395" transform="translate(0.856468,-0.856468)" v:mID="402" v:groupContext="group">
						<title>Sheet.402</title>
						<g id="shape403-396" v:mID="403" v:groupContext="shape" transform="translate(14.8512,-13.9176)">
							<title>Sheet.403</title>
							<path d="M25.9 452.87 L10.47 465.08 L0.77 457.4 C0.57 457.95 0.31 458.47 0 458.96 L10.47 467.25 L27.49
										 453.78 L27.49 465 L29.2 465 L29.2 451.17 L0.71 451.17 C0.92 451.71 1.09 452.28 1.19 452.87
										 L25.9 452.87 Z" class="st11"/>
						</g>
						<g id="shape404-398" v:mID="404" v:groupContext="shape" transform="translate(6.60337,-3.40018)">
							<title>Sheet.404</title>
							<path d="M1.7 465.55 L1.7 452.53 C1.41 452.55 1.13 452.57 0.85 452.57 C0.56 452.57 0.27 452.55 0 452.53
										 L0 467.25 L27.88 467.25 L27.88 465.55 L1.7 465.55 Z" class="st11"/>
						</g>
						<g id="shape405-400" v:mID="405" v:groupContext="shape" transform="translate(0,-19.3562)">
							<title>Sheet.405</title>
							<path d="M14.89 459.8 C14.89 455.7 11.55 452.35 7.44 452.35 C3.33 452.35 0 455.69 0 459.8 C0 463.91 3.34
										 467.25 7.45 467.25 C11.56 467.25 14.89 463.9 14.89 459.8 ZM7.45 454.05 C10.62 454.05 13.2
										 456.63 13.2 459.8 C13.2 462.97 10.61 465.54 7.45 465.54 C4.29 465.54 1.7 462.96 1.7 459.8
										 C1.7 456.64 4.28 454.05 7.45 454.05 Z" class="st11"/>
						</g>
						<g id="shape406-402" v:mID="406" v:groupContext="shape" transform="translate(3.4687,-22.5936)">
							<title>Sheet.406</title>
							<path d="M2.1 466.68 C2.75 467.06 3.46 467.25 4.22 467.25 C4.64 467.25 5.05 467.19 5.45 467.07 C5.85
										 466.95 6.22 466.77 6.57 466.53 L6.09 465.83 L5.98 465.9 C5.44 466.23 4.85 466.39 4.21 466.39
										 C3.6 466.39 3.03 466.24 2.51 465.94 C2 465.64 1.59 465.24 1.29 464.72 C0.99 464.2 0.84 463.64
										 0.84 463.02 C0.84 462.4 0.99 461.84 1.29 461.31 C1.59 460.8 2 460.4 2.51 460.1 C3.04 459.81
										 3.61 459.65 4.22 459.65 C4.84 459.65 5.4 459.81 5.93 460.11 C6.44 460.41 6.84 460.81 7.14
										 461.32 C7.44 461.85 7.6 462.41 7.6 463.03 L7.6 463.42 C7.58 463.59 7.51 463.74 7.39 463.85
										 C7.27 463.96 7.13 464.02 6.95 464.02 C6.75 464.02 6.59 463.93 6.44 463.75 C6.35 463.64 6.32
										 463.5 6.32 463.36 L6.32 460.9 L5.26 460.9 L5.26 461.34 C4.86 461.05 4.4 460.9 3.89 460.9
										 C3.48 460.9 3.09 461.01 2.75 461.2 C2.4 461.41 2.12 461.67 1.92 462.02 C1.72 462.35 1.62
										 462.73 1.62 463.13 C1.62 463.54 1.72 463.91 1.93 464.25 C2.13 464.59 2.41 464.86 2.75 465.06
										 C3.09 465.25 3.48 465.36 3.89 465.36 C4.26 465.36 4.61 465.28 4.92 465.12 C5.24 464.95 5.51
										 464.74 5.72 464.46 C5.87 464.6 6.04 464.71 6.23 464.79 C6.5 464.91 6.8 464.95 7.13 464.89
										 C7.22 464.88 7.31 464.85 7.41 464.82 C7.79 464.65 8.09 464.4 8.27 464.05 C8.38 463.86 8.44
										 463.52 8.44 463.31 L8.44 462.91 C8.42 462.16 8.21 461.47 7.83 460.83 C7.45 460.21 6.95 459.72
										 6.32 459.35 C5.67 458.99 4.98 458.8 4.22 458.8 C3.46 458.8 2.75 458.99 2.1 459.37 C1.46
										 459.76 0.94 460.26 0.57 460.9 C0.19 461.55 0 462.27 0 463.03 C0 463.79 0.19 464.5 0.57 465.15
										 C0.94 465.79 1.46 466.31 2.1 466.68 ZM5.19 463.7 C5.07 463.9 4.91 464.06 4.7 464.18 C4.5
										 464.3 4.27 464.36 4.03 464.36 C3.79 464.36 3.57 464.3 3.37 464.18 C3.16 464.06 3 463.9 2.88
										 463.7 C2.76 463.49 2.7 463.27 2.7 463.03 C2.7 462.79 2.76 462.57 2.88 462.36 C3 462.15 3.16
										 461.99 3.37 461.87 C3.57 461.75 3.79 461.69 4.03 461.69 C4.27 461.69 4.5 461.75 4.7 461.87
										 C4.91 461.99 5.07 462.15 5.19 462.36 C5.31 462.57 5.37 462.79 5.37 463.03 C5.38 463.27 5.32
										 463.49 5.19 463.7 Z" class="st11"/>
						</g>
						<g id="shape407-404" v:mID="407" v:groupContext="shape" transform="translate(35.749,5.68434E-14)">
							<title>Sheet.407</title>
							<path d="M0 452.36 L0 467.25 L14.89 467.25 L14.89 452.36 L0 452.36 ZM13.19 465.55 L1.7 465.55 L1.7 454.06
										 L13.2 454.06 L13.2 465.55 L13.19 465.55 Z" class="st11"/>
						</g>
						<g id="shape408-406" v:mID="408" v:groupContext="shape" transform="translate(38.738,-3.20319)">
							<title>Sheet.408</title>
							<path d="M2.97 458.96 L2.97 460.12 C2.81 460.19 2.66 460.27 2.52 460.37 L1.28 459.64 L0 461.82 L1.12
										 462.48 C1.08 462.69 1.06 462.89 1.06 463.11 C1.06 463.21 1.07 463.29 1.08 463.38 L0.01 464
										 L1.28 466.18 L2.24 465.62 C2.46 465.81 2.71 465.97 2.98 466.09 L2.98 467.25 L5.75 467.25
										 L5.75 466.09 C6.02 465.97 6.27 465.81 6.49 465.62 L7.44 466.18 L8.72 464 L7.65 463.38 C7.66
										 463.29 7.67 463.2 7.67 463.11 C7.67 462.9 7.64 462.69 7.61 462.48 L8.73 461.82 L7.45 459.64
										 L6.21 460.37 C6.06 460.28 5.91 460.19 5.76 460.12 L5.76 458.96 L2.97 458.96 ZM4.35 464.71
										 C3.47 464.71 2.76 463.99 2.76 463.11 C2.76 462.23 3.48 461.52 4.35 461.52 C5.23 461.52 5.94
										 462.24 5.94 463.11 C5.94 464 5.23 464.71 4.35 464.71 Z" class="st11"/>
						</g>
					</g>
				</g>
			</g>
		</g>
		<g id="group409-408" transform="translate(600.856,-42.6351)" v:mID="409" v:groupContext="group">
			<title>Sheet.409</title>
			<g id="group410-409" v:mID="410" v:groupContext="group">
				<title>Sheet.410</title>
				<g id="shape411-410" v:mID="411" v:groupContext="shape" transform="translate(30.1494,-34.9877)">
					<title>Sheet.411</title>
					<path d="M0 467.25 L0 460.44 L12.61 460.44 L12.61 464.54 L10.27 464.54 C9.63 464.54 9.15 465.05 9.15 465.61 L9.15
								 467.25 L0 467.25 Z" class="st12"/>
				</g>
				<g id="shape412-412" v:mID="412" v:groupContext="shape" transform="translate(29.7236,-34.578)">
					<title>Sheet.412</title>
					<path d="M12.61 460.44 L12.61 463.72 L10.7 463.72 C9.85 463.72 9.15 464.38 9.15 465.2 L9.15 466.43 L0.85 466.43
								 L0.85 460.44 L0.85 460.44 L12.61 460.44 ZM13.46 459.62 L12.61 459.62 L0.85 459.62 L0 459.62 L0 460.44
								 L0 466.43 L0 467.25 L0.85 467.25 L9.15 467.25 L10 467.25 L10 466.43 L10 465.2 C10 464.84 10.27 464.54
								 10.7 464.54 L12.61 464.54 L13.46 464.54 L13.46 463.77 L13.46 460.44 L13.46 459.62 L13.46 459.62
								 Z" class="st12"/>
				</g>
				<g id="shape413-414" v:mID="413" v:groupContext="shape" transform="translate(12.6411,-11.7893)">
					<title>Sheet.413</title>
					<path d="M1.6 467.25 L0 466.48 L0 465.51 L3.3 459.62 L3.3 445.02 C3.3 444.05 4.1 443.23 5.16 443.23 L16.28 443.23
								 L16.28 438.06 L4.15 438.06 L3.94 440.57 L4.26 440.57 L4.26 443.03 L1.49 443.03 L1.49 440.57 L1.81
								 440.57 L1.49 436.73 L1.49 433.91 L4.26 433.91 L4.26 436.01 L31.4 436.01 L31.4 440.57 L32.99 440.57
								 C34.06 440.57 34.96 441.39 34.96 442.41 L34.96 451.78 C34.96 452.86 34.06 453.68 32.99 453.68 L31.34
								 453.68 L31.34 459.41 L34.64 465.51 L34.64 466.48 L33.05 467.25 L1.6 467.25 ZM25.81 443.23 L25.81
								 442.41 C25.81 441.39 26.71 440.57 27.78 440.57 L29.27 440.57 L29.27 438.06 L18.36 438.06 L18.36
								 443.23 L25.81 443.23 Z" class="st12"/>
				</g>
				<g id="shape414-416" v:mID="414" v:groupContext="shape" transform="translate(12.2153,-11.3796)">
					<title>Sheet.414</title>
					<path d="M3.58 439.25 L3.58 441.01 L26.37 441.01 L26.37 444.84 L28.07 444.84 C28.78 444.84 29.36 445.36 29.36
								 446.05 L29.36 453.92 C29.36 454.61 28.78 455.16 28.07 455.16 L26.33 455.16 L26.33 460.41 L29.1 465.53
								 L29.1 465.53 L29.1 465.53 L29.1 466.05 L28.02 466.56 L28.02 466.56 L1.79 466.56 L1.79 466.56 L0.72
								 466.05 L0.72 465.53 L0.72 465.53 L0.72 465.53 L3.49 460.58 L3.49 448.24 C3.49 447.59 4.02 447.08
								 4.69 447.08 L14.39 447.08 L14.39 442.05 L14.39 442.05 L3.53 442.05 L3.26 444.84 L3.58 444.84 L3.58
								 444.97 L3.58 446.22 L1.92 446.22 L1.92 444.97 L1.92 444.84 L2.23 444.84 L1.92 441.23 L1.92 439.25
								 L3.58 439.25 ZM15.42 447.08 L22.39 447.08 L22.39 446.05 C22.39 445.36 22.97 444.84 23.69 444.84
								 L25.3 444.84 L25.3 442.05 L15.42 442.05 L15.42 442.05 L15.42 447.08 ZM4.29 438.56 L3.58 438.56 L1.92
								 438.56 L1.25 438.56 L1.25 439.25 L1.25 441.23 L1.25 441.27 L1.25 441.27 L1.47 444.15 L1.25 444.15
								 L1.25 444.84 L1.25 444.97 L1.25 446.22 L1.25 446.91 L1.92 446.91 L3.4 446.91 C2.99 447.25 2.77 447.72
								 2.77 448.24 L2.77 460.41 L0.09 465.23 L0 465.36 L0 465.53 L0 466.05 L0 466.48 L0.4 466.65 L1.47
								 467.16 L1.61 467.25 L1.79 467.25 L28.02 467.25 L28.2 467.25 L28.34 467.16 L29.41 466.65 L29.81 466.48
								 L29.81 466.05 L29.81 465.53 L29.81 465.36 L29.72 465.23 L27.04 460.24 L27.04 455.85 L28.07 455.85
								 C29.14 455.85 30.03 454.99 30.03 453.92 L30.03 446.05 C30.03 445.01 29.14 444.15 28.07 444.15 L27.08
								 444.15 L27.08 441.01 L27.08 440.33 L26.37 440.33 L4.29 440.33 L4.29 439.25 L4.29 438.56 L4.29 438.56
								 ZM4.16 442.73 L13.68 442.73 L13.68 446.39 L4.69 446.39 C4.56 446.39 4.42 446.43 4.29 446.43 L4.29
								 446.22 L4.29 444.97 L4.29 444.84 L4.29 444.15 L4.07 444.15 L4.16 442.73 L4.16 442.73 ZM16.13 442.73
								 L24.58 442.73 L24.58 444.15 L23.69 444.15 C22.57 444.15 21.68 444.97 21.68 446.05 L21.68 446.39
								 L16.13 446.39 L16.13 442.73 L16.13 442.73 Z" class="st12"/>
				</g>
				<g id="shape415-418" v:mID="415" v:groupContext="shape" transform="translate(41.8571,-38.9822)">
					<title>Sheet.415</title>
					<path d="M0 466.02 L0 467.25 L1.22 467.25 L1.22 466.02 L0 466.02 L0 466.02 Z" class="st13"/>
				</g>
				<g id="shape416-420" v:mID="416" v:groupContext="shape" transform="translate(41.8571,-41.3891)">
					<title>Sheet.416</title>
					<path d="M1.22 467.25 L1.22 466.02 L0.59 466.02 L0 466.02 L0 467.25 L0.59 467.25 L1.22 467.25 Z" class="st13"/>
				</g>
				<g id="shape417-422" v:mID="417" v:groupContext="shape" transform="translate(21.8476,-41.3891)">
					<title>Sheet.417</title>
					<path d="M0 466.02 L0 467.25 L1.22 467.25 L1.22 466.02 L0 466.02 L0 466.02 Z" class="st13"/>
				</g>
				<g id="shape418-424" v:mID="418" v:groupContext="shape" transform="translate(24.3488,-41.3891)">
					<title>Sheet.418</title>
					<path d="M0 466.02 L0 467.25 L1.22 467.25 L1.22 466.02 L0 466.02 L0 466.02 Z" class="st13"/>
				</g>
				<g id="shape419-426" v:mID="419" v:groupContext="shape" transform="translate(26.8499,-41.3891)">
					<title>Sheet.419</title>
					<path d="M0 466.02 L0 467.25 L1.22 467.25 L1.22 466.02 L0 466.02 L0 466.02 Z" class="st13"/>
				</g>
				<g id="shape420-428" v:mID="420" v:groupContext="shape" transform="translate(39.3559,-41.3891)">
					<title>Sheet.420</title>
					<path d="M0 466.02 L0 467.25 L1.22 467.25 L1.22 466.02 L0 466.02 L0 466.02 Z" class="st13"/>
				</g>
				<g id="shape421-430" v:mID="421" v:groupContext="shape" transform="translate(31.8523,-41.3891)">
					<title>Sheet.421</title>
					<path d="M0 466.02 L0 467.25 L1.22 467.25 L1.22 466.02 L0 466.02 L0 466.02 Z" class="st13"/>
				</g>
				<g id="shape422-432" v:mID="422" v:groupContext="shape" transform="translate(36.8547,-41.3891)">
					<title>Sheet.422</title>
					<path d="M0 466.02 L0 467.25 L1.22 467.25 L1.22 466.02 L0 466.02 L0 466.02 Z" class="st13"/>
				</g>
				<g id="shape423-434" v:mID="423" v:groupContext="shape" transform="translate(34.3535,-41.3891)">
					<title>Sheet.423</title>
					<path d="M0 466.02 L0 467.25 L1.22 467.25 L1.22 466.02 L0 466.02 L0 466.02 Z" class="st13"/>
				</g>
				<g id="shape424-436" v:mID="424" v:groupContext="shape" transform="translate(17.3241,-41.3891)">
					<title>Sheet.424</title>
					<path d="M0.11 466.33 L0.11 466.33 L0 467.25 L0.75 467.25 L0.75 466.02 L0.11 466.02 L0.11 466.28 L0.11 466.33
								 Z" class="st13"/>
				</g>
				<g id="shape425-438" v:mID="425" v:groupContext="shape" transform="translate(19.3464,-41.3891)">
					<title>Sheet.425</title>
					<path d="M0 466.02 L0 467.25 L1.22 467.25 L1.22 466.02 L0 466.02 L0 466.02 Z" class="st13"/>
				</g>
				<g id="shape426-440" v:mID="426" v:groupContext="shape" transform="translate(19.6657,-16.5519)">
					<title>Sheet.426</title>
					<path d="M0 466.02 L0 467.25 L20.59 467.25 L20.59 466.02 L0 466.02 L0 466.02 Z" class="st13"/>
				</g>
				<g id="shape427-442" v:mID="427" v:groupContext="shape" transform="translate(31.533,-34.1684)">
					<title>Sheet.427</title>
					<path d="M0 466.02 L0 467.25 L6.39 467.25 L6.39 466.02 L0 466.02 L0 466.02 Z" class="st13"/>
				</g>
				<g id="shape428-444" v:mID="428" v:groupContext="shape" transform="translate(13.0668,-12.199)">
					<title>Sheet.428</title>
					<path d="M29.27 459.57 L4.52 459.57 L4.52 445.43 C4.52 445.33 4.63 445.28 4.74 445.28 L15.33 445.28 L15.33 444.05
								 L4.74 444.05 C3.94 444.05 3.3 444.67 3.3 445.43 L3.3 460.13 L0 466.02 L0 466.02 L0 466.02 L0 466.64
								 L1.28 467.25 L1.28 467.25 L32.52 467.25 L32.52 467.25 L33.79 466.64 L33.79 466.02 L33.79 466.02
								 L33.79 466.02 L30.49 459.93 L30.49 454.6 L29.27 454.6 L29.27 459.57 ZM32.36 466.02 L1.44 466.02
								 L4.36 460.75 L29.54 460.75 L32.36 466.02 Z" class="st13"/>
				</g>
				<g id="shape429-446" v:mID="429" v:groupContext="shape" transform="translate(24.9341,-14.4523)">
					<title>Sheet.429</title>
					<path d="M0 466.02 L0 467.25 L10 467.25 L10 466.02 L0 466.02 L0 466.02 Z" class="st13"/>
				</g>
				<g id="shape430-448" v:mID="430" v:groupContext="shape" transform="translate(14.5037,-38.8285)">
					<title>Sheet.430</title>
					<path d="M0 463.72 L0.32 467.25 L1.7 467.25 L1.97 463.72 L1.97 461.36 L0 461.36 L0 463.72 Z" class="st13"/>
				</g>
				<g id="shape431-450" v:mID="431" v:groupContext="shape" transform="translate(14.5037,-36.4216)">
					<title>Sheet.431</title>
					<path d="M0 465.61 L0 465.76 L0 467.25 L1.97 467.25 L1.97 465.76 L1.97 465.61 L0 465.61 Z" class="st13"/>
				</g>
				<g id="shape432-452" v:mID="432" v:groupContext="shape" transform="translate(38.8769,-25.7698)">
					<title>Sheet.432</title>
					<path d="M6.76 454.96 L1.54 454.96 C0.69 454.96 0 455.57 0 456.39 L0 465.76 C0 466.58 0.69 467.25 1.54 467.25
								 L6.76 467.25 C7.61 467.25 8.3 466.58 8.3 465.76 L8.3 456.39 C8.3 455.57 7.61 454.96 6.76 454.96
								 ZM6.76 466.07 L1.54 466.07 C1.38 466.07 1.22 465.92 1.22 465.76 L1.22 465.15 L7.02 465.15 L7.02
								 465.76 C7.02 465.92 6.92 466.07 6.76 466.07 ZM1.22 463.97 L1.22 456.39 C1.22 456.24 1.38 456.14
								 1.54 456.14 L6.76 456.14 C6.92 456.14 7.02 456.24 7.02 456.39 L7.02 463.97 L1.22 463.97 Z"
							class="st13"/>
				</g>
				<g id="shape433-454" v:mID="433" v:groupContext="shape" transform="translate(42.4425,-31.7615)">
					<title>Sheet.433</title>
					<path d="M0 465 L0.21 467.25 L1.06 467.25 L1.28 465 L1.28 463.46 L0 463.46 L0 465 Z" class="st13"/>
				</g>
				<g id="shape434-456" v:mID="434" v:groupContext="shape" transform="translate(42.4425,-30.2763)">
					<title>Sheet.434</title>
					<path d="M0 466.23 L0 467.25 L1.28 467.25 L1.28 466.23 L0 466.23 L0 466.23 Z" class="st13"/>
				</g>
				<g id="shape435-458" v:mID="435" v:groupContext="shape" transform="translate(29.3511,-38.9822)">
					<title>Sheet.435</title>
					<path d="M0 466.02 L0 467.25 L1.22 467.25 L1.22 466.02 L0 466.02 L0 466.02 Z" class="st13"/>
				</g>
				<g id="shape436-460" v:mID="436" v:groupContext="shape" transform="translate(29.3511,-36.5753)">
					<title>Sheet.436</title>
					<path d="M0 466.02 L0 467.25 L1.22 467.25 L1.22 466.02 L0 466.02 L0 466.02 Z" class="st13"/>
				</g>
				<g id="shape437-462" v:mID="437" v:groupContext="shape" transform="translate(29.3511,-41.3891)">
					<title>Sheet.437</title>
					<path d="M0 467.25 L1.22 467.25 L1.22 467.25 L1.22 466.33 L1.22 466.02 L0 466.02 L0 466.33 L0 467.25 L0 467.25
								 Z" class="st13"/>
				</g>
				<g id="shape438-464" v:mID="438" v:groupContext="shape" transform="translate(29.3511,-34.1684)">
					<title>Sheet.438</title>
					<path d="M0 466.02 L0 467.25 L1.22 467.25 L1.22 466.02 L0 466.02 L0 466.02 Z" class="st13"/>
				</g>
				<g id="shape439-466" v:mID="439" v:groupContext="shape" transform="translate(28.5529,-24.5408)">
					<title>Sheet.439</title>
					<path d="M0.43 467.25 L2.39 467.25 L2.82 462.18 L2.82 460.03 L2.82 458.8 L0 458.8 L0 460.03 L0 462.18 L0.43 467.25
								 Z" class="st13"/>
				</g>
				<g id="shape440-468" v:mID="440" v:groupContext="shape" transform="translate(28.5529,-21.1096)">
					<title>Sheet.440</title>
					<path d="M0 464.84 L0 467.25 L2.82 467.25 L2.82 464.84 L0 464.84 L0 464.84 Z" class="st13"/>
				</g>
			</g>
			<g id="group441-470" v:mID="441" v:groupContext="group">
				<title>Sheet.441</title>
				<g id="shape442-471" v:mID="442" v:groupContext="shape">
					<title>Sheet.442</title>
					<desc>Alerts</desc>
					<v:textBlock v:margins="rect(4,4,4,4)"/>
					<v:textRect cx="29.25" cy="461.028" width="58.5" height="12.4444"/>
					<rect x="0" y="454.806" width="58.5" height="12.4444" class="st6"/>
					<text x="18.77" y="463.43" class="st7" v:langID="1033"><v:paragraph v:horizAlign="1" v:bulletSize="0.166667"/><v:tabList/>Alerts</text>				</g>
			</g>
		</g>
		<g id="shape443-474" v:mID="443" v:groupContext="shape" v:layerMember="1" transform="translate(652.149,-58.8573)">
			<title>Sheet.443</title>
			<path d="M0 458.25 L34.21 458.25" class="st14"/>
		</g>
	</g>
</svg>
