<?xml version="1.0" encoding="UTF-8" standalone="no"?>
<!DOCTYPE svg PUBLIC "-//W3C//DTD SVG 1.1//EN" "http://www.w3.org/Graphics/SVG/1.1/DTD/svg11.dtd">
<!-- Generated by Microsoft Visio, SVG Export caf-lz-vcn.svg 4- -->
<svg xmlns="http://www.w3.org/2000/svg" xmlns:xlink="http://www.w3.org/1999/xlink" xmlns:ev="http://www.w3.org/2001/xml-events"
		xmlns:v="http://schemas.microsoft.com/visio/2003/SVGExtensions/" width="12.0871in" height="5.53545in"
		viewBox="0 0 870.27 398.553" xml:space="preserve" color-interpolation-filters="sRGB" class="st31">
	<v:documentProperties v:langID="1033" v:viewMarkup="false">
		<v:userDefs>
			<v:ud v:nameU="msvNoAutoConnect" v:val="VT0(1):26"/>
		</v:userDefs>
	</v:documentProperties>

	<style type="text/css">
	<![CDATA[
		.st1 {fill:#ffffff;stroke:none;stroke-linecap:round;stroke-linejoin:round;stroke-width:1}
		.st2 {fill:#f5f4f2;stroke:#9e9892;stroke-linecap:round;stroke-linejoin:round;stroke-width:1}
		.st3 {fill:#000000;font-family:Oracle Sans;font-size:0.75em;font-weight:bold}
		.st4 {fill:#dfdcd8;stroke:#9e9892;stroke-linecap:round;stroke-linejoin:round;stroke-width:1}
		.st5 {fill:#fcfbfa;stroke:#9e9892;stroke-linecap:round;stroke-linejoin:round;stroke-width:1}
		.st6 {fill:#181615;font-family:Calibri;font-size:0.748924em}
		.st7 {fill:none;stroke:#ae562c;stroke-dasharray:3,3;stroke-width:1}
		.st8 {fill:#ae562c;font-family:Oracle Sans;font-size:0.75em;font-weight:bold}
		.st9 {fill:#000000;font-size:0.888885em;font-weight:normal}
		.st10 {fill:#ffffff;stroke:none;stroke-linecap:butt;stroke-width:14.5714}
		.st11 {fill:#bb501c;stroke:none;stroke-linecap:butt;stroke-width:14.5714}
		.st12 {fill:#ffffff;stroke:none;stroke-linecap:butt;stroke-width:18.7678}
		.st13 {fill:none;stroke:none;stroke-linecap:butt;stroke-width:18.7678}
		.st14 {fill:#bb501c;stroke:none;stroke-linecap:butt;stroke-width:18.7678}
		.st15 {fill:none;stroke:#ae562c;stroke-dasharray:3.75,3.75;stroke-width:1.25}
		.st16 {fill:#ffffff;stroke:none;stroke-linecap:butt;stroke-width:1.25}
		.st17 {fill:#bb501c;stroke:none;stroke-linecap:butt;stroke-width:1.25}
		.st18 {fill:#f5f4f2;stroke:none;stroke-width:0.25}
		.st19 {fill:#312d2a;font-family:Oracle Sans Tab;font-size:0.666664em}
		.st20 {font-size:1em}
		.st21 {fill:#ffffff;stroke:none;stroke-linecap:butt;stroke-width:15.5686}
		.st22 {fill:#ffffff}
		.st23 {stroke:none;stroke-linecap:butt;stroke-width:15.5686}
		.st24 {fill:#2c5967;stroke:none;stroke-linecap:butt;stroke-width:15.5686}
		.st25 {fill:#ffffff;stroke:none;stroke-linecap:butt;stroke-width:14.5058}
		.st26 {fill:#2c5967;stroke:none;stroke-linecap:butt;stroke-width:14.5058}
		.st27 {fill:#2c5967;stroke:none;stroke-linecap:butt;stroke-width:14.5714}
		.st28 {fill:#ffffff;stroke:none;stroke-linecap:butt;stroke-width:16.9107}
		.st29 {stroke:none;stroke-linecap:butt;stroke-width:16.9107}
		.st30 {fill:#2c5967;stroke:none;stroke-linecap:butt;stroke-width:16.9107}
		.st31 {fill:none;fill-rule:evenodd;font-size:12px;overflow:visible;stroke-linecap:square;stroke-miterlimit:3}
	]]>
	</style>

	<g v:mID="23" v:index="6" v:groupContext="foregroundPage">
		<v:userDefs>
			<v:ud v:nameU="msvThemeOrder" v:val="VT0(0):26"/>
		</v:userDefs>
		<title>4-vcn</title>
		<v:pageProperties v:drawingScale="1" v:pageScale="1" v:drawingUnits="19" v:shadowOffsetX="9" v:shadowOffsetY="-9"/>
		<g id="shape250-1" v:mID="250" v:groupContext="shape" transform="translate(18.5,-18.5)">
			<title>Sheet.250</title>
			<path d="M0 43.48 C-0 40.01 1.44 37 3.1 37 L830.24 37 C831.9 37 833.27 40.01 833.27 43.48 L833.27 392.23 C833.27 395.69
						 831.9 398.55 830.24 398.55 L3.1 398.55 C1.44 398.55 0 395.69 0 392.23 L0 43.48 Z" class="st1"/>
		</g>
		<g id="shape2-3" v:mID="2" v:groupContext="shape" transform="translate(137.228,-21.25)">
			<title>Sheet.2</title>
			<desc>OCI Region</desc>
			<v:textBlock v:margins="rect(4,4,4,4)" v:verticalAlign="0"/>
			<v:textRect cx="297" cy="220.824" width="594" height="355.456"/>
			<path d="M0 49.46 C0 46.06 1.03 43.1 2.21 43.1 L591.84 43.1 C593.02 43.1 594 46.06 594 49.46 L594 392.33 C594 395.74
						 593.02 398.55 591.84 398.55 L2.21 398.55 C1.03 398.55 0 395.74 0 392.33 L0 49.46 Z" class="st2"/>
			<text x="4" y="55.2" class="st3" v:langID="1033"><v:paragraph/><v:tabList/>OCI Region</text>		</g>
		<g id="shape3-6" v:mID="3" v:groupContext="shape" transform="translate(217.038,-36.9999)">
			<title>Sheet.3</title>
			<desc>Availability Domain</desc>
			<v:textBlock v:margins="rect(4,4,4,4)" v:verticalAlign="0"/>
			<v:textRect cx="227.366" cy="245.279" width="454.74" height="306.547"/>
			<path d="M0 97.5 C0 94.56 0.79 92.01 1.7 92.01 L453.08 92.01 C453.98 92.01 454.73 94.56 454.73 97.5 L454.73 393.19 C454.73
						 396.13 453.98 398.55 453.08 398.55 L1.7 398.55 C0.79 398.55 0 396.13 0 393.19 L0 97.5 Z" class="st4"/>
			<text x="185.19" y="104.11" class="st3" v:langID="1033"><v:paragraph v:horizAlign="1"/><v:tabList/>Availability Domain</text>		</g>
		<g id="shape4-9" v:mID="4" v:groupContext="shape" transform="translate(222.197,-43.3162)">
			<title>Sheet.4</title>
			<desc>Fault Domain 1</desc>
			<v:textBlock v:margins="rect(4,4,4,4)" v:verticalAlign="0"/>
			<v:textRect cx="69.0311" cy="256.85" width="138.07" height="283.405"/>
			<path d="M0 120.23 C0 117.51 0.24 115.15 0.51 115.15 L137.56 115.15 C137.83 115.15 138.06 117.51 138.06 120.23 L138.06
						 393.59 C138.06 396.31 137.83 398.55 137.56 398.55 L0.51 398.55 C0.24 398.55 0 396.31 0 393.59 L0 120.23
						 Z" class="st5"/>
			<text x="41.34" y="129.95" class="st6" v:langID="1033"><v:paragraph v:horizAlign="1"/><v:tabList/>Fault Domain 1</text>		</g>
		<g id="shape5-12" v:mID="5" v:groupContext="shape" transform="translate(364.453,-43.3162)">
			<title>Sheet.5</title>
			<desc>Fault Domain 2</desc>
			<v:textBlock v:margins="rect(4,4,4,4)" v:verticalAlign="0"/>
			<v:textRect cx="69.0311" cy="256.85" width="138.07" height="283.405"/>
			<path d="M0 120.23 C0 117.51 0.24 115.15 0.51 115.15 L137.56 115.15 C137.83 115.15 138.06 117.51 138.06 120.23 L138.06
						 393.59 C138.06 396.31 137.83 398.55 137.56 398.55 L0.51 398.55 C0.24 398.55 0 396.31 0 393.59 L0 120.23
						 Z" class="st5"/>
			<text x="41.34" y="129.95" class="st6" v:langID="1033"><v:paragraph v:horizAlign="1"/><v:tabList/>Fault Domain 2</text>		</g>
		<g id="shape6-15" v:mID="6" v:groupContext="shape" transform="translate(506.708,-43.3162)">
			<title>Sheet.6</title>
			<desc>Fault Domain 3</desc>
			<v:textBlock v:margins="rect(4,4,4,4)" v:verticalAlign="0"/>
			<v:textRect cx="69.0311" cy="256.85" width="138.07" height="283.405"/>
			<path d="M0 120.23 C0 117.51 0.24 115.15 0.51 115.15 L137.56 115.15 C137.83 115.15 138.06 117.51 138.06 120.23 L138.06
						 393.59 C138.06 396.31 137.83 398.55 137.56 398.55 L0.51 398.55 C0.24 398.55 0 396.31 0 393.59 L0 120.23
						 Z" class="st5"/>
			<text x="41.34" y="129.95" class="st6" v:langID="1033"><v:paragraph v:horizAlign="1"/><v:tabList/>Fault Domain 3</text>		</g>
		<g id="shape7-18" v:mID="7" v:groupContext="shape" transform="translate(20.2516,-204.753)">
			<title>Sheet.7</title>
			<desc>On-Premises</desc>
			<v:textBlock v:margins="rect(4,4,4,4)" v:verticalAlign="0"/>
			<v:textRect cx="54.3852" cy="312.576" width="108.78" height="171.953"/>
			<path d="M0 229.68 C0 228.03 0.19 226.6 0.4 226.6 L108.38 226.6 C108.59 226.6 108.77 228.03 108.77 229.68 L108.77 395.54
						 C108.77 397.19 108.59 398.55 108.38 398.55 L0.4 398.55 C0.19 398.55 0 397.19 0 395.54 L0 229.68 Z"
					class="st2"/>
			<text x="26.62" y="238.7" class="st3" v:langID="1033"><v:paragraph v:horizAlign="1"/><v:tabList/>On-Premises</text>		</g>
		<g id="shape8-21" v:mID="8" v:groupContext="shape" transform="translate(19.7704,-21.25)">
			<title>Sheet.8</title>
			<desc>Connectivity Provider</desc>
			<v:textBlock v:margins="rect(4,4,4,4)" v:verticalAlign="0"/>
			<v:textRect cx="54.8664" cy="312.576" width="109.74" height="171.953"/>
			<path d="M0 229.68 C0 228.03 0.19 226.6 0.41 226.6 L109.33 226.6 C109.55 226.6 109.73 228.03 109.73 229.68 L109.73 395.54
						 C109.73 397.19 109.55 398.55 109.33 398.55 L0.41 398.55 C0.19 398.55 0 397.19 0 395.54 L0 229.68 Z"
					class="st2"/>
			<text x="8.19" y="238.7" class="st3" v:langID="1033"><v:paragraph v:horizAlign="1"/><v:tabList/>Connectivity Provider</text>		</g>
		<g id="shape9-24" v:mID="9" v:groupContext="shape" transform="translate(741.306,-204.154)">
			<title>Sheet.9</title>
			<desc>Internet</desc>
			<v:textBlock v:margins="rect(4,4,4,4)" v:verticalAlign="0"/>
			<v:textRect cx="54.4452" cy="312.276" width="108.9" height="172.553"/>
			<path d="M0 229.09 C0 227.44 0.19 226 0.41 226 L108.49 226 C108.71 226 108.89 227.44 108.89 229.09 L108.89 395.53 C108.89
						 397.19 108.71 398.55 108.49 398.55 L0.41 398.55 C0.19 398.55 0 397.19 0 395.53 L0 229.09 Z" class="st2"/>
			<text x="37" y="238.1" class="st3" v:langID="1033"><v:paragraph v:horizAlign="1"/><v:tabList/>Internet</text>		</g>
		<g id="shape10-27" v:mID="10" v:groupContext="shape" transform="translate(741.306,-21.25)">
			<title>Sheet.10</title>
			<desc>Other OCI Services</desc>
			<v:textBlock v:margins="rect(4,4,4,4)" v:verticalAlign="0"/>
			<v:textRect cx="54.4452" cy="312.276" width="108.9" height="172.553"/>
			<path d="M0 229.09 C0 227.44 0.19 226 0.41 226 L108.49 226 C108.71 226 108.89 227.44 108.89 229.09 L108.89 395.53 C108.89
						 397.19 108.71 398.55 108.49 398.55 L0.41 398.55 C0.19 398.55 0 397.19 0 395.53 L0 229.09 Z" class="st2"/>
			<text x="14.27" y="238.1" class="st3" v:langID="1033"><v:paragraph v:horizAlign="1"/><v:tabList/>Other OCI Services</text>		</g>
		<g id="shape21-30" v:mID="21" v:groupContext="shape" transform="translate(195.509,-260.081)">
			<title>Sheet.21</title>
			<desc>Public subnet For external-facing applications and load balan...</desc>
			<v:textBlock v:margins="rect(4,4,4,4)" v:verticalAlign="0"/>
			<v:textRect cx="230.256" cy="383.673" width="460.52" height="29.76"/>
			<path d="M0 398.55 L460.51 398.55 L460.51 368.79 L0 368.79 L0 398.55 Z" class="st7"/>
			<text x="4" y="380.89" class="st8" v:langID="1033"><v:paragraph/><v:tabList/>Public subnet<v:newlineChar/><tspan x="4"
						dy="1.237em" class="st9">For external</tspan><tspan class="st9">-</tspan><tspan class="st9">facing applications and load balancers</tspan></text>		</g>
		<g id="group22-36" transform="translate(649.27,-257)" v:mID="22" v:groupContext="group">
			<title>Subnet</title>
			<g id="group23-37" transform="translate(0,-18)" v:mID="23" v:groupContext="group">
				<title>Route Table</title>
				<g id="group24-38" v:mID="24" v:groupContext="group">
					<title>Sheet.24</title>
					<g id="group25-39" v:mID="25" v:groupContext="group">
						<title>Sheet.25</title>
						<g id="shape26-40" v:mID="26" v:groupContext="shape" transform="translate(0.214286,-0.214286)">
							<title>Sheet.26</title>
							<rect x="0" y="380.981" width="17.5714" height="17.5714" class="st10"/>
						</g>
						<g id="shape27-42" v:mID="27" v:groupContext="shape">
							<title>Sheet.27</title>
							<path d="M17.57 380.98 L17.57 398.12 L0.43 398.12 L0.43 380.98 L17.57 380.98 ZM18 380.55 L17.57 380.55
										 L0.43 380.55 L0 380.55 L0 380.98 L0 398.12 L0 398.55 L0.43 398.55 L17.57 398.55 L18 398.55
										 L18 398.12 L18 380.98 L18 380.55 Z" class="st10"/>
						</g>
					</g>
					<g id="group28-44" transform="translate(0.428571,-0.428571)" v:mID="28" v:groupContext="group">
						<title>Sheet.28</title>
						<g id="shape29-45" v:mID="29" v:groupContext="shape">
							<title>Sheet.29</title>
							<path d="M0 381.41 L0 398.55 L17.14 398.55 L17.14 381.41 L0 381.41 ZM16.5 386.9 L5.4 386.9 L5.4 382.05
										 L16.5 382.05 L16.5 386.9 ZM0.64 393.07 L4.76 393.07 L4.76 397.95 L0.64 397.95 L0.64 393.07
										 ZM4.76 382.05 L4.76 386.94 L0.64 386.94 L0.64 382.05 L4.76 382.05 ZM4.76 387.54 L4.76 392.42
										 L0.64 392.42 L0.64 387.54 L4.76 387.54 ZM5.4 397.91 L5.4 393.07 L16.5 393.07 L16.5 397.95
										 L5.4 397.95 L5.4 397.91 ZM5.4 392.42 L5.4 387.54 L16.5 387.54 L16.5 392.42 L5.4 392.42 Z"
									class="st11"/>
						</g>
						<g id="shape30-47" v:mID="30" v:groupContext="shape" transform="translate(6,-12.3)">
							<title>Sheet.30</title>
							<path d="M0 398.55 L0.73 398.55 L1.11 397.82 L1.5 398.55 L2.19 398.55 L1.54 397.4 L2.14 396.32 L1.46
										 396.32 L1.11 397.01 L0.73 396.32 L0.04 396.32 L0.69 397.4 L0 398.55 Z" class="st11"/>
						</g>
						<g id="shape31-49" v:mID="31" v:groupContext="shape" transform="translate(8.52857,-12.3)">
							<title>Sheet.31</title>
							<rect x="0" y="398.038" width="0.6" height="0.514286" class="st11"/>
						</g>
						<g id="shape32-51" v:mID="32" v:groupContext="shape" transform="translate(9.6,-12.3)">
							<title>Sheet.32</title>
							<path d="M0.69 398.55 L1.07 397.82 L1.46 398.55 L2.14 398.55 L1.46 397.4 L2.1 396.32 L1.46 396.32 L1.07
										 397.01 L0.69 396.32 L0 396.32 L0.64 397.4 L0 398.55 L0.69 398.55 Z" class="st11"/>
						</g>
						<g id="shape33-53" v:mID="33" v:groupContext="shape" transform="translate(11.9571,-12.3)">
							<title>Sheet.33</title>
							<rect x="0" y="398.038" width="0.6" height="0.514286" class="st11"/>
						</g>
						<g id="shape34-55" v:mID="34" v:groupContext="shape" transform="translate(12.9,-12.3)">
							<title>Sheet.34</title>
							<path d="M0.69 398.55 L1.07 397.82 L1.5 398.55 L2.14 398.55 L1.5 397.4 L2.1 396.32 L1.46 396.32 L1.07
										 397.01 L0.69 396.32 L0.04 396.32 L0.64 397.4 L0 398.55 L0.69 398.55 Z" class="st11"/>
						</g>
						<g id="shape35-57" v:mID="35" v:groupContext="shape" transform="translate(15.2571,-12.3)">
							<title>Sheet.35</title>
							<rect x="0" y="398.038" width="0.6" height="0.514286" class="st11"/>
						</g>
						<g id="shape36-59" v:mID="36" v:groupContext="shape" transform="translate(6,-6.72857)">
							<title>Sheet.36</title>
							<path d="M2.14 396.32 L1.46 396.32 L1.11 397.01 L0.73 396.32 L0.04 396.32 L0.69 397.4 L0 398.55 L0.73
										 398.55 L1.11 397.82 L1.5 398.55 L2.19 398.55 L1.54 397.4 L2.14 396.32 Z" class="st11"/>
						</g>
						<g id="shape37-61" v:mID="37" v:groupContext="shape" transform="translate(8.52857,-6.77143)">
							<title>Sheet.37</title>
							<rect x="0" y="398.038" width="0.6" height="0.514286" class="st11"/>
						</g>
						<g id="shape38-63" v:mID="38" v:groupContext="shape" transform="translate(9.6,-6.72857)">
							<title>Sheet.38</title>
							<path d="M2.1 396.32 L1.46 396.32 L1.07 397.01 L0.69 396.32 L0 396.32 L0.64 397.4 L0 398.55 L0.69 398.55
										 L1.07 397.82 L1.46 398.55 L2.14 398.55 L1.46 397.4 L2.1 396.32 Z" class="st11"/>
						</g>
						<g id="shape39-65" v:mID="39" v:groupContext="shape" transform="translate(11.9571,-6.77143)">
							<title>Sheet.39</title>
							<rect x="0" y="398.038" width="0.6" height="0.514286" class="st11"/>
						</g>
						<g id="shape40-67" v:mID="40" v:groupContext="shape" transform="translate(12.9,-6.72857)">
							<title>Sheet.40</title>
							<path d="M2.1 396.32 L1.46 396.32 L1.07 397.01 L0.69 396.32 L0.04 396.32 L0.64 397.4 L0 398.55 L0.69
										 398.55 L1.07 397.82 L1.5 398.55 L2.14 398.55 L1.5 397.4 L2.1 396.32 Z" class="st11"/>
						</g>
						<g id="shape41-69" v:mID="41" v:groupContext="shape" transform="translate(15.2571,-6.77143)">
							<title>Sheet.41</title>
							<rect x="0" y="398.038" width="0.6" height="0.514286" class="st11"/>
						</g>
						<g id="shape42-71" v:mID="42" v:groupContext="shape" transform="translate(6,-1.28571)">
							<title>Sheet.42</title>
							<path d="M2.14 396.37 L1.46 396.37 L1.11 397.01 L0.73 396.37 L0.04 396.37 L0.69 397.4 L0 398.55 L0.73
										 398.55 L1.11 397.82 L1.5 398.55 L2.19 398.55 L1.54 397.44 L2.14 396.37 Z" class="st11"/>
						</g>
						<g id="shape43-73" v:mID="43" v:groupContext="shape" transform="translate(8.52857,-1.28571)">
							<title>Sheet.43</title>
							<rect x="0" y="398.038" width="0.6" height="0.514286" class="st11"/>
						</g>
						<g id="shape44-75" v:mID="44" v:groupContext="shape" transform="translate(9.6,-1.28571)">
							<title>Sheet.44</title>
							<path d="M2.1 396.37 L1.46 396.37 L1.07 397.01 L0.69 396.37 L0 396.37 L0.64 397.4 L0 398.55 L0.69 398.55
										 L1.07 397.82 L1.46 398.55 L2.14 398.55 L1.46 397.44 L2.1 396.37 Z" class="st11"/>
						</g>
						<g id="shape45-77" v:mID="45" v:groupContext="shape" transform="translate(11.9571,-1.28571)">
							<title>Sheet.45</title>
							<rect x="0" y="398.038" width="0.6" height="0.514286" class="st11"/>
						</g>
						<g id="shape46-79" v:mID="46" v:groupContext="shape" transform="translate(12.9,-1.28571)">
							<title>Sheet.46</title>
							<path d="M2.1 396.37 L1.46 396.37 L1.07 397.01 L0.69 396.37 L0.04 396.37 L0.64 397.4 L0 398.55 L0.69
										 398.55 L1.07 397.82 L1.5 398.55 L2.14 398.55 L1.5 397.44 L2.1 396.37 Z" class="st11"/>
						</g>
						<g id="shape47-81" v:mID="47" v:groupContext="shape" transform="translate(15.2571,-1.28571)">
							<title>Sheet.47</title>
							<rect x="0" y="398.038" width="0.6" height="0.514286" class="st11"/>
						</g>
					</g>
				</g>
			</g>
			<g id="group48-83" transform="translate(2.09005,5.68434E-14)" v:mID="48" v:groupContext="group">
				<title>Security List.987</title>
				<g id="group49-84" v:mID="49" v:groupContext="group">
					<title>Sheet.49</title>
					<g id="group50-85" v:mID="50" v:groupContext="group">
						<title>Sheet.50</title>
						<g id="shape51-86" v:mID="51" v:groupContext="shape" transform="translate(0.21327,-0.21327)">
							<title>Sheet.51</title>
							<path d="M6.53 398.47 C3.2 397.23 1.62 395.1 0.85 393.48 C0 391.64 0 390.11 0 390.02 L0 383.88 L6.7 381.02
										 L13.35 383.88 L13.35 390.06 C13.35 390.32 13.27 396.12 6.91 398.47 L6.74 398.55 L6.53 398.47
										 Z" class="st12"/>
						</g>
						<g id="shape52-88" v:mID="52" v:groupContext="shape">
							<title>Sheet.52</title>
							<path d="M6.91 381.02 L13.35 383.79 L13.35 389.85 C13.35 390.11 13.27 395.74 7.04 398.04 L6.91 398.08
										 L6.82 398.04 C3.54 396.85 2 394.76 1.28 393.18 C0.47 391.43 0.43 389.89 0.43 389.85 L0.43
										 383.79 L6.91 381.02 ZM6.91 380.55 L6.74 380.64 L0.26 383.41 L0 383.5 L0 383.79 L0 389.85
										 C0 389.94 0 391.51 0.9 393.39 C1.66 395.01 3.28 397.23 6.7 398.47 L6.82 398.51 L6.95 398.55
										 L7.08 398.51 L7.21 398.47 C13.73 396.08 13.82 390.11 13.82 389.85 L13.82 383.79 L13.82 383.5
										 L13.56 383.37 L7.08 380.64 L6.91 380.55 Z" class="st12"/>
						</g>
					</g>
					<g id="group53-90" transform="translate(0.42654,-0.469194)" v:mID="53" v:groupContext="group">
						<title>Sheet.53</title>
						<g id="shape54-91" v:mID="54" v:groupContext="shape" transform="translate(0.63981,-0.682464)">
							<title>Sheet.54</title>
							<path d="M0 385.37 L0 391 C0 391.05 0 392.45 0.77 394.07 C1.75 396.16 3.45 397.66 5.84 398.55 C11.56
										 396.38 11.64 391.22 11.64 391 L11.64 385.37 L5.84 382.86 L0 385.37 ZM5.8 393.78 L1.92 393.78
										 L1.92 393.14 L5.8 393.14 L5.8 393.78 ZM5.8 390.87 L1.92 390.87 L1.92 390.24 L5.8 390.24
										 L5.8 390.87 ZM5.8 387.76 L1.92 387.76 L1.92 387.12 L5.8 387.12 L5.8 387.76 ZM7.55 387.12
										 L8.06 387.63 L9.34 386.35 L9.77 386.78 L8.06 388.49 L7.12 387.55 L7.55 387.12 ZM9.51 391.17
										 L9.09 391.6 L8.45 390.96 L7.81 391.6 L7.38 391.17 L8.02 390.53 L7.38 389.89 L7.81 389.47
										 L8.45 390.11 L9.09 389.47 L9.51 389.89 L8.87 390.53 L9.51 391.17 ZM7.55 393.14 L8.06 393.65
										 L9.34 392.37 L9.77 392.79 L8.06 394.5 L7.12 393.56 L7.55 393.14 Z" class="st13"/>
						</g>
						<g id="shape55-93" v:mID="55" v:groupContext="shape">
							<title>Sheet.55</title>
							<path d="M6.48 381.49 L0 384.26 L0 390.32 C0 390.36 0 391.9 0.85 393.65 C1.58 395.23 3.16 397.32 6.4
										 398.51 L6.53 398.55 L6.65 398.51 C12.88 396.21 12.97 390.53 12.97 390.32 L12.97 384.26 L6.48
										 381.49 ZM12.28 390.32 C12.28 390.53 12.2 395.69 6.48 397.87 C4.09 396.97 2.39 395.48 1.41
										 393.39 C0.64 391.73 0.64 390.36 0.64 390.32 L0.64 384.69 L6.48 382.17 L12.28 384.69 L12.28
										 390.32 Z" class="st14"/>
						</g>
						<g id="shape56-95" v:mID="56" v:groupContext="shape" transform="translate(2.55924,-11.4739)">
							<title>Sheet.56</title>
							<rect x="0" y="397.913" width="3.88151" height="0.63981" class="st14"/>
						</g>
						<g id="shape57-97" v:mID="57" v:groupContext="shape" transform="translate(7.72038,-10.7062)">
							<title>Sheet.57</title>
							<path d="M2.69 396.85 L2.22 396.42 L0.98 397.66 L0.47 397.15 L0 397.61 L0.98 398.55 L2.69 396.85 Z"
									class="st14"/>
						</g>
						<g id="shape58-99" v:mID="58" v:groupContext="shape" transform="translate(2.55924,-8.36019)">
							<title>Sheet.58</title>
							<rect x="0" y="397.913" width="3.88151" height="0.63981" class="st14"/>
						</g>
						<g id="shape59-101" v:mID="59" v:groupContext="shape" transform="translate(7.9763,-7.59241)">
							<title>Sheet.59</title>
							<path d="M1.75 396.33 L1.11 397.02 L0.43 396.33 L0 396.8 L0.64 397.44 L0 398.08 L0.43 398.55 L1.11 397.91
										 L1.75 398.55 L2.18 398.08 L1.54 397.44 L2.18 396.8 L1.75 396.33 Z" class="st14"/>
						</g>
						<g id="shape60-103" v:mID="60" v:groupContext="shape" transform="translate(2.55924,-5.45971)">
							<title>Sheet.60</title>
							<rect x="0" y="397.913" width="3.88151" height="0.63981" class="st14"/>
						</g>
						<g id="shape61-105" v:mID="61" v:groupContext="shape" transform="translate(7.72038,-4.69194)">
							<title>Sheet.61</title>
							<path d="M2.69 396.85 L2.22 396.42 L0.98 397.66 L0.47 397.15 L0 397.61 L0.98 398.55 L2.69 396.85 Z"
									class="st14"/>
						</g>
					</g>
				</g>
			</g>
		</g>
		<g id="shape70-107" v:mID="70" v:groupContext="shape" transform="translate(143.02,-26.6172)">
			<title>Rectangle.57</title>
			<desc>Network compartment</desc>
			<v:userDefs>
				<v:ud v:nameU="visVersion" v:val="VT0(15):26"/>
				<v:ud v:nameU="visMasterStencil" v:prompt="" v:val="VT4(Basic_U.vssx)"/>
			</v:userDefs>
			<v:textBlock v:margins="rect(4,4,4,4)" v:verticalAlign="0"/>
			<v:textRect cx="291.107" cy="231.361" width="582.22" height="334.383"/>
			<path d="M0 398.55 L582.21 398.55 L582.21 64.17 L0 64.17 L0 398.55 Z" class="st7"/>
			<text x="4" y="76.27" class="st8" v:langID="1033"><v:paragraph v:bulletSize="0.166667"/><v:tabList/>Network compartment</text>		</g>
		<g id="shape73-110" v:mID="73" v:groupContext="shape" transform="translate(195.185,-233.15)">
			<title>Sheet.73</title>
			<desc>Private subnet for Bastion</desc>
			<v:textBlock v:margins="rect(4,4,4,4)" v:verticalAlign="0"/>
			<v:textRect cx="230.256" cy="387.386" width="460.52" height="22.3328"/>
			<path d="M0 398.55 L460.51 398.55 L460.51 376.22 L0 376.22 L0 398.55 Z" class="st7"/>
			<text x="4" y="388.32" class="st8" v:langID="1033"><v:paragraph/><v:tabList/>Private subnet for Bastion</text>		</g>
		<g id="shape74-113" v:mID="74" v:groupContext="shape" transform="translate(195.185,-207.466)">
			<title>Sheet.74</title>
			<desc>Private subnet for shared services</desc>
			<v:textBlock v:margins="rect(4,4,4,4)" v:verticalAlign="0"/>
			<v:textRect cx="230.256" cy="387.386" width="460.52" height="22.3328"/>
			<path d="M0 398.55 L460.51 398.55 L460.51 376.22 L0 376.22 L0 398.55 Z" class="st7"/>
			<text x="4" y="388.32" class="st8" v:langID="1033"><v:paragraph/><v:tabList/>Private subnet for shared services</text>		</g>
		<g id="shape75-116" v:mID="75" v:groupContext="shape" transform="translate(194.77,-181.469)">
			<title>Sheet.75</title>
			<desc>Private subnet for workload (Workload A)</desc>
			<v:textBlock v:margins="rect(4,4,4,4)" v:verticalAlign="0"/>
			<v:textRect cx="230.256" cy="387.386" width="460.52" height="22.3328"/>
			<path d="M0 398.55 L460.51 398.55 L460.51 376.22 L0 376.22 L0 398.55 Z" class="st7"/>
			<text x="4" y="388.32" class="st8" v:langID="1033"><v:paragraph/><v:tabList/>Private subnet for workload (Workload A)</text>		</g>
		<g id="shape76-119" v:mID="76" v:groupContext="shape" transform="translate(194.77,-155.785)">
			<title>Sheet.76</title>
			<desc>Private subnet for workload (Workload A - database)</desc>
			<v:textBlock v:margins="rect(4,4,4,4)" v:verticalAlign="0"/>
			<v:textRect cx="230.256" cy="387.386" width="460.52" height="22.3328"/>
			<path d="M0 398.55 L460.51 398.55 L460.51 376.22 L0 376.22 L0 398.55 Z" class="st7"/>
			<text x="4" y="388.32" class="st8" v:langID="1033"><v:paragraph/><v:tabList/>Private subnet for workload (Workload A - database)</text>		</g>
		<g id="shape77-122" v:mID="77" v:groupContext="shape" transform="translate(195.185,-129.882)">
			<title>Sheet.77</title>
			<desc>Private subnet for workload (Workload B)</desc>
			<v:textBlock v:margins="rect(4,4,4,4)" v:verticalAlign="0"/>
			<v:textRect cx="230.256" cy="387.386" width="460.52" height="22.3328"/>
			<path d="M0 398.55 L460.51 398.55 L460.51 376.22 L0 376.22 L0 398.55 Z" class="st7"/>
			<text x="4" y="388.32" class="st8" v:langID="1033"><v:paragraph/><v:tabList/>Private subnet for workload (Workload B)</text>		</g>
		<g id="shape78-125" v:mID="78" v:groupContext="shape" transform="translate(195.185,-104.198)">
			<title>Sheet.78</title>
			<desc>Private subnet for workload (Workload B - database)</desc>
			<v:textBlock v:margins="rect(4,4,4,4)" v:verticalAlign="0"/>
			<v:textRect cx="230.256" cy="387.386" width="460.52" height="22.3328"/>
			<path d="M0 398.55 L460.51 398.55 L460.51 376.22 L0 376.22 L0 398.55 Z" class="st7"/>
			<text x="4" y="388.32" class="st8" v:langID="1033"><v:paragraph/><v:tabList/>Private subnet for workload (Workload B - database)</text>		</g>
		<g id="shape79-128" v:mID="79" v:groupContext="shape" transform="translate(194.77,-78.201)">
			<title>Sheet.79</title>
			<desc>Private subnet for workload (Workload C)</desc>
			<v:textBlock v:margins="rect(4,4,4,4)" v:verticalAlign="0"/>
			<v:textRect cx="230.256" cy="387.386" width="460.52" height="22.3328"/>
			<path d="M0 398.55 L460.51 398.55 L460.51 376.22 L0 376.22 L0 398.55 Z" class="st7"/>
			<text x="4" y="388.32" class="st8" v:langID="1033"><v:paragraph/><v:tabList/>Private subnet for workload (Workload C)</text>		</g>
		<g id="shape80-131" v:mID="80" v:groupContext="shape" transform="translate(194.77,-52.5169)">
			<title>Sheet.80</title>
			<desc>Private subnet for workload (Workload C - database)</desc>
			<v:textBlock v:margins="rect(4,4,4,4)" v:verticalAlign="0"/>
			<v:textRect cx="230.256" cy="387.386" width="460.52" height="22.3328"/>
			<path d="M0 398.55 L460.51 398.55 L460.51 376.22 L0 376.22 L0 398.55 Z" class="st7"/>
			<text x="4" y="388.32" class="st8" v:langID="1033"><v:paragraph/><v:tabList/>Private subnet for workload (Workload C - database)</text>		</g>
		<g id="group85-134" transform="translate(172.27,-41)" v:mID="85" v:groupContext="group">
			<title>Sheet.85</title>
			<g id="shape13-135" v:mID="13" v:groupContext="shape" transform="translate(0,-5.41831)">
				<title>Sheet.13</title>
				<desc>VCN</desc>
				<v:textBlock v:margins="rect(4,4,4,4)" v:verticalAlign="0"/>
				<v:textRect cx="263.5" cy="268.574" width="527" height="259.958"/>
				<path d="M0 398.55 L527 398.55 L527 138.59 L0 138.59 L0 398.55 Z" class="st15"/>
				<text x="4" y="150.69" class="st8" v:langID="1033"><v:paragraph/><v:tabList/>VCN</text>			</g>
			<g id="group14-138" transform="translate(517.921,5.68434E-14)" v:mID="14" v:groupContext="group">
				<title>VCN</title>
				<g id="group15-139" v:mID="15" v:groupContext="group">
					<title>Sheet.15</title>
					<g id="shape16-140" v:mID="16" v:groupContext="shape" transform="translate(0.202062,-0.210771)">
						<title>Sheet.16</title>
						<path d="M12.41 398.55 C11.28 398.55 10.26 397.71 10.02 396.53 L7.15 396.53 C6.91 397.67 5.94 398.55 4.77
									 398.55 C3.44 398.55 2.34 397.41 2.34 396.02 C2.34 395.14 2.83 394.3 3.56 393.83 L2.67 391.01
									 C2.59 391.01 2.51 391.01 2.42 391.01 C1.09 391.01 0 389.87 0 388.48 C0 387.09 1.09 385.95 2.42
									 385.95 C3.03 385.95 3.6 386.16 4.04 386.62 L6.39 384.85 C6.26 384.52 6.18 384.18 6.18 383.8
									 C6.18 382.41 7.27 381.27 8.61 381.27 C9.94 381.27 11.03 382.41 11.03 383.8 C11.03 384.14 10.95
									 384.52 10.83 384.85 L13.13 386.62 C13.58 386.2 14.14 385.95 14.75 385.95 C16.08 385.95 17.18
									 387.09 17.18 388.48 C17.18 389.87 16.08 391.01 14.75 391.01 C14.67 391.01 14.59 391.01 14.51
									 391.01 L13.62 393.83 C14.35 394.3 14.83 395.14 14.83 396.02 C14.83 397.41 13.74 398.55 12.41
									 398.55 Z" class="st16"/>
					</g>
					<g id="shape17-142" v:mID="17" v:groupContext="shape">
						<title>Sheet.17</title>
						<path d="M8.77 381.27 C9.98 381.27 10.99 382.32 10.99 383.59 C10.99 383.97 10.91 384.35 10.71 384.68 L13.3
									 386.67 C13.7 386.2 14.27 385.95 14.91 385.95 C16.12 385.95 17.13 387 17.13 388.27 C17.13 389.53
									 16.12 390.59 14.91 390.59 C14.79 390.59 14.63 390.59 14.51 390.54 L13.5 393.7 C14.23 394.08
									 14.75 394.89 14.75 395.81 C14.75 397.08 13.74 398.13 12.53 398.13 C11.4 398.13 10.47 397.25
									 10.31 396.11 L7.11 396.11 C6.95 397.25 6.02 398.13 4.89 398.13 C3.68 398.13 2.67 397.08 2.67
									 395.81 C2.67 394.89 3.19 394.08 3.92 393.7 L3.03 390.54 C2.91 390.59 2.75 390.59 2.63 390.59
									 C1.41 390.59 0.4 389.53 0.4 388.27 C0.4 387 1.41 385.95 2.63 385.95 C3.27 385.95 3.84 386.24
									 4.24 386.67 L6.83 384.68 C6.67 384.35 6.55 383.97 6.55 383.59 C6.55 382.32 7.56 381.27 8.77
									 381.27 ZM8.77 380.85 C7.31 380.85 6.14 382.07 6.14 383.59 C6.14 383.93 6.18 384.26 6.3 384.56
									 L4.24 386.12 C3.8 385.74 3.19 385.53 2.63 385.53 C1.17 385.53 0 386.75 0 388.27 C0 389.78 1.17
									 391.01 2.63 391.01 C2.67 391.01 2.71 391.01 2.75 391.01 L3.52 393.54 C2.79 394.04 2.34 394.89
									 2.34 395.81 C2.34 397.33 3.52 398.55 4.97 398.55 C6.14 398.55 7.19 397.71 7.52 396.53 L10.06
									 396.53 C10.39 397.71 11.4 398.55 12.61 398.55 C14.06 398.55 15.24 397.33 15.24 395.81 C15.24
									 394.89 14.79 394.04 14.06 393.54 L14.83 391.01 C14.87 391.01 14.91 391.01 14.95 391.01 C16.41
									 391.01 17.58 389.78 17.58 388.27 C17.58 386.75 16.41 385.53 14.95 385.53 C14.35 385.53 13.78
									 385.74 13.3 386.12 L11.23 384.56 C11.36 384.26 11.4 383.93 11.4 383.59 C11.44 382.07 10.22 380.85
									 8.77 380.85 Z" class="st16"/>
					</g>
				</g>
				<g id="shape18-144" v:mID="18" v:groupContext="shape" transform="translate(0.444537,-0.421543)">
					<title>Sheet.18</title>
					<path d="M14.51 386.37 C13.86 386.37 13.3 386.67 12.89 387.09 L10.31 385.11 C10.47 384.77 10.59 384.39 10.59
								 384.01 C10.59 382.74 9.58 381.69 8.37 381.69 C7.15 381.69 6.14 382.74 6.14 384.01 C6.14 384.39 6.22
								 384.77 6.43 385.11 L3.84 387.09 C3.44 386.67 2.87 386.37 2.22 386.37 C1.01 386.37 0 387.42 0 388.69
								 C0 389.95 1.01 391.01 2.22 391.01 C2.34 391.01 2.51 391.01 2.63 390.96 L3.6 394.13 C2.87 394.51
								 2.34 395.31 2.34 396.23 C2.34 397.5 3.35 398.55 4.57 398.55 C5.7 398.55 6.63 397.67 6.79 396.53
								 L9.98 396.53 C10.14 397.67 11.07 398.55 12.2 398.55 C13.42 398.55 14.43 397.5 14.43 396.23 C14.43
								 395.31 13.9 394.51 13.17 394.13 L14.1 390.96 C14.23 391.01 14.39 391.01 14.51 391.01 C15.72 391.01
								 16.73 389.95 16.73 388.69 C16.73 387.42 15.72 386.37 14.51 386.37 ZM12.16 397.92 C11.28 397.92 10.55
								 397.16 10.55 396.23 C10.55 395.31 11.28 394.55 12.16 394.55 C13.05 394.55 13.78 395.31 13.78 396.23
								 C13.78 397.16 13.05 397.92 12.16 397.92 ZM6.75 395.94 C6.67 395.39 6.43 394.93 6.06 394.55 L7.27
								 392.78 C7.6 392.95 7.96 393.07 8.32 393.07 C8.69 393.07 9.05 392.99 9.38 392.78 L10.59 394.55 C10.22
								 394.89 9.98 395.39 9.9 395.94 L6.75 395.94 ZM2.91 396.23 C2.91 395.31 3.64 394.55 4.53 394.55 C5.42
								 394.55 6.14 395.31 6.14 396.23 C6.14 397.16 5.42 397.92 4.53 397.92 C3.64 397.92 2.91 397.16 2.91
								 396.23 ZM2.18 386.96 C3.07 386.96 3.8 387.72 3.8 388.65 C3.8 389.57 3.07 390.33 2.18 390.33 C1.29
								 390.33 0.57 389.57 0.57 388.65 C0.57 387.72 1.29 386.96 2.18 386.96 ZM6.71 384.01 C6.71 383.08 7.44
								 382.32 8.32 382.32 C9.21 382.32 9.94 383.08 9.94 384.01 C9.94 384.94 9.21 385.7 8.32 385.7 C7.44
								 385.7 6.71 384.94 6.71 384.01 ZM12.33 389.07 L10.35 389.74 C10.02 389.07 9.38 388.56 8.65 388.44
								 L8.65 386.33 C9.17 386.24 9.62 385.99 9.94 385.61 L12.53 387.59 C12.37 387.93 12.24 388.31 12.24
								 388.69 C12.29 388.81 12.29 388.94 12.33 389.07 ZM9.98 390.75 C9.98 391.68 9.25 392.44 8.37 392.44
								 C7.48 392.44 6.75 391.68 6.75 390.75 C6.75 389.83 7.48 389.07 8.37 389.07 C9.25 389.07 9.98 389.78
								 9.98 390.75 ZM8.04 386.33 L8.04 388.44 C7.27 388.56 6.63 389.03 6.34 389.74 L4.36 389.07 C4.4 388.94
								 4.4 388.81 4.4 388.65 C4.4 388.27 4.32 387.89 4.12 387.55 L6.71 385.57 C7.07 385.99 7.52 386.24
								 8.04 386.33 ZM4.2 389.66 L6.18 390.33 C6.14 390.46 6.14 390.59 6.14 390.75 C6.14 391.43 6.43 392.02
								 6.83 392.44 L5.62 394.21 C5.29 394.04 4.93 393.92 4.57 393.92 C4.45 393.92 4.28 393.92 4.16 393.96
								 L3.19 390.8 C3.6 390.54 3.96 390.16 4.2 389.66 ZM12.16 393.92 C11.8 393.92 11.44 394 11.11 394.21
								 L9.9 392.44 C10.35 392.02 10.59 391.43 10.59 390.75 C10.59 390.63 10.59 390.46 10.55 390.33 L12.53
								 389.66 C12.73 390.12 13.13 390.5 13.58 390.75 L12.57 393.92 C12.41 393.92 12.29 393.92 12.16 393.92
								 ZM12.89 388.69 C12.89 387.76 13.62 387 14.51 387 C15.4 387 16.12 387.76 16.12 388.69 C16.12 389.62
								 15.4 390.37 14.51 390.37 C13.62 390.37 12.89 389.62 12.89 388.69 Z" class="st17"/>
				</g>
			</g>
		</g>
		<g id="group95-146" transform="translate(678.091,-236.828)" v:mID="95" v:groupContext="group">
			<title>Internet Gateway</title>
			<g id="shape96-147" v:mID="96" v:groupContext="shape" transform="translate(0.511259,5.68434E-14)">
				<title>Sheet.96</title>
				<desc>Internet Gateway</desc>
				<v:textBlock v:margins="rect(4,4,4,4)"/>
				<v:textRect cx="20.516" cy="388.954" width="41.04" height="19.1963"/>
				<rect x="0" y="379.356" width="41.032" height="19.1963" class="st18"/>
				<text x="6.27" y="386.55" class="st19" v:langID="1033"><v:paragraph v:horizAlign="1" v:bulletSize="0.166667"/><v:tabList/>Internet <tspan
							x="5" dy="1.2em" class="st20">Gateway</tspan></text>			</g>
			<g id="group97-151" transform="translate(5.19584E-14,-19.7397)" v:mID="97" v:groupContext="group">
				<title>Internet Gateway</title>
				<g id="shape98-152" v:mID="98" v:groupContext="shape" transform="translate(0.537095,-0.784159)">
					<title>Sheet.98</title>
					<path d="M16.17 394.15 L17.72 392.63 C17.4 392.58 17.08 392.52 16.76 392.43 L16.34 392.33 C16.05 392.26 15.77
								 392.17 15.49 392.08 A5.37095 5.37095 0 0 1 14.94 391.89 L14.27 391.62 L13.59 391.33 L13.15 391.12
								 L12.29 390.66 L11.98 390.46 C11.64 390.26 11.35 390.08 11.09 389.88 L10.62 389.55 L10.16 389.21
								 L9.72 388.84 A16.6285 16.6285 0 0 1 8.06 387.2 L7.67 386.76 L7.33 386.3 L6.98 385.84 C6.79 385.57
								 6.61 385.29 6.42 385 L6.21 384.63 C6.06 384.37 5.92 384.12 5.78 383.85 C5.64 383.58 5.61 383.5 5.53
								 383.34 C5.46 383.18 5.33 382.89 5.24 382.67 C5.16 382.44 5.05 382.21 4.97 381.99 A4.29676 4.29676
								 0 0 1 4.83 381.51 C4.72 381.16 4.63 380.88 4.55 380.59 L4.47 380.18 C4.39 379.86 4.32 379.53 4.26
								 379.2 L4.18 378.66 C4.18 378.47 4.11 378.27 4.09 378.07 L4.09 377.55 L0 377.55 L0 375.12 L4.06 375.12
								 L4.06 374.61 C4.06 374.4 4.11 374.21 4.15 374.02 L4.23 373.48 C4.23 373.15 4.36 372.82 4.45 372.48
								 C4.53 372.15 4.51 372.18 4.54 372.07 C4.62 371.78 4.7 371.5 4.8 371.21 C4.9 370.92 4.92 370.86 4.97
								 370.68 C5.03 370.49 5.16 370.22 5.25 369.99 C5.35 369.76 5.44 369.55 5.54 369.32 C5.65 369.1 5.71
								 368.98 5.8 368.81 C5.89 368.64 6.07 368.29 6.22 368.03 L6.45 367.66 C6.62 367.38 6.8 367.1 6.99
								 366.82 L7.33 366.37 C7.43 366.21 7.55 366.05 7.67 365.9 L8.06 365.45 A15.5113 15.5113 0 0 1 9.72
								 363.85 L10.15 363.47 L10.63 363.12 L11.06 362.79 C11.34 362.6 11.63 362.42 11.91 362.24 L12.28 362.02
								 L13.07 361.59 L13.58 361.34 C13.8 361.24 14.03 361.14 14.25 361.05 L14.93 360.77 L15.41 360.61 L16.33
								 360.34 L16.74 360.24 L17.72 360.02 L16.17 358.5 L20.57 354.09 L24.99 358.5 L23.45 360.02 L24.42
								 360.23 L24.84 360.33 C25.13 360.41 25.4 360.49 25.68 360.59 L26.23 360.76 L26.91 361.04 L27.59 361.33
								 C27.72 361.4 27.86 361.46 27.99 361.54 L28.1 361.59 C28.36 361.72 28.62 361.86 28.87 362.01 L29.19
								 362.19 L30.09 362.78 L30.56 363.13 L31.01 363.46 L31.45 363.82 A15.3072 15.3072 0 0 1 33.07 365.44
								 L33.46 365.89 C33.58 366.04 33.7 366.2 33.8 366.36 L34.14 366.81 C34.33 367.09 34.51 367.37 34.69
								 367.65 L34.91 368.01 C35.06 368.27 35.2 368.54 35.33 368.8 L35.59 369.31 C35.7 369.54 35.79 369.76
								 35.88 369.99 C35.97 370.22 36.07 370.44 36.15 370.67 C36.22 370.89 36.26 371 36.32 371.17 C36.37
								 371.34 36.51 371.77 36.59 372.06 L36.68 372.47 C36.77 372.8 36.83 373.14 36.9 373.47 L36.98 374.01
								 A5.22057 5.22057 0 0 1 37.06 374.6 L37.06 375.11 L41.11 375.11 L41.11 377.53 L37.06 377.53 L37.06
								 378.04 A5.37095 5.37095 0 0 1 36.98 378.62 L36.9 379.16 C36.83 379.5 36.77 379.83 36.68 380.15 L36.59
								 380.57 C36.51 380.86 36.43 381.14 36.33 381.42 A5.37095 5.37095 0 0 1 36.15 381.97 C36.07 382.19
								 35.97 382.42 35.88 382.64 C35.78 382.87 35.7 383.1 35.59 383.32 L35.35 383.79 C35.2 384.09 35.06
								 384.35 34.91 384.61 L34.69 384.97 C34.51 385.26 34.33 385.54 34.14 385.82 L33.82 386.26 L33.46 386.75
								 L33.09 387.21 A16.4029 16.4029 0 0 1 31.43 388.78 L31 389.15 L30.55 389.49 L30.08 389.83 C29.8 390.02
								 29.52 390.21 29.23 390.38 L28.87 390.6 C28.61 390.75 28.35 390.89 28.08 391.02 L27.98 391.02 L27.57
								 391.23 L26.9 391.52 L26.22 391.79 L25.67 391.97 C25.39 392.06 25.11 392.15 24.82 392.23 L24.41 392.32
								 C24.08 392.41 23.76 392.47 23.44 392.53 L24.99 394.15 L20.57 398.55 L16.17 394.15 ZM21.78 393.94
								 L23.1 392.7 L22.94 392.7 A5.55356 5.55356 0 0 1 22.35 392.77 L21.84 392.77 L21.78 393.94 ZM19.37
								 393.94 L19.37 392.87 L18.85 392.87 A5.22057 5.22057 0 0 1 18.26 392.79 L18.11 392.79 L19.37 393.94
								 ZM22.3 359.85 L22.89 359.94 L23.04 359.94 L21.78 358.7 L21.78 359.77 L22.3 359.85 ZM18.11 359.96
								 L18.26 359.96 L18.85 359.87 L19.37 359.77 L19.37 358.7 L18.11 359.96 Z" class="st21"/>
				</g>
				<g id="shape99-154" v:mID="99" v:groupContext="shape">
					<title>Sheet.99</title>
					<path d="M21.11 354.06 L22.73 355.68 L22.78 355.74 L24.76 357.71 L23.81 358.66 L22.74 357.58 L21.74 356.57 L21.74
								 359.55 L22.74 359.62 L23.51 359.74 L23.84 359.74 C24.16 359.74 24.47 359.87 24.79 359.95 L25.19
								 360.04 L26.02 360.29 L26.54 360.46 L27.2 360.73 L27.93 361.03 L28.42 361.28 C28.68 361.41 28.93
								 361.54 29.18 361.69 L29.53 361.9 C29.81 362.07 30.09 362.24 30.36 362.44 L30.6 362.63 C30.82 362.78
								 31.03 362.93 31.24 363.09 A16.3814 16.3814 0 0 1 33.6 365.46 C33.76 365.66 33.91 365.88 34.06 366.08
								 L34.26 366.34 C34.45 366.61 34.62 366.89 34.79 367.16 C34.96 367.44 34.93 367.39 35.01 367.52 C35.08
								 367.65 35.29 368.01 35.42 368.27 C35.54 368.53 35.58 368.6 35.66 368.77 C35.75 368.93 35.86 369.19
								 35.94 369.42 C36.03 369.65 36.13 369.85 36.2 370.08 C36.28 370.3 36.32 370.43 36.38 370.6 C36.45
								 370.77 36.55 371.15 36.63 371.43 L36.73 371.83 C36.8 372.15 36.87 372.46 36.93 372.78 C36.93 372.89
								 36.93 373 36.93 373.11 C36.93 373.21 37.02 373.62 37.05 373.88 C37.05 374.22 37.07 374.55 37.11
								 374.88 L41.16 374.88 L41.16 376.18 L37.1 376.18 C37.1 376.51 37.08 376.85 37.04 377.18 C37.04 377.43
								 36.96 377.69 36.92 377.95 C36.88 378.21 36.92 378.16 36.92 378.27 C36.86 378.59 36.79 378.91 36.72
								 379.23 L36.62 379.63 C36.54 379.9 36.46 380.17 36.37 380.45 C36.29 380.73 36.25 380.8 36.19 380.98
								 C36.13 381.16 36.02 381.42 35.93 381.63 C35.85 381.85 35.75 382.07 35.65 382.29 L35.41 382.78 L35
								 383.54 L34.78 383.89 C34.61 384.17 34.44 384.44 34.25 384.71 L34.05 384.97 C33.9 385.18 33.75 385.39
								 33.59 385.6 A16.3814 16.3814 0 0 1 31.15 387.99 C30.95 388.15 30.73 388.3 30.52 388.46 L30.27 388.65
								 C30 388.84 29.72 389.01 29.44 389.19 L29.09 389.4 C28.84 389.54 28.59 389.68 28.34 389.81 L27.84
								 390.06 L27.19 390.34 L26.53 390.59 L26.01 390.78 L25.18 391.02 L24.78 391.12 L23.83 391.32 L23.5
								 391.32 L22.73 391.44 C22.39 391.44 22.06 391.46 21.73 391.51 L21.73 394.44 L22.73 393.44 L23.8 392.37
								 L24.75 393.31 L22.77 395.29 L22.04 396.01 L21.1 396.95 L20.15 396.01 L19.43 395.29 L17.47 393.36
								 L18.41 392.42 L19.49 393.49 L20.41 394.44 L20.41 391.54 C20.07 391.54 19.74 391.52 19.41 391.47
								 L18.64 391.36 L18.31 391.36 L17.36 391.15 L16.96 391.05 L16.13 390.81 L15.61 390.63 C15.38 390.55
								 15.17 390.45 14.95 390.37 L14.3 390.09 L13.8 389.84 C13.55 389.71 13.3 389.57 13.05 389.43 L12.7
								 389.22 C12.42 389.05 12.14 388.87 11.87 388.68 L11.62 388.49 C11.41 388.34 11.19 388.19 10.99 388.03
								 A16.3814 16.3814 0 0 1 8.63 385.66 C8.46 385.46 8.31 385.24 8.16 385.03 C8.01 384.81 8.03 384.87
								 7.97 384.77 C7.78 384.5 7.61 384.23 7.43 383.95 C7.36 383.84 7.28 383.72 7.22 383.6 C7.15 383.48
								 6.94 383.1 6.81 382.85 L6.56 382.35 C6.47 382.14 6.37 381.91 6.28 381.7 C6.2 381.48 6.1 381.26 6.02
								 381.04 C5.93 380.83 5.9 380.69 5.84 380.52 C5.79 380.35 5.67 379.97 5.6 379.69 L5.5 379.29 C5.42
								 378.97 5.36 378.66 5.3 378.33 C5.3 378.23 5.3 378.12 5.3 378.01 C5.3 377.91 5.21 377.5 5.18 377.24
								 C5.18 376.91 5.18 376.57 5.1 376.24 L1.07 376.24 L1.07 374.88 L5.11 374.88 C5.11 374.54 5.11 374.21
								 5.19 373.88 C5.19 373.62 5.26 373.36 5.31 373.11 C5.35 372.85 5.31 372.89 5.31 372.78 C5.37 372.46
								 5.44 372.15 5.51 371.83 L5.61 371.43 C5.68 371.15 5.77 370.87 5.85 370.6 L6.03 370.08 C6.11 369.85
								 6.2 369.64 6.29 369.42 C6.39 369.21 6.48 368.98 6.57 368.77 C6.67 368.55 6.74 368.43 6.82 368.27
								 C6.91 368.11 7.08 367.77 7.23 367.52 A4.07118 4.07118 0 0 1 7.52 367.15 C7.69 366.89 7.86 366.61
								 8.06 366.34 L8.25 366.08 C8.4 365.88 8.55 365.66 8.71 365.46 A16.3814 16.3814 0 0 1 11.07 363.09
								 L11.7 362.63 L11.96 362.44 C12.22 362.24 12.5 362.07 12.78 361.9 A3.88857 3.88857 0 0 1 13.14 361.69
								 C13.38 361.55 13.63 361.41 13.89 361.28 L14.38 361.03 L15.04 360.75 L15.69 360.48 L16.22 360.31
								 L16.99 360.06 L17.39 359.97 C17.71 359.89 18.02 359.82 18.35 359.76 L18.67 359.76 L19.44 359.65
								 L20.41 359.55 L20.41 356.62 L19.41 357.63 L18.34 358.7 L17.39 357.75 L19.44 355.77 L19.44 355.71
								 L21.05 354.09 L21.11 354.06 ZM21.05 352.58 L20.41 353.31 L18.8 354.92 L18.73 354.92 L16.7 356.95
								 L15.95 357.71 L16.7 358.47 L17.15 358.91 L17.04 358.91 L16.71 358.99 L15.83 359.26 L15.78 359.26
								 L15.27 359.42 L14.57 359.7 L13.88 360.06 L13.43 360.29 L13.35 360.29 C13.07 360.43 12.8 360.57 12.55
								 360.72 L12.27 360.89 L12.16 360.96 C11.87 361.14 11.58 361.32 11.29 361.53 A1.17087 1.17087 -180
								 0 0 11.11 361.66 L11.01 361.73 L10.84 361.86 L10.34 362.21 L9.43 362.95 C9.13 363.23 8.84 363.51
								 8.56 363.81 L7.8 364.72 L7.43 365.2 L7.33 365.44 L7.26 365.53 A1.17087 1.17087 -180 0 0 7.12 365.71
								 C6.92 366 6.74 366.29 6.55 366.58 L6.55 366.68 L6.37 366.97 C6.22 367.23 6.08 367.5 5.94 367.78
								 C5.8 368.06 5.76 368.13 5.67 368.3 C5.59 368.48 5.47 368.77 5.37 368.99 C5.27 369.22 5.19 369.46
								 5.1 369.7 C5.02 369.94 4.98 370.03 4.93 370.19 L4.93 370.26 C4.83 370.55 4.75 370.84 4.66 371.14
								 C4.66 371.25 4.66 371.35 4.59 371.46 L4.59 371.57 C4.5 371.9 4.43 372.25 4.37 372.64 L4.37 372.87
								 L4.37 372.98 L4.37 373.2 C4.37 373.41 4.31 373.6 4.29 373.81 L0 373.81 L0 377.25 L4.09 377.25 C4.09
								 377.46 4.15 377.66 4.18 377.86 L4.18 378.08 L4.3 378.33 L4.3 378.54 C4.35 378.89 4.43 379.23 4.51
								 379.61 L4.51 379.72 C4.51 379.83 4.51 379.94 4.59 380.04 C4.67 380.35 4.76 380.64 4.86 380.93 L5.02
								 381.44 C5.11 381.68 5.2 381.91 5.3 382.14 C5.39 382.36 5.49 382.61 5.6 382.84 L5.84 383.32 C6 383.63
								 6.14 383.91 6.29 384.17 L6.47 384.45 L6.53 384.56 C6.71 384.85 6.9 385.14 7.1 385.43 L7.24 385.62
								 L7.3 385.71 L7.43 385.88 C7.55 386.05 7.67 386.21 7.8 386.37 L8.55 387.28 C8.83 387.59 9.12 387.88
								 9.42 388.15 L10.31 388.91 L10.8 389.27 L10.98 389.4 L11.07 389.48 L11.25 389.6 C11.54 389.81 11.84
								 389.99 12.13 390.17 L12.22 390.23 L12.5 390.4 C12.77 390.56 13.04 390.7 13.32 390.84 L13.37 390.84
								 L13.85 391.08 L14.54 391.38 L15.24 391.66 L15.75 391.83 L15.8 391.83 C16.09 391.92 16.38 392.01
								 16.68 392.09 L17 392.17 L17.11 392.17 L16.66 392.62 L15.91 393.39 L16.66 394.15 L18.64 396.12 L19.37
								 396.84 L20.31 397.79 L21.06 398.55 L21.83 397.79 L22.77 396.84 L23.5 396.12 L25.47 394.15 L26.23
								 393.39 L25.47 392.62 L25.02 392.17 L25.13 392.17 L25.45 392.09 C25.75 392.01 26.04 391.92 26.33
								 391.83 L26.88 391.65 L27.6 391.36 C27.82 391.27 28.06 391.16 28.28 391.05 C28.51 390.95 28.59 390.9
								 28.75 390.83 L28.81 390.83 C29.08 390.69 29.36 390.55 29.62 390.39 L29.97 390.14 L30.08 390.14 C30.37
								 389.96 30.66 389.78 30.95 389.57 L31.14 389.43 L31.23 389.37 L31.4 389.24 L31.89 388.87 L32.8 388.13
								 C33.09 387.85 33.38 387.57 33.65 387.27 L34.43 386.36 C34.56 386.2 34.67 386.03 34.8 385.86 L34.92
								 385.69 L34.99 385.61 L35.13 385.42 C35.33 385.13 35.51 384.84 35.7 384.55 L35.7 384.45 L35.87 384.17
								 C36.03 383.9 36.17 383.62 36.31 383.35 C36.45 383.08 36.49 382.99 36.57 382.83 C36.64 382.67 36.78
								 382.36 36.87 382.13 C36.95 381.89 37.06 381.67 37.15 381.43 C37.23 381.19 37.26 381.09 37.32 380.91
								 L37.32 380.86 C37.42 380.58 37.5 380.29 37.58 379.99 C37.58 379.88 37.58 379.78 37.66 379.67 L37.66
								 379.56 C37.75 379.22 37.82 378.88 37.88 378.54 L37.88 378.3 L37.88 378.2 L37.88 377.98 C37.88 377.78
								 37.94 377.57 37.96 377.37 L42.05 377.37 L42.05 373.8 L38.12 373.8 C38.12 373.59 38.07 373.4 38.04
								 373.19 L38.04 372.98 L38.04 372.87 L38.04 372.63 C38.04 372.29 37.91 371.96 37.82 371.56 L37.82
								 371.44 C37.82 371.33 37.82 371.24 37.75 371.13 C37.67 370.83 37.59 370.54 37.49 370.25 L37.49 370.19
								 C37.44 370.02 37.38 369.86 37.32 369.69 C37.25 369.52 37.13 369.22 37.04 368.99 C36.94 368.77 36.84
								 368.52 36.74 368.29 C36.63 368.07 36.59 367.97 36.5 367.81 C36.34 367.49 36.2 367.22 36.05 366.96
								 L35.88 366.68 L35.81 366.57 C35.63 366.28 35.45 365.99 35.24 365.7 L35.1 365.52 L34.9 365.44 L34.77
								 365.26 C34.65 365.09 34.54 364.93 34.41 364.77 L33.65 363.85 C33.38 363.54 33.09 363.25 32.8 362.99
								 L31.88 362.21 L31.39 361.85 L31.22 361.72 L31.15 361.7 L30.96 361.56 C30.67 361.35 30.38 361.17
								 30.08 360.99 L29.99 360.93 L29.7 360.75 C29.44 360.6 29.16 360.46 28.9 360.32 L28.83 360.32 L28.35
								 360.06 L27.65 359.76 L26.95 359.5 L26.45 359.32 L26.39 359.32 L25.51 358.99 L25.19 358.99 L25.08
								 358.99 L25.53 358.55 L26.3 357.79 L25.53 357.02 L23.55 354.97 L23.49 354.97 L21.87 353.31 L21.11
								 352.55 L21.05 352.58 Z" class="st22"/>
					<path d="M21.11 354.06 L22.73 355.68 L22.78 355.74 L24.76 357.71 L23.81 358.66 L22.74 357.58 L21.74 356.57 L21.74
								 359.55 L22.74 359.62 L23.51 359.74 L23.84 359.74 C24.16 359.74 24.47 359.87 24.79 359.95 L25.19
								 360.04 L26.02 360.29 L26.54 360.46 L27.2 360.73 L27.93 361.03 L28.42 361.28 C28.68 361.41 28.93
								 361.54 29.18 361.69 L29.53 361.9 C29.81 362.07 30.09 362.24 30.36 362.44 L30.6 362.63 C30.82 362.78
								 31.03 362.93 31.24 363.09 A16.3814 16.3814 0 0 1 33.6 365.46 C33.76 365.66 33.91 365.88 34.06 366.08
								 L34.26 366.34 C34.45 366.61 34.62 366.89 34.79 367.16 C34.96 367.44 34.93 367.39 35.01 367.52 C35.08
								 367.65 35.29 368.01 35.42 368.27 C35.54 368.53 35.58 368.6 35.66 368.77 C35.75 368.93 35.86 369.19
								 35.94 369.42 C36.03 369.65 36.13 369.85 36.2 370.08 C36.28 370.3 36.32 370.43 36.38 370.6 C36.45
								 370.77 36.55 371.15 36.63 371.43 L36.73 371.83 C36.8 372.15 36.87 372.46 36.93 372.78 C36.93 372.89
								 36.93 373 36.93 373.11 C36.93 373.21 37.02 373.62 37.05 373.88 C37.05 374.22 37.07 374.55 37.11
								 374.88 L41.16 374.88 L41.16 376.18 L37.1 376.18 C37.1 376.51 37.08 376.85 37.04 377.18 C37.04 377.43
								 36.96 377.69 36.92 377.95 C36.88 378.21 36.92 378.16 36.92 378.27 C36.86 378.59 36.79 378.91 36.72
								 379.23 L36.62 379.63 C36.54 379.9 36.46 380.17 36.37 380.45 C36.29 380.73 36.25 380.8 36.19 380.98
								 C36.13 381.16 36.02 381.42 35.93 381.63 C35.85 381.85 35.75 382.07 35.65 382.29 L35.41 382.78 L35
								 383.54 L34.78 383.89 C34.61 384.17 34.44 384.44 34.25 384.71 L34.05 384.97 C33.9 385.18 33.75 385.39
								 33.59 385.6 A16.3814 16.3814 0 0 1 31.15 387.99 C30.95 388.15 30.73 388.3 30.52 388.46 L30.27 388.65
								 C30 388.84 29.72 389.01 29.44 389.19 L29.09 389.4 C28.84 389.54 28.59 389.68 28.34 389.81 L27.84
								 390.06 L27.19 390.34 L26.53 390.59 L26.01 390.78 L25.18 391.02 L24.78 391.12 L23.83 391.32 L23.5
								 391.32 L22.73 391.44 C22.39 391.44 22.06 391.46 21.73 391.51 L21.73 394.44 L22.73 393.44 L23.8 392.37
								 L24.75 393.31 L22.77 395.29 L22.04 396.01 L21.1 396.95 L20.15 396.01 L19.43 395.29 L17.47 393.36
								 L18.41 392.42 L19.49 393.49 L20.41 394.44 L20.41 391.54 C20.07 391.54 19.74 391.52 19.41 391.47
								 L18.64 391.36 L18.31 391.36 L17.36 391.15 L16.96 391.05 L16.13 390.81 L15.61 390.63 C15.38 390.55
								 15.17 390.45 14.95 390.37 L14.3 390.09 L13.8 389.84 C13.55 389.71 13.3 389.57 13.05 389.43 L12.7
								 389.22 C12.42 389.05 12.14 388.87 11.87 388.68 L11.62 388.49 C11.41 388.34 11.19 388.19 10.99 388.03
								 A16.3814 16.3814 0 0 1 8.63 385.66 C8.46 385.46 8.31 385.24 8.16 385.03 C8.01 384.81 8.03 384.87
								 7.97 384.77 C7.78 384.5 7.61 384.23 7.43 383.95 C7.36 383.84 7.28 383.72 7.22 383.6 C7.15 383.48
								 6.94 383.1 6.81 382.85 L6.56 382.35 C6.47 382.14 6.37 381.91 6.28 381.7 C6.2 381.48 6.1 381.26 6.02
								 381.04 C5.93 380.83 5.9 380.69 5.84 380.52 C5.79 380.35 5.67 379.97 5.6 379.69 L5.5 379.29 C5.42
								 378.97 5.36 378.66 5.3 378.33 C5.3 378.23 5.3 378.12 5.3 378.01 C5.3 377.91 5.21 377.5 5.18 377.24
								 C5.18 376.91 5.18 376.57 5.1 376.24 L1.07 376.24 L1.07 374.88 L5.11 374.88 C5.11 374.54 5.11 374.21
								 5.19 373.88 C5.19 373.62 5.26 373.36 5.31 373.11 C5.35 372.85 5.31 372.89 5.31 372.78 C5.37 372.46
								 5.44 372.15 5.51 371.83 L5.61 371.43 C5.68 371.15 5.77 370.87 5.85 370.6 L6.03 370.08 C6.11 369.85
								 6.2 369.64 6.29 369.42 C6.39 369.21 6.48 368.98 6.57 368.77 C6.67 368.55 6.74 368.43 6.82 368.27
								 C6.91 368.11 7.08 367.77 7.23 367.52 A4.07118 4.07118 0 0 1 7.52 367.15 C7.69 366.89 7.86 366.61
								 8.06 366.34 L8.25 366.08 C8.4 365.88 8.55 365.66 8.71 365.46 A16.3814 16.3814 0 0 1 11.07 363.09
								 L11.7 362.63 L11.96 362.44 C12.22 362.24 12.5 362.07 12.78 361.9 A3.88857 3.88857 0 0 1 13.14 361.69
								 C13.38 361.55 13.63 361.41 13.89 361.28 L14.38 361.03 L15.04 360.75 L15.69 360.48 L16.22 360.31
								 L16.99 360.06 L17.39 359.97 C17.71 359.89 18.02 359.82 18.35 359.76 L18.67 359.76 L19.44 359.65
								 L20.41 359.55 L20.41 356.62 L19.41 357.63 L18.34 358.7 L17.39 357.75 L19.44 355.77 L19.44 355.71
								 L21.05 354.09M21.05 352.58 L20.41 353.31 L18.8 354.92 L18.73 354.92 L16.7 356.95 L15.95 357.71 L16.7
								 358.47 L17.15 358.91 L17.04 358.91 L16.71 358.99 L15.83 359.26 L15.78 359.26 L15.27 359.42 L14.57
								 359.7 L13.88 360.06 L13.43 360.29 L13.35 360.29 C13.07 360.43 12.8 360.57 12.55 360.72 L12.27 360.89
								 L12.16 360.96 C11.87 361.14 11.58 361.32 11.29 361.53 A1.17087 1.17087 -180 0 0 11.11 361.66 L11.01
								 361.73 L10.84 361.86 L10.34 362.21 L9.43 362.95 C9.13 363.23 8.84 363.51 8.56 363.81 L7.8 364.72
								 L7.43 365.2 L7.33 365.44 L7.26 365.53 A1.17087 1.17087 -180 0 0 7.12 365.71 C6.92 366 6.74 366.29
								 6.55 366.58 L6.55 366.68 L6.37 366.97 C6.22 367.23 6.08 367.5 5.94 367.78 C5.8 368.06 5.76 368.13
								 5.67 368.3 C5.59 368.48 5.47 368.77 5.37 368.99 C5.27 369.22 5.19 369.46 5.1 369.7 C5.02 369.94
								 4.98 370.03 4.93 370.19 L4.93 370.26 C4.83 370.55 4.75 370.84 4.66 371.14 C4.66 371.25 4.66 371.35
								 4.59 371.46 L4.59 371.57 C4.5 371.9 4.43 372.25 4.37 372.64 L4.37 372.87 L4.37 372.98 L4.37 373.2
								 C4.37 373.41 4.31 373.6 4.29 373.81 L0 373.81 L0 377.25 L4.09 377.25 C4.09 377.46 4.15 377.66 4.18
								 377.86 L4.18 378.08 L4.3 378.33 L4.3 378.54 C4.35 378.89 4.43 379.23 4.51 379.61 L4.51 379.72 C4.51
								 379.83 4.51 379.94 4.59 380.04 C4.67 380.35 4.76 380.64 4.86 380.93 L5.02 381.44 C5.11 381.68 5.2
								 381.91 5.3 382.14 C5.39 382.36 5.49 382.61 5.6 382.84 L5.84 383.32 C6 383.63 6.14 383.91 6.29 384.17
								 L6.47 384.45 L6.53 384.56 C6.71 384.85 6.9 385.14 7.1 385.43 L7.24 385.62 L7.3 385.71 L7.43 385.88
								 C7.55 386.05 7.67 386.21 7.8 386.37 L8.55 387.28 C8.83 387.59 9.12 387.88 9.42 388.15 L10.31 388.91
								 L10.8 389.27 L10.98 389.4 L11.07 389.48 L11.25 389.6 C11.54 389.81 11.84 389.99 12.13 390.17 L12.22
								 390.23 L12.5 390.4 C12.77 390.56 13.04 390.7 13.32 390.84 L13.37 390.84 L13.85 391.08 L14.54 391.38
								 L15.24 391.66 L15.75 391.83 L15.8 391.83 C16.09 391.92 16.38 392.01 16.68 392.09 L17 392.17 L17.11
								 392.17 L16.66 392.62 L15.91 393.39 L16.66 394.15 L18.64 396.12 L19.37 396.84 L20.31 397.79 L21.06
								 398.55 L21.83 397.79 L22.77 396.84 L23.5 396.12 L25.47 394.15 L26.23 393.39 L25.47 392.62 L25.02
								 392.17 L25.13 392.17 L25.45 392.09 C25.75 392.01 26.04 391.92 26.33 391.83 L26.88 391.65 L27.6 391.36
								 C27.82 391.27 28.06 391.16 28.28 391.05 C28.51 390.95 28.59 390.9 28.75 390.83 L28.81 390.83 C29.08
								 390.69 29.36 390.55 29.62 390.39 L29.97 390.14 L30.08 390.14 C30.37 389.96 30.66 389.78 30.95 389.57
								 L31.14 389.43 L31.23 389.37 L31.4 389.24 L31.89 388.87 L32.8 388.13 C33.09 387.85 33.38 387.57 33.65
								 387.27 L34.43 386.36 C34.56 386.2 34.67 386.03 34.8 385.86 L34.92 385.69 L34.99 385.61 L35.13 385.42
								 C35.33 385.13 35.51 384.84 35.7 384.55 L35.7 384.45 L35.87 384.17 C36.03 383.9 36.17 383.62 36.31
								 383.35 C36.45 383.08 36.49 382.99 36.57 382.83 C36.64 382.67 36.78 382.36 36.87 382.13 C36.95 381.89
								 37.06 381.67 37.15 381.43 C37.23 381.19 37.26 381.09 37.32 380.91 L37.32 380.86 C37.42 380.58 37.5
								 380.29 37.58 379.99 C37.58 379.88 37.58 379.78 37.66 379.67 L37.66 379.56 C37.75 379.22 37.82 378.88
								 37.88 378.54 L37.88 378.3 L37.88 378.2 L37.88 377.98 C37.88 377.78 37.94 377.57 37.96 377.37 L42.05
								 377.37 L42.05 373.8 L38.12 373.8 C38.12 373.59 38.07 373.4 38.04 373.19 L38.04 372.98 L38.04 372.87
								 L38.04 372.63 C38.04 372.29 37.91 371.96 37.82 371.56 L37.82 371.44 C37.82 371.33 37.82 371.24 37.75
								 371.13 C37.67 370.83 37.59 370.54 37.49 370.25 L37.49 370.19 C37.44 370.02 37.38 369.86 37.32 369.69
								 C37.25 369.52 37.13 369.22 37.04 368.99 C36.94 368.77 36.84 368.52 36.74 368.29 C36.63 368.07 36.59
								 367.97 36.5 367.81 C36.34 367.49 36.2 367.22 36.05 366.96 L35.88 366.68 L35.81 366.57 C35.63 366.28
								 35.45 365.99 35.24 365.7 L35.1 365.52 L34.9 365.44 L34.77 365.26 C34.65 365.09 34.54 364.93 34.41
								 364.77 L33.65 363.85 C33.38 363.54 33.09 363.25 32.8 362.99 L31.88 362.21 L31.39 361.85 L31.22 361.72
								 L31.15 361.7 L30.96 361.56 C30.67 361.35 30.38 361.17 30.08 360.99 L29.99 360.93 L29.7 360.75 C29.44
								 360.6 29.16 360.46 28.9 360.32 L28.83 360.32 L28.35 360.06 L27.65 359.76 L26.95 359.5 L26.45 359.32
								 L26.39 359.32 L25.51 358.99 L25.19 358.99 L25.08 358.99 L25.53 358.55 L26.3 357.79 L25.53 357.02
								 L23.55 354.97 L23.49 354.97 L21.87 353.31 L21.11 352.55 L21.05 352.58" class="st23"/>
				</g>
				<g id="shape100-157" v:mID="100" v:groupContext="shape" transform="translate(22.7836,-7.05743)">
					<title>Sheet.100</title>
					<path d="M0 397.2 L0 398.55 A16.1129 16.1129 -180 0 0 14.28 384.31 L12.93 384.31 A14.7272 14.7272 0 0 1 0 397.2
								 Z" class="st24"/>
				</g>
				<g id="shape101-159" v:mID="101" v:groupContext="shape" transform="translate(5.16686,-7.05743)">
					<title>Sheet.101</title>
					<path d="M1.34 384.31 L0 384.31 A16.1129 16.1129 -180 0 0 14.28 398.55 L14.28 397.2 A14.7272 14.7272 0 0 1 1.34
								 384.31 Z" class="st24"/>
				</g>
				<g id="shape102-161" v:mID="102" v:groupContext="shape" transform="translate(22.7836,-24.6742)">
					<title>Sheet.102</title>
					<path d="M12.93 398.55 L14.28 398.55 A16.1129 16.1129 -180 0 0 0 384.28 L0 385.62 A14.7486 14.7486 0 0 1 12.93
								 398.55 Z" class="st24"/>
				</g>
				<g id="shape103-163" v:mID="103" v:groupContext="shape" transform="translate(5.16686,-24.6742)">
					<title>Sheet.103</title>
					<path d="M14.28 385.62 L14.28 384.28 A16.1129 16.1129 -180 0 0 0 398.55 L1.34 398.55 A14.7486 14.7486 0 0 1 14.28
								 385.62 Z" class="st24"/>
				</g>
				<g id="shape104-165" v:mID="104" v:groupContext="shape" transform="translate(17.4663,-1.52535)">
					<title>Sheet.104</title>
					<path d="M4.32 358.14 L5.32 359.15 L6.35 360.18 L7.29 359.24 L5.32 357.26 L5.26 357.21 L3.64 355.59 L2.03 357.21
								 L1.98 357.26 L0 359.24 L0.95 360.18 L1.98 359.15 L2.98 358.14 L2.98 396 L1.98 395 L0.95 393.97 L0
								 394.91 L1.98 396.89 L2.7 397.61 L3.64 398.55 L4.59 397.61 L5.32 396.89 L7.29 394.91 L6.35 393.97
								 L5.32 395 L4.32 396 L4.32 358.14 Z" class="st24"/>
				</g>
				<g id="shape105-167" v:mID="105" v:groupContext="shape" transform="translate(21.8383,-19.3569)">
					<title>Sheet.105</title>
					<path d="M2.56 394.23 L3.56 393.24 L4.59 392.2 L3.64 391.26 L1.66 393.24 L0 394.9 L1.66 396.58 L3.64 398.55 L4.59
								 397.61 L3.56 396.58 L2.56 395.58 L19.31 395.58 L19.31 394.23 L2.56 394.23 Z" class="st24"/>
				</g>
				<g id="shape106-169" v:mID="106" v:groupContext="shape" transform="translate(1.07419,-19.3569)">
					<title>Sheet.106</title>
					<path d="M16.76 395.58 L15.76 396.58 L14.73 397.61 L15.67 398.55 L18.37 395.85 L19.31 394.9 L18.37 393.97 L15.67
								 391.26 L14.73 392.2 L15.76 393.24 L16.76 394.23 L0 394.23 L0 395.58 L16.76 395.58 Z" class="st24"/>
				</g>
			</g>
		</g>
		<g id="group116-171" transform="translate(674.02,-102.25)" v:mID="116" v:groupContext="group">
			<title>Service Gateway</title>
			<g id="group117-172" transform="translate(8.85931,-16.5965)" v:mID="117" v:groupContext="group">
				<title>Service Gateway</title>
				<g id="shape118-173" v:mID="118" v:groupContext="shape" transform="translate(0.401591,5.68434E-14)">
					<title>Sheet.118</title>
					<path d="M18.26 398.55 A14.6982 14.6982 0 0 1 6.48 392.68 A15.2042 15.2042 0 0 1 4.26 390.82 A7.83102 7.83102
								 0 0 1 3.34 389.81 C3.21 389.65 2.66 388.91 2.54 388.68 C2.42 388.45 2.39 388.44 2.31 388.31 L2.1
								 387.96 C2 387.79 1.9 387.63 1.81 387.46 C1.72 387.29 1.67 387.2 1.61 387.06 L1.42 386.67 C1.34 386.5
								 1.26 386.34 1.19 386.18 C1.12 386.01 1.07 385.87 1.01 385.71 L0.84 385.3 C0.77 385.15 0.71 384.99
								 0.66 384.82 C0.6 384.65 0.56 384.45 0.51 384.26 L0.4 383.83 C0.4 383.69 0.33 383.55 0.3 383.4 C0.27
								 383.26 0.21 382.89 0.18 382.6 L0.13 382.24 C0.13 382.13 0.09 382.02 0.07 381.91 C0.02 381.44 0 380.94
								 0 380.43 A14.8267 14.8267 0 0 1 14.81 365.62 C15.28 365.62 15.78 365.62 16.28 365.69 L16.58 365.73
								 L16.75 365.73 C17.07 365.73 17.39 365.81 17.7 365.88 L18.07 366.02 L18.23 366.06 C18.53 366.14 18.79
								 366.2 19.04 366.28 L19.45 366.42 L19.61 366.47 L20.35 366.75 C20.52 366.81 20.68 366.89 20.84 366.96
								 L20.93 366.96 L21.61 367.29 L22.16 367.6 C22.38 367.73 22.6 367.86 22.81 367.99 L23.34 368.35 L23.93
								 368.79 A6.42545 6.42545 0 0 1 24.66 369.42 A14.891 14.891 0 0 1 26.56 371.48 A14.8107 14.8107 0
								 0 1 18.26 398.55 Z" class="st25"/>
				</g>
				<g id="shape119-175" v:mID="119" v:groupContext="shape" transform="translate(1.65867E-13,-4.46592)">
					<title>Sheet.119</title>
					<path d="M15.21 370.49 A14.0798 14.0798 0 0 1 16.64 370.56 L17.1 370.63 C17.41 370.67 17.72 370.71 18.02 370.77
								 C18.21 370.77 18.38 370.86 18.57 370.9 L19.37 371.1 L19.92 371.29 C20.17 371.38 20.41 371.46 20.65
								 371.56 L21.2 371.81 L21.87 372.13 C22.06 372.22 22.23 372.33 22.41 372.43 C22.59 372.54 22.83 372.68
								 23.04 372.81 C23.24 372.94 23.38 373.04 23.55 373.16 C23.72 373.28 23.93 373.45 24.13 373.6 L24.82
								 374.18 A14.5697 14.5697 0 0 1 26.72 376.26 A14.401 14.401 0 1 1 7.16 396.85 A14.393 14.393 0 0 1
								 4.95 395 C4.95 395 4.22 394.2 4.06 394.02 C3.9 393.85 3.39 393.13 3.26 392.91 C3.13 392.7 3.04 392.56
								 2.94 392.38 C2.84 392.21 2.67 391.95 2.55 391.73 C2.43 391.52 2.35 391.34 2.26 391.15 C2.18 390.95
								 2.04 390.71 1.94 390.47 C1.85 390.24 1.78 390.04 1.7 389.82 C1.62 389.61 1.53 389.39 1.46 389.16
								 C1.39 388.94 1.33 388.66 1.27 388.41 C1.2 388.16 1.16 388 1.11 387.79 C1.06 387.58 1.01 387.18 0.97
								 386.87 C0.97 386.71 0.91 386.54 0.89 386.37 C0.83 385.89 0.8 385.4 0.8 384.9 A14.4573 14.4573 0
								 0 1 15.21 370.49 ZM15.21 369.69 A15.2604 15.2604 -180 0 0 -0 384.9 A14.3127 14.3127 -180 0 0 0.08
								 386.45 C0.08 386.57 0.08 386.69 0.13 386.8 C0.18 386.91 0.13 386.92 0.13 386.99 L0.13 387.16 C0.13
								 387.41 0.19 387.68 0.25 387.96 C0.31 388.24 0.32 388.26 0.36 388.41 C0.4 388.56 0.36 388.55 0.42
								 388.61 L0.47 388.82 C0.51 389.02 0.56 389.21 0.63 389.4 C0.69 389.6 0.74 389.74 0.8 389.91 L0.88
								 390.1 L0.95 390.3 A5.11627 5.11627 -180 0 0 1.13 390.79 C1.2 390.97 1.29 391.15 1.37 391.32 L1.47
								 391.5 L1.56 391.69 A4.17654 4.17654 -180 0 0 1.77 392.12 C1.86 392.3 1.97 392.46 2.07 392.64 L2.18
								 392.81 L2.28 392.98 C2.36 393.12 2.43 393.24 2.52 393.37 C2.61 393.5 3.24 394.37 3.39 394.54 A8.835
								 8.835 -180 0 0 4.35 395.6 A14.907 14.907 -180 0 0 6.55 397.44 A15.2042 15.2042 -180 1 0 27.31 375.66
								 A15.2123 15.2123 -180 0 0 25.38 373.58 A7.61416 7.61416 -180 0 0 24.66 372.96 L24.05 372.51 L23.5
								 372.14 C23.29 372 23.07 371.87 22.85 371.74 C22.63 371.61 22.47 371.52 22.28 371.42 L21.57 371.08
								 L21.48 371.04 L20.99 370.82 C20.74 370.71 20.48 370.63 20.23 370.54 L20.03 370.49 L19.6 370.34 C19.33
								 370.26 19.07 370.19 18.79 370.13 L18.74 370.13 L18.58 370.07 L18.18 369.98 C17.85 369.92 17.53 369.87
								 17.2 369.83 L17.05 369.83 L16.71 369.76 C16.21 369.69 15.7 369.69 15.21 369.69 Z" class="st25"/>
				</g>
				<g id="shape120-177" v:mID="120" v:groupContext="shape" transform="translate(2.00795,-8.00772)">
					<title>Sheet.120</title>
					<path d="M1.67 394.87 A13.0678 13.0678 0 0 1 0 388.44 A13.2123 13.2123 0 0 1 19.12 376.63 A15.0195 15.0195 0
								 0 1 22.89 377.74 A14.4118 14.4118 -180 1 0 2.95 398.55 A14.8428 14.8428 0 0 1 1.67 394.87 Z"
							class="st26"/>
				</g>
				<g id="shape121-179" v:mID="121" v:groupContext="shape" transform="translate(8.51172,-1.60636)">
					<title>Sheet.121</title>
					<path d="M10.15 370.93 A14.4171 14.4171 -180 1 0 24.61 385.39 A14.4573 14.4573 -180 0 0 10.15 370.93 ZM10.15
								 398.55 A13.2123 13.2123 0 1 1 23.37 385.35 A13.2204 13.2204 0 0 1 10.15 398.55 Z" class="st26"/>
				</g>
				<g id="shape122-181" v:mID="122" v:groupContext="shape" transform="translate(15.389,-4.05607)">
					<title>Sheet.122</title>
					<path d="M6.55 395.28 L5.71 394.42 L3.88 396.26 L3.88 379.49 L5.71 381.32 L6.55 380.46 L3.28 377.19 L0 380.46
								 L0.85 381.32 L2.68 379.49 L2.68 396.26 L0.85 394.42 L0 395.28 L3.28 398.55 L6.55 395.28 Z"
							class="st26"/>
				</g>
				<g id="shape123-183" v:mID="123" v:groupContext="shape" transform="translate(8.00772,-11.5337)">
					<title>Sheet.123</title>
					<path d="M6.73 398.55 L10.01 395.28 L6.73 392 L5.88 392.84 L7.71 394.67 L0 394.67 L0 395.87 L7.71 395.87 L5.88
								 397.7 L6.73 398.55 Z" class="st26"/>
				</g>
				<g id="shape124-185" v:mID="124" v:groupContext="shape" transform="translate(19.3165,-11.5337)">
					<title>Sheet.124</title>
					<path d="M10.01 394.67 L2.31 394.67 L4.13 392.84 L3.29 392 L0 395.28 L3.29 398.55 L4.13 397.7 L2.31 395.87 L10.01
								 395.87 L10.01 394.67 Z" class="st26"/>
				</g>
			</g>
			<g id="shape125-187" v:mID="125" v:groupContext="shape">
				<title>Sheet.125</title>
				<desc>Service Gateway</desc>
				<v:textBlock v:margins="rect(4,4,4,4)"/>
				<v:textRect cx="25.4209" cy="389.862" width="50.85" height="17.3818"/>
				<rect x="0" y="381.171" width="50.8418" height="17.3818" class="st18"/>
				<text x="12.43" y="387.46" class="st19" v:langID="1033"><v:paragraph v:horizAlign="1" v:bulletSize="0.166667"/><v:tabList/>Service <tspan
							x="9.9" dy="1.2em" class="st20">Gateway</tspan></text>			</g>
		</g>
		<g id="group86-191" transform="translate(148.187,-178.75)" v:mID="86" v:groupContext="group">
			<title>Dynamic Routing Gateway (DRG)</title>
			<g id="group87-192" transform="translate(7.3031,-24.8587)" v:mID="87" v:groupContext="group">
				<title>Direct Routing Gateway DRG</title>
				<g id="shape88-193" v:mID="88" v:groupContext="shape">
					<title>Sheet.88</title>
					<ellipse cx="15.7959" cy="382.757" rx="15.7959" ry="15.7959" class="st10"/>
				</g>
				<g id="shape89-195" v:mID="89" v:groupContext="shape" transform="translate(0.385266,-4.35409)">
					<title>Sheet.89</title>
					<path d="M15.41 371.7 A15.4106 15.4106 0 1 1 -0 387.11 A15.4106 15.4106 0 0 1 15.41 371.7 ZM15.41 370.93 A16.1812
								 16.1812 -180 1 0 31.59 387.11 A16.1812 16.1812 -180 0 0 15.41 370.93 Z" class="st10"/>
				</g>
				<g id="shape90-197" v:mID="90" v:groupContext="shape" transform="translate(4.89894,-1.67205)">
					<title>Sheet.90</title>
					<path d="M10.9 369.02 A15.4106 15.4106 -180 1 0 26.31 384.43 A15.4106 15.4106 -180 0 0 10.9 369.02 ZM10.9 398.55
								 A14.1238 14.1238 0 1 1 25.02 384.43 A14.1393 14.1393 0 0 1 10.9 398.55 Z" class="st27"/>
				</g>
				<g id="shape91-199" v:mID="91" v:groupContext="shape" transform="translate(12.29,-4.29186)">
					<title>Sheet.91</title>
					<path d="M4.15 396.09 L4.15 378.16 L6.1 380.12 L7.01 379.21 L3.51 375.71 L0 379.21 L0.91 380.12 L2.87 378.16
								 L2.87 396.09 L0.91 394.14 L0 395.05 L3.51 398.55 L7.01 395.05 L6.1 394.14 L4.15 396.09 Z"
							class="st27"/>
				</g>
				<g id="shape92-201" v:mID="92" v:groupContext="shape" transform="translate(4.39974,-12.29)">
					<title>Sheet.92</title>
					<path d="M7.2 391.54 L6.29 392.45 L8.24 394.41 L0 394.41 L0 395.69 L8.24 395.69 L6.29 397.64 L7.2 398.55 L10.69
								 395.05 L7.2 391.54 Z" class="st27"/>
				</g>
				<g id="shape93-203" v:mID="93" v:groupContext="shape" transform="translate(16.4971,-12.29)">
					<title>Sheet.93</title>
					<path d="M2.45 394.41 L4.41 392.45 L3.5 391.54 L0 395.05 L3.5 398.55 L4.41 397.64 L2.45 395.69 L10.69 395.69
								 L10.69 394.41 L2.45 394.41 Z" class="st27"/>
				</g>
			</g>
			<g id="shape94-205" v:mID="94" v:groupContext="shape">
				<title>Sheet.94</title>
				<desc>Dynamic Routing Gateway</desc>
				<v:textBlock v:margins="rect(4,4,4,4)"/>
				<v:textRect cx="23.2916" cy="385.951" width="46.59" height="25.2036"/>
				<rect x="0" y="373.349" width="46.5833" height="25.2036" class="st18"/>
				<text x="7.38" y="378.75" class="st19" v:langID="1033"><v:paragraph v:horizAlign="1" v:bulletSize="0.166667"/><v:tabList/>Dynamic<v:newlineChar/><tspan
							x="9.04" dy="1.2em" class="st20">Routing<v:newlineChar/></tspan><tspan x="7.78" dy="1.2em" class="st20">Gateway</tspan></text>			</g>
		</g>
		<g id="group107-210" transform="translate(674.474,-169.318)" v:mID="107" v:groupContext="group">
			<title>NAT  Gateway</title>
			<g id="group108-211" transform="translate(9.77727,-16.7911)" v:mID="108" v:groupContext="group">
				<title>NAT Gateway</title>
				<g id="shape109-212" v:mID="109" v:groupContext="shape" transform="translate(0.440869,-0.27882)">
					<title>Sheet.109</title>
					<path d="M15.25 398.55 A14.9343 14.9343 0 0 1 13.72 398.47 L13.41 398.47 L13.11 398.43 C12.81 398.43 12.52 398.35
								 12.24 398.29 C11.95 398.23 11.67 398.15 11.36 398.08 L11.07 398 L10.81 397.89 A15.5442 15.5442 0
								 0 1 6.68 395.91 L6.34 395.66 L6.04 395.43 L5.49 395.02 L5.19 394.74 L4.94 394.52 C4.75 394.34 4.56
								 394.17 4.38 393.99 L4.11 393.7 C3.85 393.42 3.6 393.14 3.36 392.83 A15.2393 15.2393 0 0 1 1.75 375.98
								 C1.98 375.55 2.22 375.17 2.45 374.8 L2.59 374.6 C2.81 374.29 3.03 373.99 3.25 373.73 L3.5 373.44
								 C3.7 373.19 3.93 372.94 4.17 372.68 L4.44 372.41 C4.68 372.17 4.92 371.93 5.19 371.72 L5.41 371.52
								 C5.72 371.26 6.01 371.04 6.28 370.82 L6.45 370.67 C6.78 370.44 7.13 370.22 7.48 370.01 A15.6227
								 15.6227 0 0 1 11.31 368.41 C11.76 368.3 12.18 368.2 12.61 368.14 L12.68 368.14 L11.24 366.65 L15.24
								 362.65 L19.25 366.65 L17.78 368.14 L17.82 368.14 L18.27 368.2 L18.7 368.31 L19.13 368.42 L19.65
								 368.55 L20.09 368.68 A15.1521 15.1521 0 0 1 22.19 369.56 L22.62 369.77 C22.8 369.87 22.97 369.97
								 23.14 370.08 L23.49 370.3 C23.86 370.53 24.21 370.78 24.56 371.04 A15.5007 15.5007 0 0 1 27.45 373.95
								 C27.74 374.34 27.97 374.68 28.19 375.02 L28.3 375.2 C28.49 375.52 28.68 375.84 28.84 376.16 L29
								 376.46 C29.15 376.76 29.29 377.07 29.42 377.39 L29.57 377.75 C29.68 378.07 29.79 378.38 29.89 378.71
								 L30 379.06 C30.1 379.43 30.18 379.78 30.26 380.15 L30.31 380.39 A12.7473 12.7473 0 0 1 30.5 381.72
								 A15.3613 15.3613 0 0 1 29.4 389.14 A15.1521 15.1521 0 0 1 22.59 396.66 C22.2 396.87 21.85 397.03
								 21.51 397.18 L21.37 397.25 L21.16 397.35 L20.45 397.61 L20.1 397.73 L19.74 397.86 C19.52 397.93
								 19.3 397.98 19.09 398.04 L18.69 398.13 L18.28 398.23 A14.7339 14.7339 0 0 1 15.25 398.54 L15.25
								 398.55 ZM12.77 368.14 L13.06 368.08 L13.65 368 L14.13 367.95 L14.19 367.95 L14.19 366.7 L12.77 368.14
								 ZM16.91 367.99 L17.45 368.07 L17.75 368.12 L16.3 366.7 L16.3 367.94 L16.36 367.94 L16.36 367.9 L16.91
								 367.99 Z" class="st28"/>
				</g>
				<g id="shape110-214" v:mID="110" v:groupContext="shape">
					<title>Sheet.110</title>
					<path d="M15.68 362.99 L17.18 364.48 L17.23 364.54 L19.09 366.38 L18.22 367.25 L17.26 366.29 L16.3 365.36 L16.3
								 368.08 C16.61 368.08 16.93 368.08 17.23 368.14 C17.48 368.14 17.72 368.2 17.96 368.24 L18.6 368.34
								 C18.81 368.38 19.02 368.44 19.22 368.49 C19.42 368.54 19.71 368.61 19.94 368.68 A14.8123 14.8123
								 0 0 1 22.79 369.9 C23.03 370.03 23.24 370.17 23.46 370.3 L23.64 370.41 C23.99 370.64 24.33 370.88
								 24.67 371.13 A14.9082 14.9082 0 0 1 27.54 373.96 L27.59 374.02 C27.83 374.34 28.05 374.67 28.26
								 375 L28.38 375.18 C28.56 375.48 28.73 375.79 28.9 376.11 L29.05 376.4 C29.2 376.69 29.33 377 29.45
								 377.27 C29.5 377.38 29.55 377.5 29.6 377.61 C29.71 377.93 29.81 378.23 29.91 378.55 C29.91 378.67
								 29.99 378.78 30.02 378.9 C30.12 379.24 30.2 379.59 30.28 379.95 C30.28 380.03 30.28 380.11 30.28
								 380.19 A12.756 12.756 0 0 1 30.46 381.47 A14.8123 14.8123 0 0 1 22.77 395.96 L22.71 395.96 C22.39
								 396.13 22.05 396.29 21.72 396.44 L21.37 396.6 C21.1 396.71 20.83 396.81 20.55 396.91 C20.27 397
								 20.19 397.05 20 397.1 C19.8 397.15 19.45 397.25 19.18 397.31 C18.91 397.37 18.79 397.42 18.59 397.45
								 A14.5771 14.5771 0 0 1 15.64 397.75 A14.2111 14.2111 0 0 1 14.15 397.68 L13.67 397.61 C13.35 397.61
								 13.02 397.52 12.7 397.46 C12.38 397.4 12.07 397.31 11.76 397.23 L11.29 397.11 A14.8123 14.8123 0
								 0 1 7.28 395.18 C7.11 395.07 6.95 394.94 6.79 394.81 C6.62 394.69 6.33 394.49 6.12 394.31 C5.91
								 394.13 5.83 394.05 5.68 393.91 C5.53 393.77 5.24 393.53 5.04 393.32 C4.84 393.11 4.87 393.12 4.78
								 393.04 C4.53 392.76 4.29 392.47 4.05 392.17 A14.8123 14.8123 0 0 1 2.58 375.92 C2.79 375.53 3.01
								 375.16 3.25 374.8 L3.41 374.57 C3.61 374.27 3.82 373.98 4.04 373.7 L4.28 373.42 C4.49 373.17 4.7
								 372.92 4.93 372.68 L5.2 372.41 C5.44 372.18 5.67 371.95 5.92 371.73 A2.70979 2.70979 0 0 1 6.17
								 371.53 C6.44 371.3 6.72 371.08 7.04 370.87 L7.2 370.75 C7.54 370.52 7.87 370.3 8.21 370.1 L8.28
								 370.1 A14.6032 14.6032 0 0 1 11.93 368.6 C12.34 368.49 12.75 368.4 13.16 368.33 L13.36 368.33 C13.62
								 368.33 13.87 368.23 14.13 368.2 C14.44 368.2 14.75 368.14 15.06 368.14 L15.06 365.36 L14.13 366.3
								 L13.17 367.26 L12.3 366.38 L14.13 364.55 L14.18 364.49 L15.68 362.99 L15.68 362.99 ZM15.68 361.77
								 L15.07 362.38 L13.57 363.87 L13.52 363.93 L11.68 365.76 L11.06 366.38 L11.68 366.98 L12.27 367.57
								 C12.08 367.57 11.89 367.65 11.71 367.7 A16.1454 16.1454 -180 0 0 7.81 369.31 L7.76 369.35 C7.4 369.56
								 7.05 369.8 6.7 370.03 L6.52 370.16 C6.22 370.38 5.92 370.62 5.65 370.86 L5.39 371.08 C5.14 371.3
								 4.9 371.53 4.63 371.79 L4.56 371.86 L4.28 372.08 C4.05 372.32 3.82 372.57 3.58 372.86 L3.52 372.94
								 L3.34 373.15 C3.12 373.43 2.9 373.73 2.66 374.08 L2.61 374.15 L2.53 374.3 C2.29 374.67 2.05 375.06
								 1.84 375.47 A15.6836 15.6836 -180 0 0 3.41 392.79 L3.45 392.85 C3.7 393.16 3.98 393.46 4.22 393.72
								 L4.28 393.82 L4.45 394.01 C4.64 394.2 4.83 394.38 5.03 394.55 L5.13 394.65 L5.27 394.77 L5.6 395.07
								 L6.16 395.49 L6.31 395.61 L6.46 395.73 L6.82 395.99 A15.945 15.945 -180 0 0 11.07 398.03 L11.4 398.12
								 L11.57 398.12 L11.67 398.12 C11.96 398.2 12.26 398.27 12.55 398.33 C12.83 398.4 13.16 398.44 13.46
								 398.47 L13.56 398.47 L13.73 398.47 L14.07 398.47 C14.59 398.53 15.12 398.55 15.65 398.55 A15.7446
								 15.7446 -180 0 0 18.78 398.24 L19.2 398.13 L19.39 398.08 L19.59 398.08 C19.81 398.03 20.04 397.98
								 20.26 397.91 L20.67 397.77 L20.85 397.7 L20.97 397.66 C21.22 397.57 21.47 397.48 21.72 397.38 L21.96
								 397.27 L22.09 397.21 C22.4 397.07 22.77 396.9 23.14 396.7 L23.18 396.7 A15.5442 15.5442 -180 0 0
								 30.15 388.97 A15.8056 15.8056 -180 0 0 31.29 381.37 L31.29 381.32 C31.24 380.87 31.17 380.45 31.1
								 379.98 a0.923592 0.923592 0 0 1 -2.4869E-14 -0.16555 L31.1 379.72 C31.01 379.31 30.92 378.95 30.83
								 378.61 A2.44839 2.44839 -180 0 0 30.74 378.34 L30.74 378.24 C30.63 377.88 30.51 377.55 30.4 377.26
								 C30.4 377.15 30.32 377.05 30.28 376.94 L30.28 376.88 C30.14 376.53 30 376.22 29.85 375.92 C29.8
								 375.84 29.75 375.74 29.71 375.65 C29.51 375.28 29.33 374.95 29.14 374.64 L29.03 374.47 C28.8 374.09
								 28.55 373.74 28.31 373.41 L28.25 373.34 A15.5442 15.5442 -180 0 0 25.28 370.47 C24.89 370.17 24.53
								 369.91 24.17 369.69 L24.05 369.6 L23.99 369.6 L23.8 369.49 C23.63 369.37 23.45 369.27 23.27 369.17
								 L22.4 368.71 C22.01 368.53 21.61 368.35 21.21 368.2 L20.24 367.86 L20.2 367.86 L19.66 367.73 L19.45
								 367.67 L19.25 367.62 L19.12 367.62 L19.69 366.98 L20.3 366.37 L19.69 365.75 L17.85 363.92 L17.8
								 363.87 L16.3 362.38 L15.68 361.76 L15.68 361.77 Z" class="st22"/>
					<path d="M15.68 362.99 L17.18 364.48 L17.23 364.54 L19.09 366.38 L18.22 367.25 L17.26 366.29 L16.3 365.36 L16.3
								 368.08 C16.61 368.08 16.93 368.08 17.23 368.14 C17.48 368.14 17.72 368.2 17.96 368.24 L18.6 368.34
								 C18.81 368.38 19.02 368.44 19.22 368.49 C19.42 368.54 19.71 368.61 19.94 368.68 A14.8123 14.8123
								 0 0 1 22.79 369.9 C23.03 370.03 23.24 370.17 23.46 370.3 L23.64 370.41 C23.99 370.64 24.33 370.88
								 24.67 371.13 A14.9082 14.9082 0 0 1 27.54 373.96 L27.59 374.02 C27.83 374.34 28.05 374.67 28.26
								 375 L28.38 375.18 C28.56 375.48 28.73 375.79 28.9 376.11 L29.05 376.4 C29.2 376.69 29.33 377 29.45
								 377.27 C29.5 377.38 29.55 377.5 29.6 377.61 C29.71 377.93 29.81 378.23 29.91 378.55 C29.91 378.67
								 29.99 378.78 30.02 378.9 C30.12 379.24 30.2 379.59 30.28 379.95 C30.28 380.03 30.28 380.11 30.28
								 380.19 A12.756 12.756 0 0 1 30.46 381.47 A14.8123 14.8123 0 0 1 22.77 395.96 L22.71 395.96 C22.39
								 396.13 22.05 396.29 21.72 396.44 L21.37 396.6 C21.1 396.71 20.83 396.81 20.55 396.91 C20.27 397
								 20.19 397.05 20 397.1 C19.8 397.15 19.45 397.25 19.18 397.31 C18.91 397.37 18.79 397.42 18.59 397.45
								 A14.5771 14.5771 0 0 1 15.64 397.75 A14.2111 14.2111 0 0 1 14.15 397.68 L13.67 397.61 C13.35 397.61
								 13.02 397.52 12.7 397.46 C12.38 397.4 12.07 397.31 11.76 397.23 L11.29 397.11 A14.8123 14.8123 0
								 0 1 7.28 395.18 C7.11 395.07 6.95 394.94 6.79 394.81 C6.62 394.69 6.33 394.49 6.12 394.31 C5.91
								 394.13 5.83 394.05 5.68 393.91 C5.53 393.77 5.24 393.53 5.04 393.32 C4.84 393.11 4.87 393.12 4.78
								 393.04 C4.53 392.76 4.29 392.47 4.05 392.17 A14.8123 14.8123 0 0 1 2.58 375.92 C2.79 375.53 3.01
								 375.16 3.25 374.8 L3.41 374.57 C3.61 374.27 3.82 373.98 4.04 373.7 L4.28 373.42 C4.49 373.17 4.7
								 372.92 4.93 372.68 L5.2 372.41 C5.44 372.18 5.67 371.95 5.92 371.73 A2.70979 2.70979 0 0 1 6.17
								 371.53 C6.44 371.3 6.72 371.08 7.04 370.87 L7.2 370.75 C7.54 370.52 7.87 370.3 8.21 370.1 L8.28
								 370.1 A14.6032 14.6032 0 0 1 11.93 368.6 C12.34 368.49 12.75 368.4 13.16 368.33 L13.36 368.33 C13.62
								 368.33 13.87 368.23 14.13 368.2 C14.44 368.2 14.75 368.14 15.06 368.14 L15.06 365.36 L14.13 366.3
								 L13.17 367.26 L12.3 366.38 L14.13 364.55 L14.18 364.49 L15.68 362.99M15.68 361.77 L15.07 362.38
								 L13.57 363.87 L13.52 363.93 L11.68 365.76 L11.06 366.38 L11.68 366.98 L12.27 367.57 C12.08 367.57
								 11.89 367.65 11.71 367.7 A16.1454 16.1454 -180 0 0 7.81 369.31 L7.76 369.35 C7.4 369.56 7.05 369.8
								 6.7 370.03 L6.52 370.16 C6.22 370.38 5.92 370.62 5.65 370.86 L5.39 371.08 C5.14 371.3 4.9 371.53
								 4.63 371.79 L4.56 371.86 L4.28 372.08 C4.05 372.32 3.82 372.57 3.58 372.86 L3.52 372.94 L3.34 373.15
								 C3.12 373.43 2.9 373.73 2.66 374.08 L2.61 374.15 L2.53 374.3 C2.29 374.67 2.05 375.06 1.84 375.47
								 A15.6836 15.6836 -180 0 0 3.41 392.79 L3.45 392.85 C3.7 393.16 3.98 393.46 4.22 393.72 L4.28 393.82
								 L4.45 394.01 C4.64 394.2 4.83 394.38 5.03 394.55 L5.13 394.65 L5.27 394.77 L5.6 395.07 L6.16 395.49
								 L6.31 395.61 L6.46 395.73 L6.82 395.99 A15.945 15.945 -180 0 0 11.07 398.03 L11.4 398.12 L11.57
								 398.12 L11.67 398.12 C11.96 398.2 12.26 398.27 12.55 398.33 C12.83 398.4 13.16 398.44 13.46 398.47
								 L13.56 398.47 L13.73 398.47 L14.07 398.47 C14.59 398.53 15.12 398.55 15.65 398.55 A15.7446 15.7446
								 -180 0 0 18.78 398.24 L19.2 398.13 L19.39 398.08 L19.59 398.08 C19.81 398.03 20.04 397.98 20.26
								 397.91 L20.67 397.77 L20.85 397.7 L20.97 397.66 C21.22 397.57 21.47 397.48 21.72 397.38 L21.96 397.27
								 L22.09 397.21 C22.4 397.07 22.77 396.9 23.14 396.7 L23.18 396.7 A15.5442 15.5442 -180 0 0 30.15
								 388.97 A15.8056 15.8056 -180 0 0 31.29 381.37 L31.29 381.32 C31.24 380.87 31.17 380.45 31.1 379.98
								 a0.923592 0.923592 0 0 1 -2.4869E-14 -0.16555 L31.1 379.72 C31.01 379.31 30.92 378.95 30.83 378.61
								 A2.44839 2.44839 -180 0 0 30.74 378.34 L30.74 378.24 C30.63 377.88 30.51 377.55 30.4 377.26 C30.4
								 377.15 30.32 377.05 30.28 376.94 L30.28 376.88 C30.14 376.53 30 376.22 29.85 375.92 C29.8 375.84
								 29.75 375.74 29.71 375.65 C29.51 375.28 29.33 374.95 29.14 374.64 L29.03 374.47 C28.8 374.09 28.55
								 373.74 28.31 373.41 L28.25 373.34 A15.5442 15.5442 -180 0 0 25.28 370.47 C24.89 370.17 24.53 369.91
								 24.17 369.69 L24.05 369.6 L23.99 369.6 L23.8 369.49 C23.63 369.37 23.45 369.27 23.27 369.17 L22.4
								 368.71 C22.01 368.53 21.61 368.35 21.21 368.2 L20.24 367.86 L20.2 367.86 L19.66 367.73 L19.45 367.67
								 L19.25 367.62 L19.12 367.62 L19.69 366.98 L20.3 366.37 L19.69 365.75 L17.85 363.92 L17.8 363.87
								 L16.3 362.38 L15.68 361.76 L15.68 361.77" class="st29"/>
				</g>
				<g id="shape111-217" v:mID="111" v:groupContext="shape" transform="translate(14.1311,-0.699574)">
					<title>Sheet.111</title>
					<path d="M3.1 368.83 L3.1 370.08 A13.6535 13.6535 0 1 1 0 370.08 L0 368.83 A14.8995 14.8995 -180 1 0 3.1 368.83
								 Z" class="st30"/>
				</g>
				<g id="shape112-219" v:mID="112" v:groupContext="shape" transform="translate(12.3013,-4.43499)">
					<title>Sheet.112</title>
					<path d="M2.76 398.55 L4 398.55 L4 369.8 L4.93 370.73 L5.89 371.69 L6.77 370.81 L4.93 368.97 L4.88 368.92 L3.38
								 367.42 L1.88 368.92 L1.83 368.97 L0 370.81 L0.87 371.69 L1.83 370.73 L2.76 369.8 L2.76 398.55 Z"
							class="st30"/>
				</g>
				<g id="shape113-221" v:mID="113" v:groupContext="shape" transform="translate(16.3617,-12.2158)">
					<title>Sheet.113</title>
					<path d="M4.26 397.67 L2.37 395.78 L10.33 395.78 L10.33 394.54 L2.37 394.54 L4.26 392.65 L3.38 391.77 L0.87 394.28
								 L0 395.16 L0.87 396.04 L3.38 398.55 L4.26 397.67 Z" class="st30"/>
				</g>
				<g id="shape114-223" v:mID="114" v:groupContext="shape" transform="translate(4.66864,-12.2158)">
					<title>Sheet.114</title>
					<path d="M6.08 392.65 L7.96 394.54 L0 394.54 L0 395.78 L7.96 395.78 L6.08 397.67 L6.95 398.55 L9.46 396.04 L10.34
								 395.16 L9.46 394.28 L6.95 391.77 L6.08 392.65 Z" class="st30"/>
				</g>
			</g>
			<g id="shape115-225" v:mID="115" v:groupContext="shape">
				<title>Sheet.115</title>
				<desc>NAT Gateway</desc>
				<v:textBlock v:margins="rect(4,4,4,4)"/>
				<v:textRect cx="25.4209" cy="389.862" width="50.85" height="17.3818"/>
				<rect x="0" y="381.171" width="50.8418" height="17.3818" class="st18"/>
				<text x="17.32" y="387.46" class="st19" v:langID="1033"><v:paragraph v:horizAlign="1" v:bulletSize="0.166667"/><v:tabList/>NAT <v:lf/><tspan
							x="9.9" dy="1.2em" class="st20">Gateway</tspan></text>			</g>
		</g>
	</g>
</svg>
